<svg width="1662" height="903" viewBox="0 0 1662 903" fill="none" xmlns="http://www.w3.org/2000/svg">
<rect width="1662" height="903" fill="#252323"/>
<g clip-path="url(#clip0_262_2)">
<rect x="101" y="207" width="700" height="450" fill="white"/>
<line x1="101.27" y1="206.579" x2="801.27" y2="656.579" stroke="black"/>
<line x1="100.73" y1="656.579" x2="800.73" y2="206.579" stroke="black"/>
<rect x="284.25" y="328.25" width="335.5" height="210.5" rx="4.75" fill="white" stroke="black" stroke-width="0.5"/>
<rect x="448" y="329" width="172" height="210" fill="#DBDBDB"/>
<line x1="448.387" y1="328.683" x2="620.387" y2="538.683" stroke="black"/>
<line x1="620.387" y1="329.317" x2="448.387" y2="539.317" stroke="black"/>
<mask id="path-9-inside-1_262_2" fill="white">
<path d="M314 363.656C314 360.894 316.239 358.656 319 358.656H425C427.761 358.656 430 360.894 430 363.656V377.258C430 380.02 427.761 382.258 425 382.258H319C316.239 382.258 314 380.02 314 377.258V363.656Z"/>
</mask>
<path d="M314 358.656H430H314ZM430 377.258C430 380.158 427.649 382.508 424.75 382.508H319.25C316.351 382.508 314 380.158 314 377.258C314 379.882 316.239 382.008 319 382.008H425C427.761 382.008 430 379.882 430 377.258ZM314 382.258V358.656V382.258ZM430 358.656V382.258V358.656Z" fill="black" mask="url(#path-9-inside-1_262_2)"/>
<mask id="path-11-inside-2_262_2" fill="white">
<path d="M314 438.755C314 435.994 316.239 433.755 319 433.755H425C427.761 433.755 430 435.994 430 438.755V452.358C430 455.119 427.761 457.358 425 457.358H319C316.239 457.358 314 455.119 314 452.358V438.755Z"/>
</mask>
<path d="M314 438.755C314 435.994 316.239 433.755 319 433.755H425C427.761 433.755 430 435.994 430 438.755V452.358C430 455.119 427.761 457.358 425 457.358H319C316.239 457.358 314 455.119 314 452.358V438.755Z" fill="white"/>
<path d="M314 433.755H430H314ZM430 452.358C430 455.257 427.649 457.608 424.75 457.608H319.25C316.351 457.608 314 455.257 314 452.358C314 454.981 316.239 457.108 319 457.108H425C427.761 457.108 430 454.981 430 452.358ZM314 457.358V433.755V457.358ZM430 433.755V457.358V433.755Z" fill="black" mask="url(#path-11-inside-2_262_2)"/>
<path d="M318.512 355.808C318.512 357.168 318.056 357.824 316.912 357.824C315.912 357.824 315.52 357.328 315.52 355.816V353.424C315.52 352.432 315.552 352.312 315.944 352.256V352.176C315.776 352.184 315.384 352.192 315.096 352.192C314.808 352.192 314.464 352.184 314.288 352.176V352.256C314.664 352.32 314.688 352.432 314.688 353.432V355.88C314.688 357.48 315.464 358.104 316.8 358.104C318 358.104 318.8 357.6 318.8 355.816V354.256C318.8 352.496 318.8 352.408 319.296 352.264V352.184C319.128 352.192 318.92 352.2 318.64 352.2C318.352 352.2 318.088 352.192 317.912 352.184V352.264C318.456 352.416 318.512 352.488 318.512 354.192V355.808ZM321.865 355.16C321.857 354.904 321.849 354.704 321.849 354.568C321.849 354.432 321.857 354.352 321.873 354.272C321.529 354.24 321.209 354.16 320.881 354.16C320.169 354.16 319.601 354.536 319.601 355.232C319.601 356.44 321.329 356.176 321.329 357.248C321.329 357.664 321.065 357.904 320.657 357.904C320.041 357.904 319.769 357.36 319.793 356.784H319.713C319.641 357.104 319.665 357.632 319.617 357.896C320.081 357.976 320.385 358.064 320.713 358.064C321.401 358.064 322.033 357.664 322.033 356.904C322.033 355.624 320.249 355.84 320.249 354.912C320.249 354.576 320.481 354.32 320.889 354.32C321.353 354.32 321.665 354.656 321.785 355.16H321.865ZM325.817 357.248C325.473 357.576 325.153 357.688 324.809 357.688C323.953 357.688 323.345 356.992 323.345 355.864C323.345 355.736 323.353 355.664 323.353 355.664H325.857C325.857 354.64 325.105 354.16 324.345 354.16C323.361 354.16 322.529 354.96 322.529 356.112C322.529 357.232 323.305 358.08 324.425 358.08C325.065 358.08 325.521 357.808 325.873 357.32L325.817 357.248ZM323.377 355.456C323.473 354.824 323.809 354.32 324.313 354.32C324.745 354.32 325.025 354.696 325.041 355.456H323.377ZM327.75 357.936C327.51 357.888 327.406 357.848 327.406 357.208V354.896C327.598 354.68 327.75 354.616 327.894 354.616C328.086 354.616 328.214 354.728 328.214 355.056H328.95C328.95 354.432 328.726 354.16 328.326 354.16C327.958 354.16 327.694 354.4 327.406 354.672V354.16C327.134 354.288 326.758 354.368 326.406 354.376V354.456C326.646 354.52 326.654 354.64 326.654 355.032V357.208C326.654 357.848 326.55 357.888 326.31 357.936V358.016C326.486 358.008 326.734 358 327.03 358C327.326 358 327.574 358.008 327.75 358.016V357.936ZM333.144 357.936C332.904 357.888 332.8 357.848 332.8 357.208V355.464C332.8 354.328 332.08 354.16 331.544 354.16C331.144 354.16 330.744 354.256 330.344 354.552V354.16C330.072 354.288 329.696 354.368 329.344 354.376V354.456C329.584 354.52 329.592 354.64 329.592 355.032V357.208C329.592 357.848 329.488 357.888 329.248 357.936V358.016C329.424 358.008 329.672 358 329.968 358C330.264 358 330.512 358.008 330.688 358.016V357.936C330.448 357.888 330.344 357.848 330.344 357.208V354.76C330.568 354.568 330.864 354.416 331.224 354.416C331.68 354.416 332.048 354.656 332.048 355.488V357.208C332.048 357.848 331.944 357.888 331.704 357.936V358.016C331.88 358.008 332.128 358 332.424 358C332.72 358 332.968 358.008 333.144 358.016V357.936ZM336.865 357.6C336.785 357.664 336.729 357.68 336.665 357.68C336.505 357.68 336.449 357.576 336.449 357.224V355.544C336.449 354.512 335.945 354.16 335.169 354.16C334.409 354.16 333.769 354.496 333.641 355.352H334.329C334.337 354.664 334.633 354.344 335.089 354.344C335.497 354.344 335.697 354.6 335.697 355.216V356.368C335.473 356.232 335.161 356.16 334.849 356.16C334.089 356.16 333.489 356.576 333.489 357.184C333.489 357.712 333.937 358.08 334.585 358.08C335.009 358.08 335.401 357.92 335.729 357.64C335.761 357.944 335.945 358.056 336.201 358.056C336.505 358.056 336.761 357.904 336.905 357.672L336.865 357.6ZM334.961 357.792C334.553 357.792 334.305 357.528 334.305 357.096C334.305 356.656 334.569 356.36 335.057 356.36C335.289 356.36 335.537 356.424 335.697 356.544V357.48C335.441 357.712 335.185 357.792 334.961 357.792ZM343.416 357.936C343.176 357.888 343.072 357.848 343.072 357.208V355.528C343.072 354.408 342.448 354.16 341.872 354.16C341.488 354.16 341.008 354.272 340.504 354.648C340.28 354.264 339.888 354.16 339.504 354.16C339.12 354.16 338.712 354.264 338.32 354.552V354.16C338.048 354.288 337.672 354.368 337.32 354.376V354.456C337.56 354.52 337.568 354.64 337.568 355.032V357.208C337.568 357.848 337.464 357.888 337.224 357.936V358.016C337.4 358.008 337.648 358 337.944 358C338.24 358 338.488 358.008 338.664 358.016V357.936C338.424 357.888 338.32 357.848 338.32 357.208V354.752C338.584 354.536 338.872 354.416 339.192 354.416C339.632 354.416 339.936 354.64 339.936 355.528V357.208C339.936 357.848 339.832 357.888 339.592 357.936V358.016C339.768 358.008 340.016 358 340.312 358C340.608 358 340.856 358.008 341.032 358.016V357.936C340.792 357.888 340.688 357.848 340.688 357.208V355.504C340.688 355.208 340.648 354.976 340.568 354.792C340.912 354.536 341.24 354.416 341.552 354.416C342.008 354.416 342.32 354.664 342.32 355.544V357.208C342.32 357.848 342.216 357.888 341.976 357.936V358.016C342.152 358.008 342.4 358 342.696 358C342.992 358 343.24 358.008 343.416 358.016V357.936ZM347.09 357.248C346.746 357.576 346.426 357.688 346.082 357.688C345.226 357.688 344.618 356.992 344.618 355.864C344.618 355.736 344.626 355.664 344.626 355.664H347.13C347.13 354.64 346.378 354.16 345.618 354.16C344.634 354.16 343.802 354.96 343.802 356.112C343.802 357.232 344.578 358.08 345.698 358.08C346.338 358.08 346.794 357.808 347.146 357.32L347.09 357.248ZM344.65 355.456C344.746 354.824 345.082 354.32 345.586 354.32C346.018 354.32 346.298 354.696 346.314 355.456H344.65Z" fill="black"/>
<path d="M316.008 433.035V433.115C315.84 433.107 315.48 433.099 315.192 433.099C314.896 433.099 314.552 433.107 314.376 433.115V433.035C314.712 432.979 314.776 432.875 314.776 432.107V428.283C314.776 427.515 314.696 427.411 314.36 427.355V427.275C314.536 427.283 314.88 427.291 315.16 427.291C315.56 427.291 315.896 427.275 316.104 427.275C317.528 427.275 318.168 427.995 318.168 428.859C318.168 429.707 317.544 430.435 316.496 430.435C316.2 430.435 315.952 430.379 315.768 430.251L315.816 430.171C315.968 430.251 316.168 430.275 316.304 430.275C316.976 430.275 317.264 429.707 317.264 428.947C317.264 428.027 316.84 427.491 316.08 427.491C315.912 427.491 315.744 427.515 315.608 427.563V432.107C315.608 432.875 315.68 432.979 316.008 433.035ZM321.568 432.699L321.608 432.771C321.464 433.003 321.208 433.155 320.904 433.155C320.648 433.155 320.464 433.043 320.432 432.739C320.104 433.019 319.712 433.179 319.288 433.179C318.64 433.179 318.192 432.811 318.192 432.283C318.192 431.675 318.792 431.259 319.552 431.259C319.864 431.259 320.176 431.331 320.4 431.467V430.315C320.4 429.699 320.2 429.443 319.792 429.443C319.336 429.443 319.04 429.763 319.032 430.451H318.344C318.472 429.595 319.112 429.259 319.872 429.259C320.648 429.259 321.152 429.611 321.152 430.643V432.323C321.152 432.675 321.208 432.779 321.368 432.779C321.432 432.779 321.488 432.763 321.568 432.699ZM319.664 432.891C319.888 432.891 320.144 432.811 320.4 432.579V431.643C320.24 431.523 319.992 431.459 319.76 431.459C319.272 431.459 319.008 431.755 319.008 432.195C319.008 432.627 319.256 432.891 319.664 432.891ZM324.271 430.259H324.191C324.071 429.755 323.759 429.419 323.295 429.419C322.887 429.419 322.655 429.675 322.655 430.011C322.655 430.939 324.439 430.723 324.439 432.003C324.439 432.763 323.807 433.163 323.119 433.163C322.791 433.163 322.487 433.075 322.023 432.995C322.071 432.731 322.047 432.203 322.119 431.883H322.199C322.175 432.459 322.447 433.003 323.063 433.003C323.471 433.003 323.735 432.763 323.735 432.347C323.735 431.275 322.007 431.539 322.007 430.331C322.007 429.635 322.575 429.259 323.287 429.259C323.615 429.259 323.935 429.339 324.279 429.371C324.263 429.451 324.255 429.531 324.255 429.667C324.255 429.803 324.263 430.003 324.271 430.259ZM327.279 430.259H327.199C327.079 429.755 326.767 429.419 326.303 429.419C325.895 429.419 325.663 429.675 325.663 430.011C325.663 430.939 327.447 430.723 327.447 432.003C327.447 432.763 326.815 433.163 326.127 433.163C325.799 433.163 325.495 433.075 325.031 432.995C325.079 432.731 325.055 432.203 325.127 431.883H325.207C325.183 432.459 325.455 433.003 326.071 433.003C326.479 433.003 326.743 432.763 326.743 432.347C326.743 431.275 325.015 431.539 325.015 430.331C325.015 429.635 325.583 429.259 326.295 429.259C326.623 429.259 326.943 429.339 327.287 429.371C327.271 429.451 327.263 429.531 327.263 429.667C327.263 429.803 327.271 430.003 327.279 430.259ZM331.431 433.227H331.311L330.407 430.827L329.447 433.227H329.327L328.231 430.299C327.951 429.555 327.879 429.411 327.647 429.371V429.291C327.759 429.291 328.031 429.299 328.327 429.299C328.623 429.299 329.055 429.291 329.167 429.291V429.371C328.951 429.395 328.863 429.427 328.863 429.611C328.863 429.691 328.879 429.851 329.103 430.475L329.655 432.011C329.903 431.403 330.119 430.867 330.271 430.451L330.215 430.299C329.951 429.579 329.855 429.403 329.631 429.371V429.291C329.743 429.291 330.015 429.299 330.311 429.299C330.607 429.299 331.039 429.291 331.151 429.291V429.371C330.935 429.395 330.847 429.427 330.847 429.611C330.847 429.691 330.863 429.851 331.087 430.475L331.639 432.011C332.143 430.787 332.447 430.027 332.447 429.723C332.447 429.539 332.343 429.403 332.087 429.371V429.291C332.191 429.291 332.391 429.299 332.703 429.299C333.007 429.299 333.151 429.291 333.271 429.291V429.371C333.055 429.419 332.887 429.587 332.543 430.451L331.431 433.227ZM337.356 431.211C337.356 432.331 336.508 433.147 335.372 433.147C334.292 433.147 333.412 432.403 333.412 431.235C333.412 430.051 334.324 429.259 335.388 429.259C336.46 429.259 337.356 430.067 337.356 431.211ZM335.372 432.987C336.292 432.987 336.468 432.195 336.468 431.235C336.468 430.147 336.244 429.419 335.388 429.419C334.468 429.419 334.3 430.259 334.3 431.227C334.3 432.259 334.492 432.987 335.372 432.987ZM339.25 433.035V433.115C339.074 433.107 338.826 433.099 338.53 433.099C338.234 433.099 337.986 433.107 337.81 433.115V433.035C338.05 432.987 338.154 432.947 338.154 432.307V430.131C338.154 429.739 338.146 429.619 337.906 429.555V429.475C338.258 429.467 338.634 429.387 338.906 429.259V429.771C339.194 429.499 339.458 429.259 339.826 429.259C340.226 429.259 340.45 429.531 340.45 430.155H339.714C339.714 429.827 339.586 429.715 339.394 429.715C339.25 429.715 339.098 429.779 338.906 429.995V432.307C338.906 432.947 339.01 432.987 339.25 433.035ZM343.95 433.163C343.726 433.163 343.51 433.099 343.414 432.763C343.094 433.075 342.734 433.163 342.398 433.163C341.334 433.163 340.63 432.323 340.63 431.283C340.63 430.115 341.51 429.259 342.542 429.259C342.854 429.259 343.126 429.339 343.366 429.499V427.875C343.366 427.483 343.35 427.355 343.062 427.299V427.219C343.414 427.211 343.83 427.147 344.118 427.003V431.907C344.118 432.643 344.134 432.803 344.334 432.803C344.446 432.803 344.534 432.755 344.59 432.723L344.638 432.795C344.494 432.995 344.294 433.163 343.95 433.163ZM342.654 432.875C342.87 432.875 343.182 432.827 343.374 432.547C343.366 432.491 343.366 432.427 343.366 432.355V429.899C343.238 429.635 342.918 429.467 342.566 429.467C341.95 429.467 341.526 429.995 341.526 431.147C341.526 432.283 341.934 432.875 342.654 432.875Z" fill="black"/>
<path d="M317.965 508.636V513H317.705L314.923 509.12H314.897V513H314.631V508.636H314.893L317.675 512.521H317.701V508.636H317.965ZM320.349 513.068C320.08 513.068 319.839 512.996 319.629 512.851C319.419 512.705 319.254 512.504 319.133 512.248C319.012 511.992 318.952 511.701 318.952 511.374C318.952 511.046 319.012 510.755 319.133 510.501C319.254 510.245 319.419 510.044 319.629 509.898C319.839 509.751 320.08 509.678 320.349 509.678C320.619 509.678 320.859 509.751 321.07 509.898C321.28 510.044 321.445 510.245 321.566 510.501C321.687 510.756 321.747 511.048 321.747 511.374C321.747 511.701 321.687 511.992 321.566 512.248C321.445 512.504 321.28 512.705 321.07 512.851C320.859 512.996 320.619 513.068 320.349 513.068ZM320.349 512.827C320.578 512.827 320.778 512.763 320.948 512.634C321.12 512.504 321.253 512.33 321.347 512.109C321.442 511.889 321.489 511.644 321.489 511.374C321.489 511.104 321.442 510.86 321.347 510.641C321.251 510.421 321.119 510.246 320.948 510.117C320.778 509.987 320.578 509.921 320.349 509.921C320.121 509.921 319.921 509.987 319.751 510.117C319.58 510.246 319.447 510.421 319.352 510.641C319.257 510.86 319.21 511.104 319.21 511.374C319.21 511.644 319.256 511.889 319.35 512.109C319.445 512.33 319.578 512.504 319.749 512.634C319.92 512.763 320.121 512.827 320.349 512.827ZM323.8 509.727V509.96H322.37V509.727H323.8ZM322.854 508.943H323.111V512.227C323.111 512.36 323.137 512.469 323.188 512.555C323.241 512.638 323.309 512.701 323.393 512.742C323.478 512.782 323.569 512.802 323.665 512.802C323.712 512.802 323.753 512.798 323.787 512.791C323.822 512.784 323.856 512.775 323.887 512.763L323.951 513C323.911 513.014 323.867 513.026 323.819 513.036C323.77 513.048 323.714 513.053 323.648 513.053C323.512 513.053 323.383 513.023 323.26 512.962C323.14 512.901 323.042 512.812 322.966 512.695C322.891 512.579 322.854 512.438 322.854 512.273V508.943ZM326.451 513V509.727H326.705V510.239H326.728C326.799 510.071 326.919 509.937 327.088 509.836C327.257 509.734 327.45 509.683 327.666 509.683C327.688 509.683 327.711 509.683 327.734 509.683C327.757 509.683 327.778 509.683 327.798 509.685V509.947C327.781 509.945 327.76 509.943 327.736 509.94C327.713 509.936 327.685 509.934 327.651 509.934C327.469 509.934 327.307 509.973 327.165 510.051C327.024 510.129 326.914 510.237 326.833 510.375C326.752 510.511 326.711 510.668 326.711 510.844V513H326.451ZM329.673 513.068C329.377 513.068 329.12 512.995 328.901 512.849C328.683 512.702 328.514 512.502 328.394 512.248C328.275 511.994 328.215 511.704 328.215 511.379C328.215 511.052 328.275 510.761 328.394 510.505C328.515 510.249 328.681 510.048 328.891 509.9C329.101 509.752 329.341 509.678 329.611 509.678C329.794 509.678 329.968 509.715 330.131 509.789C330.296 509.862 330.441 509.967 330.566 510.104C330.692 510.242 330.791 510.408 330.862 510.603C330.934 510.798 330.97 511.016 330.97 511.259V511.421H328.379V511.185H330.71C330.71 510.947 330.662 510.734 330.566 510.543C330.469 510.353 330.338 510.202 330.171 510.089C330.005 509.977 329.818 509.921 329.611 509.921C329.394 509.921 329.2 509.982 329.029 510.104C328.86 510.225 328.726 510.388 328.627 510.594C328.529 510.8 328.477 511.031 328.473 511.285V511.391C328.473 511.664 328.521 511.909 328.616 512.126C328.713 512.342 328.85 512.513 329.029 512.64C329.208 512.765 329.423 512.827 329.673 512.827C329.852 512.827 330.004 512.798 330.131 512.738C330.259 512.677 330.363 512.603 330.444 512.516C330.525 512.43 330.586 512.346 330.627 512.265L330.864 512.361C330.814 512.47 330.737 512.58 330.632 512.689C330.528 512.797 330.396 512.887 330.235 512.96C330.076 513.032 329.889 513.068 329.673 513.068ZM333.046 514.295C332.843 514.295 332.66 514.268 332.498 514.214C332.336 514.162 332.198 514.087 332.085 513.989C331.972 513.891 331.887 513.774 331.827 513.639L332.044 513.511C332.093 513.616 332.161 513.71 332.251 513.793C332.34 513.875 332.451 513.94 332.583 513.987C332.717 514.033 332.871 514.057 333.046 514.057C333.361 514.057 333.61 513.975 333.794 513.812C333.978 513.65 334.07 513.401 334.07 513.066V512.252H334.045C333.995 512.394 333.921 512.521 333.823 512.631C333.727 512.741 333.608 512.827 333.468 512.889C333.327 512.952 333.167 512.983 332.988 512.983C332.73 512.983 332.502 512.916 332.306 512.783C332.11 512.649 331.958 512.462 331.848 512.22C331.739 511.977 331.684 511.692 331.684 511.364C331.684 511.036 331.737 510.745 331.844 510.492C331.952 510.238 332.104 510.039 332.3 509.896C332.496 509.751 332.726 509.678 332.99 509.678C333.179 509.678 333.343 509.714 333.48 509.787C333.619 509.858 333.736 509.952 333.83 510.07C333.923 510.188 333.996 510.317 334.047 510.458H334.077V509.727H334.328V513.077C334.328 513.349 334.274 513.576 334.166 513.756C334.06 513.937 333.91 514.072 333.717 514.161C333.525 514.251 333.301 514.295 333.046 514.295ZM333.012 512.742C333.23 512.742 333.419 512.687 333.576 512.576C333.735 512.464 333.857 512.305 333.943 512.099C334.029 511.891 334.073 511.646 334.073 511.362C334.073 511.086 334.031 510.839 333.947 510.622C333.863 510.405 333.742 510.234 333.583 510.109C333.423 509.984 333.233 509.921 333.012 509.921C332.786 509.921 332.593 509.985 332.434 510.113C332.275 510.239 332.153 510.411 332.068 510.629C331.984 510.846 331.942 511.09 331.942 511.362C331.942 511.634 331.985 511.874 332.07 512.082C332.155 512.288 332.277 512.45 332.436 512.567C332.595 512.684 332.787 512.742 333.012 512.742ZM335.435 513V509.727H335.692V513H335.435ZM335.565 509.148C335.508 509.148 335.458 509.128 335.415 509.088C335.374 509.048 335.354 509 335.354 508.943C335.354 508.886 335.374 508.838 335.415 508.798C335.457 508.759 335.506 508.739 335.565 508.739C335.621 508.739 335.67 508.759 335.712 508.798C335.754 508.838 335.776 508.886 335.776 508.943C335.776 509 335.755 509.048 335.714 509.088C335.673 509.128 335.623 509.148 335.565 509.148ZM338.861 510.433L338.62 510.496C338.582 510.377 338.527 510.274 338.456 510.188C338.385 510.101 338.295 510.034 338.188 509.987C338.081 509.939 337.953 509.915 337.804 509.915C337.564 509.915 337.367 509.974 337.214 510.094C337.062 510.213 336.986 510.369 336.986 510.56C336.986 510.717 337.038 510.846 337.141 510.948C337.245 511.049 337.403 511.126 337.616 511.178L338.119 511.304C338.378 511.368 338.572 511.472 338.703 511.615C338.834 511.757 338.899 511.934 338.899 512.146C338.899 512.326 338.85 512.486 338.752 512.625C338.654 512.764 338.518 512.873 338.345 512.951C338.173 513.029 337.973 513.068 337.744 513.068C337.439 513.068 337.188 512.997 336.992 512.855C336.796 512.712 336.67 512.506 336.615 512.239L336.864 512.175C336.911 512.388 337.009 512.551 337.156 512.663C337.305 512.774 337.501 512.83 337.742 512.83C338.009 512.83 338.224 512.766 338.388 512.64C338.553 512.513 338.635 512.352 338.635 512.154C338.635 512.004 338.587 511.876 338.49 511.773C338.393 511.669 338.247 511.593 338.051 511.545L337.529 511.417C337.262 511.352 337.062 511.247 336.928 511.104C336.795 510.959 336.728 510.781 336.728 510.569C336.728 510.393 336.774 510.238 336.866 510.104C336.959 509.971 337.086 509.866 337.248 509.791C337.41 509.716 337.595 509.678 337.804 509.678C338.081 509.678 338.307 509.744 338.482 509.874C338.656 510.005 338.783 510.191 338.861 510.433ZM340.956 509.727V509.96H339.526V509.727H340.956ZM340.01 508.943H340.268V512.227C340.268 512.36 340.293 512.469 340.344 512.555C340.397 512.638 340.465 512.701 340.549 512.742C340.634 512.782 340.725 512.802 340.822 512.802C340.868 512.802 340.909 512.798 340.943 512.791C340.979 512.784 341.012 512.775 341.043 512.763L341.107 513C341.067 513.014 341.023 513.026 340.975 513.036C340.927 513.048 340.87 513.053 340.805 513.053C340.668 513.053 340.539 513.023 340.417 512.962C340.296 512.901 340.198 512.812 340.123 512.695C340.047 512.579 340.01 512.438 340.01 512.273V508.943ZM343.161 513.068C342.866 513.068 342.608 512.995 342.39 512.849C342.171 512.702 342.002 512.502 341.883 512.248C341.763 511.994 341.704 511.704 341.704 511.379C341.704 511.052 341.763 510.761 341.883 510.505C342.003 510.249 342.169 510.048 342.379 509.9C342.589 509.752 342.829 509.678 343.099 509.678C343.282 509.678 343.456 509.715 343.619 509.789C343.784 509.862 343.929 509.967 344.054 510.104C344.18 510.242 344.279 510.408 344.35 510.603C344.422 510.798 344.459 511.016 344.459 511.259V511.421H341.868V511.185H344.199C344.199 510.947 344.15 510.734 344.054 510.543C343.957 510.353 343.826 510.202 343.66 510.089C343.493 509.977 343.307 509.921 343.099 509.921C342.882 509.921 342.688 509.982 342.518 510.104C342.349 510.225 342.214 510.388 342.115 510.594C342.017 510.8 341.966 511.031 341.961 511.285V511.391C341.961 511.664 342.009 511.909 342.104 512.126C342.201 512.342 342.339 512.513 342.518 512.64C342.697 512.765 342.911 512.827 343.161 512.827C343.34 512.827 343.493 512.798 343.619 512.738C343.747 512.677 343.851 512.603 343.932 512.516C344.013 512.43 344.074 512.346 344.116 512.265L344.352 512.361C344.302 512.47 344.225 512.58 344.12 512.689C344.016 512.797 343.884 512.887 343.724 512.96C343.564 513.032 343.377 513.068 343.161 513.068ZM345.354 513V509.727H345.607V510.239H345.631C345.702 510.071 345.822 509.937 345.991 509.836C346.16 509.734 346.352 509.683 346.568 509.683C346.591 509.683 346.613 509.683 346.636 509.683C346.659 509.683 346.68 509.683 346.7 509.685V509.947C346.683 509.945 346.662 509.943 346.638 509.94C346.616 509.936 346.587 509.934 346.553 509.934C346.371 509.934 346.209 509.973 346.067 510.051C345.927 510.129 345.816 510.237 345.735 510.375C345.654 510.511 345.613 510.668 345.613 510.844V513H345.354ZM348.575 513.068C348.28 513.068 348.023 512.995 347.804 512.849C347.585 512.702 347.416 512.502 347.297 512.248C347.177 511.994 347.118 511.704 347.118 511.379C347.118 511.052 347.177 510.761 347.297 510.505C347.417 510.249 347.583 510.048 347.793 509.9C348.003 509.752 348.243 509.678 348.513 509.678C348.697 509.678 348.87 509.715 349.033 509.789C349.198 509.862 349.343 509.967 349.468 510.104C349.594 510.242 349.693 510.408 349.764 510.603C349.836 510.798 349.873 511.016 349.873 511.259V511.421H347.282V511.185H349.613C349.613 510.947 349.564 510.734 349.468 510.543C349.371 510.353 349.24 510.202 349.074 510.089C348.907 509.977 348.721 509.921 348.513 509.921C348.296 509.921 348.102 509.982 347.932 510.104C347.763 510.225 347.628 510.388 347.529 510.594C347.431 510.8 347.38 511.031 347.376 511.285V511.391C347.376 511.664 347.423 511.909 347.518 512.126C347.615 512.342 347.753 512.513 347.932 512.64C348.111 512.765 348.325 512.827 348.575 512.827C348.754 512.827 348.907 512.798 349.033 512.738C349.161 512.677 349.265 512.603 349.346 512.516C349.427 512.43 349.488 512.346 349.53 512.265L349.766 512.361C349.716 512.47 349.639 512.58 349.534 512.689C349.43 512.797 349.298 512.887 349.138 512.96C348.979 513.032 348.791 513.068 348.575 513.068ZM351.89 513.068C351.628 513.068 351.398 512.996 351.202 512.851C351.006 512.706 350.854 512.506 350.746 512.252C350.64 511.996 350.586 511.703 350.586 511.372C350.586 511.044 350.64 510.753 350.748 510.499C350.858 510.243 351.01 510.043 351.206 509.898C351.403 509.751 351.631 509.678 351.893 509.678C352.08 509.678 352.243 509.714 352.381 509.787C352.52 509.858 352.636 509.952 352.73 510.07C352.825 510.188 352.898 510.317 352.947 510.458H352.973V508.636H353.231V513H352.979V512.286H352.947C352.895 512.427 352.822 512.557 352.728 512.676C352.634 512.794 352.518 512.889 352.378 512.962C352.239 513.033 352.077 513.068 351.89 513.068ZM351.914 512.827C352.135 512.827 352.325 512.764 352.483 512.638C352.642 512.51 352.763 512.337 352.847 512.118C352.932 511.898 352.975 511.648 352.975 511.37C352.975 511.092 352.932 510.844 352.847 510.626C352.763 510.408 352.642 510.236 352.483 510.111C352.325 509.984 352.135 509.921 351.914 509.921C351.689 509.921 351.497 509.985 351.336 510.113C351.177 510.239 351.055 510.412 350.97 510.631C350.886 510.849 350.844 511.096 350.844 511.37C350.844 511.644 350.886 511.891 350.97 512.112C351.055 512.332 351.177 512.506 351.336 512.636C351.497 512.763 351.689 512.827 351.914 512.827ZM355.063 511.728V511.519C355.064 511.342 355.086 511.192 355.127 511.072C355.168 510.951 355.233 510.844 355.323 510.75C355.412 510.655 355.53 510.559 355.675 510.462C355.798 510.377 355.899 510.294 355.977 510.213C356.055 510.131 356.112 510.045 356.148 509.955C356.184 509.866 356.203 509.768 356.203 509.661C356.203 509.495 356.163 509.349 356.084 509.222C356.006 509.094 355.899 508.995 355.764 508.924C355.631 508.852 355.48 508.815 355.312 508.815C355.145 508.815 354.993 508.853 354.856 508.928C354.72 509.004 354.611 509.109 354.528 509.246C354.446 509.382 354.403 509.543 354.398 509.727H354.128C354.132 509.501 354.186 509.302 354.29 509.129C354.395 508.955 354.536 508.82 354.714 508.724C354.891 508.626 355.091 508.577 355.312 508.577C355.535 508.577 355.733 508.624 355.907 508.719C356.08 508.813 356.216 508.942 356.314 509.107C356.413 509.272 356.463 509.46 356.463 509.67C356.463 509.802 356.442 509.923 356.399 510.034C356.356 510.143 356.29 510.247 356.199 510.345C356.108 510.443 355.99 510.543 355.845 510.643C355.713 510.734 355.608 510.821 355.532 510.903C355.456 510.986 355.403 511.075 355.372 511.172C355.341 511.268 355.325 511.384 355.325 511.519V511.728H355.063ZM355.199 513.028C355.135 513.028 355.081 513.006 355.035 512.962C354.991 512.916 354.969 512.862 354.969 512.798C354.969 512.735 354.991 512.681 355.035 512.636C355.081 512.59 355.135 512.567 355.199 512.567C355.263 512.567 355.317 512.59 355.361 512.636C355.407 512.681 355.43 512.735 355.43 512.798C355.43 512.84 355.419 512.879 355.398 512.915C355.378 512.949 355.35 512.977 355.314 512.998C355.28 513.018 355.242 513.028 355.199 513.028Z" fill="black"/>
<rect x="314" y="476" width="116" height="22" rx="5" fill="#D9D9D9"/>
<path d="M357.909 490V484.182H359.614C359.939 484.182 360.227 484.251 360.477 484.389C360.729 484.527 360.926 484.721 361.068 484.969C361.212 485.217 361.284 485.508 361.284 485.841C361.284 486.17 361.212 486.459 361.068 486.707C360.926 486.954 360.729 487.146 360.477 487.284C360.227 487.42 359.939 487.489 359.614 487.489H358V487.307H359.614C359.905 487.307 360.163 487.246 360.386 487.125C360.61 487.004 360.785 486.833 360.912 486.614C361.039 486.394 361.102 486.136 361.102 485.841C361.102 485.544 361.039 485.284 360.912 485.062C360.785 484.841 360.61 484.67 360.386 484.548C360.163 484.425 359.905 484.364 359.614 484.364H358.091V490H357.909ZM360.125 487.352L361.557 490H361.352L359.92 487.352H360.125ZM364.284 490.091C363.903 490.091 363.57 489.991 363.284 489.793C363 489.594 362.779 489.324 362.622 488.983C362.465 488.642 362.386 488.258 362.386 487.83C362.386 487.402 362.465 487.017 362.622 486.676C362.781 486.335 362.997 486.065 363.27 485.866C363.543 485.668 363.85 485.568 364.193 485.568C364.447 485.568 364.682 485.622 364.898 485.73C365.116 485.838 365.305 485.988 365.466 486.179C365.627 486.37 365.752 486.591 365.841 486.841C365.932 487.089 365.977 487.354 365.977 487.636V487.818H362.477V487.636H365.795C365.795 487.286 365.723 486.969 365.58 486.685C365.436 486.399 365.242 486.171 365 486.003C364.758 485.834 364.489 485.75 364.193 485.75C363.894 485.75 363.623 485.839 363.381 486.017C363.138 486.195 362.944 486.437 362.798 486.744C362.652 487.051 362.576 487.398 362.568 487.784V487.807C362.568 488.187 362.634 488.538 362.767 488.858C362.902 489.176 363.097 489.431 363.352 489.622C363.608 489.813 363.919 489.909 364.284 489.909C364.553 489.909 364.778 489.862 364.96 489.767C365.144 489.672 365.291 489.563 365.401 489.44C365.512 489.317 365.595 489.212 365.648 489.125L365.795 489.227C365.731 489.337 365.634 489.459 365.506 489.594C365.377 489.728 365.212 489.845 365.011 489.943C364.811 490.042 364.568 490.091 364.284 490.091ZM368.742 491.727C368.498 491.727 368.272 491.694 368.066 491.628C367.86 491.563 367.682 491.466 367.532 491.335C367.382 491.206 367.271 491.045 367.197 490.852L367.367 490.784C367.433 490.955 367.532 491.096 367.663 491.207C367.795 491.321 367.953 491.405 368.137 491.46C368.323 491.517 368.524 491.545 368.742 491.545C369.197 491.545 369.551 491.425 369.805 491.185C370.058 490.946 370.185 490.581 370.185 490.091V488.909H370.163C370.087 489.152 369.974 489.354 369.825 489.517C369.675 489.678 369.502 489.799 369.305 489.881C369.108 489.96 368.901 490 368.685 490C368.344 490 368.048 489.908 367.796 489.724C367.544 489.541 367.349 489.286 367.211 488.96C367.073 488.634 367.004 488.258 367.004 487.83C367.004 487.398 367.072 487.011 367.208 486.67C367.344 486.33 367.539 486.061 367.79 485.864C368.042 485.667 368.341 485.568 368.685 485.568C368.92 485.568 369.134 485.616 369.327 485.713C369.521 485.808 369.688 485.944 369.83 486.122C369.972 486.298 370.083 486.508 370.163 486.75H370.185V485.636H370.367V490.091C370.367 490.449 370.302 490.749 370.171 490.991C370.04 491.236 369.854 491.42 369.612 491.543C369.369 491.666 369.079 491.727 368.742 491.727ZM368.685 489.818C368.988 489.818 369.252 489.738 369.475 489.577C369.701 489.416 369.875 489.187 369.998 488.889C370.123 488.59 370.185 488.237 370.185 487.83C370.185 487.436 370.125 487.082 370.004 486.77C369.882 486.455 369.709 486.207 369.484 486.026C369.26 485.842 368.994 485.75 368.685 485.75C368.377 485.75 368.11 485.842 367.884 486.026C367.661 486.207 367.488 486.455 367.367 486.77C367.246 487.082 367.185 487.436 367.185 487.83C367.185 488.223 367.246 488.57 367.367 488.869C367.49 489.167 367.664 489.4 367.887 489.568C368.112 489.735 368.379 489.818 368.685 489.818ZM371.96 490V485.636H372.141V490H371.96ZM372.05 484.841C372.001 484.841 371.959 484.823 371.923 484.787C371.887 484.751 371.869 484.708 371.869 484.659C371.869 484.61 371.887 484.567 371.923 484.531C371.959 484.495 372.001 484.477 372.05 484.477C372.1 484.477 372.142 484.495 372.178 484.531C372.214 484.567 372.232 484.61 372.232 484.659C372.232 484.708 372.214 484.751 372.178 484.787C372.142 484.823 372.1 484.841 372.05 484.841ZM376.324 486.557L376.142 486.602C376.083 486.413 376.001 486.256 375.895 486.131C375.791 486.004 375.663 485.909 375.511 485.847C375.36 485.782 375.184 485.75 374.983 485.75C374.634 485.75 374.352 485.839 374.136 486.017C373.92 486.193 373.812 486.426 373.812 486.716C373.812 486.945 373.885 487.137 374.031 487.293C374.179 487.448 374.402 487.562 374.699 487.636L375.381 487.807C375.701 487.886 375.943 488.021 376.108 488.21C376.275 488.4 376.358 488.629 376.358 488.898C376.358 489.134 376.295 489.343 376.17 489.523C376.047 489.703 375.877 489.843 375.659 489.943C375.441 490.042 375.189 490.091 374.903 490.091C374.515 490.091 374.198 489.996 373.952 489.807C373.705 489.617 373.545 489.348 373.472 489L373.653 488.955C373.718 489.263 373.855 489.5 374.065 489.665C374.277 489.828 374.557 489.909 374.903 489.909C375.282 489.909 375.589 489.816 375.824 489.631C376.059 489.445 376.176 489.201 376.176 488.898C376.176 488.672 376.106 488.482 375.966 488.327C375.826 488.171 375.616 488.059 375.335 487.989L374.653 487.818C374.318 487.735 374.063 487.598 373.889 487.409C373.717 487.22 373.631 486.989 373.631 486.716C373.631 486.487 373.688 486.287 373.801 486.116C373.917 485.944 374.076 485.81 374.278 485.713C374.483 485.616 374.718 485.568 374.983 485.568C375.32 485.568 375.601 485.652 375.827 485.818C376.052 485.983 376.218 486.229 376.324 486.557ZM379.019 485.636V485.818H377.292V485.636H379.019ZM377.928 484.591H378.11V489.08C378.11 489.25 378.148 489.397 378.224 489.52C378.299 489.641 378.4 489.735 378.525 489.801C378.65 489.866 378.784 489.898 378.928 489.898C378.983 489.898 379.033 489.893 379.079 489.884C379.126 489.874 379.174 489.86 379.224 489.841L379.281 490.011C379.224 490.032 379.168 490.048 379.113 490.06C379.058 490.073 378.996 490.08 378.928 490.08C378.75 490.08 378.585 490.039 378.431 489.957C378.28 489.876 378.157 489.76 378.065 489.611C377.974 489.461 377.928 489.284 377.928 489.08V484.591ZM382.026 490.091C381.646 490.091 381.312 489.991 381.026 489.793C380.742 489.594 380.522 489.324 380.364 488.983C380.207 488.642 380.129 488.258 380.129 487.83C380.129 487.402 380.207 487.017 380.364 486.676C380.523 486.335 380.739 486.065 381.012 485.866C381.285 485.668 381.593 485.568 381.935 485.568C382.189 485.568 382.424 485.622 382.64 485.73C382.858 485.838 383.047 485.988 383.208 486.179C383.369 486.37 383.494 486.591 383.583 486.841C383.674 487.089 383.719 487.354 383.719 487.636V487.818H380.219V487.636H383.538C383.538 487.286 383.466 486.969 383.322 486.685C383.178 486.399 382.985 486.171 382.742 486.003C382.5 485.834 382.231 485.75 381.935 485.75C381.636 485.75 381.365 485.839 381.123 486.017C380.88 486.195 380.686 486.437 380.54 486.744C380.395 487.051 380.318 487.398 380.31 487.784V487.807C380.31 488.187 380.377 488.538 380.509 488.858C380.644 489.176 380.839 489.431 381.094 489.622C381.35 489.813 381.661 489.909 382.026 489.909C382.295 489.909 382.521 489.862 382.702 489.767C382.886 489.672 383.033 489.563 383.143 489.44C383.254 489.317 383.337 489.212 383.39 489.125L383.538 489.227C383.473 489.337 383.377 489.459 383.248 489.594C383.119 489.728 382.954 489.845 382.754 489.943C382.553 490.042 382.31 490.091 382.026 490.091ZM385.007 490V485.636H385.189V486.33H385.212C385.314 486.102 385.482 485.92 385.714 485.784C385.949 485.648 386.217 485.58 386.518 485.58C386.541 485.58 386.556 485.58 386.564 485.58C386.571 485.58 386.587 485.58 386.609 485.58V485.761C386.587 485.761 386.571 485.761 386.564 485.761C386.556 485.761 386.541 485.761 386.518 485.761C386.261 485.761 386.032 485.817 385.831 485.929C385.632 486.041 385.475 486.195 385.359 486.392C385.246 486.589 385.189 486.814 385.189 487.068V490H385.007Z" fill="black"/>
</g>
<rect x="101.5" y="207.5" width="699" height="449" stroke="black"/>
<g clip-path="url(#clip1_262_2)">
<rect x="898" y="206" width="700" height="450" fill="white"/>
<line x1="898.27" y1="205.579" x2="1598.27" y2="655.579" stroke="black"/>
<line x1="897.73" y1="655.579" x2="1597.73" y2="205.579" stroke="black"/>
<rect x="1081.25" y="327.25" width="335.5" height="210.5" rx="4.75" fill="white" stroke="black" stroke-width="0.5"/>
<rect x="1083" y="328" width="172" height="210" fill="#DBDBDB"/>
<line x1="1083.39" y1="327.683" x2="1255.39" y2="537.683" stroke="black"/>
<line x1="1255.39" y1="328.317" x2="1083.39" y2="538.317" stroke="black"/>
<rect x="1297.12" y="485.304" width="89.75" height="14.7699" rx="4.875" fill="white" stroke="black" stroke-width="0.25"/>
<path d="M1326.64 494V488.182H1328.71C1329.16 488.182 1329.54 488.259 1329.84 488.415C1330.13 488.57 1330.36 488.785 1330.51 489.06C1330.65 489.332 1330.73 489.648 1330.73 490.006C1330.73 490.362 1330.65 490.675 1330.5 490.946C1330.36 491.215 1330.13 491.424 1329.83 491.574C1329.54 491.723 1329.16 491.798 1328.71 491.798H1327.14V491.043H1328.63C1328.91 491.043 1329.15 491.002 1329.32 490.92C1329.5 490.839 1329.64 490.721 1329.72 490.565C1329.8 490.41 1329.84 490.223 1329.84 490.006C1329.84 489.786 1329.8 489.596 1329.72 489.435C1329.63 489.274 1329.5 489.151 1329.32 489.065C1329.14 488.978 1328.91 488.935 1328.62 488.935H1327.52V494H1326.64ZM1329.51 491.375L1330.95 494H1329.95L1328.54 491.375H1329.51ZM1333.55 494.088C1333.12 494.088 1332.75 493.996 1332.44 493.812C1332.13 493.627 1331.9 493.366 1331.73 493.031C1331.56 492.694 1331.48 492.299 1331.48 491.847C1331.48 491.4 1331.56 491.006 1331.73 490.665C1331.9 490.324 1332.13 490.058 1332.43 489.866C1332.73 489.675 1333.09 489.58 1333.49 489.58C1333.74 489.58 1333.98 489.62 1334.21 489.702C1334.44 489.783 1334.65 489.911 1334.83 490.085C1335.02 490.259 1335.16 490.486 1335.27 490.764C1335.37 491.041 1335.43 491.377 1335.43 491.773V492.074H1331.96V491.438H1334.59C1334.59 491.214 1334.55 491.016 1334.46 490.844C1334.37 490.67 1334.24 490.532 1334.07 490.432C1333.91 490.331 1333.72 490.281 1333.5 490.281C1333.26 490.281 1333.05 490.34 1332.87 490.457C1332.7 490.573 1332.56 490.724 1332.47 490.912C1332.37 491.098 1332.32 491.299 1332.32 491.517V492.014C1332.32 492.306 1332.37 492.554 1332.48 492.759C1332.58 492.963 1332.73 493.119 1332.91 493.227C1333.1 493.333 1333.31 493.386 1333.56 493.386C1333.72 493.386 1333.87 493.364 1334 493.318C1334.13 493.271 1334.25 493.201 1334.35 493.108C1334.44 493.015 1334.52 492.901 1334.57 492.764L1335.37 492.909C1335.31 493.146 1335.19 493.353 1335.02 493.531C1334.86 493.707 1334.65 493.845 1334.4 493.943C1334.15 494.04 1333.87 494.088 1333.55 494.088ZM1338.2 495.727C1337.85 495.727 1337.55 495.682 1337.3 495.591C1337.05 495.5 1336.85 495.38 1336.69 495.23C1336.54 495.08 1336.42 494.917 1336.34 494.739L1337.07 494.438C1337.12 494.521 1337.19 494.609 1337.28 494.702C1337.36 494.796 1337.48 494.877 1337.63 494.943C1337.78 495.009 1337.97 495.043 1338.21 495.043C1338.53 495.043 1338.79 494.964 1339 494.807C1339.21 494.652 1339.32 494.403 1339.32 494.062V493.205H1339.27C1339.21 493.297 1339.14 493.401 1339.04 493.514C1338.95 493.628 1338.82 493.726 1338.65 493.81C1338.49 493.893 1338.27 493.935 1338 493.935C1337.66 493.935 1337.35 493.854 1337.07 493.693C1336.79 493.53 1336.58 493.291 1336.42 492.974C1336.26 492.656 1336.18 492.265 1336.18 491.801C1336.18 491.337 1336.26 490.939 1336.41 490.608C1336.57 490.277 1336.79 490.023 1337.07 489.847C1337.34 489.669 1337.66 489.58 1338.01 489.58C1338.28 489.58 1338.5 489.625 1338.66 489.716C1338.83 489.805 1338.96 489.909 1339.05 490.028C1339.15 490.148 1339.22 490.253 1339.27 490.344H1339.33V489.636H1340.17V494.097C1340.17 494.472 1340.08 494.779 1339.9 495.02C1339.73 495.26 1339.49 495.438 1339.2 495.554C1338.9 495.67 1338.57 495.727 1338.2 495.727ZM1338.19 493.23C1338.43 493.23 1338.64 493.173 1338.81 493.06C1338.98 492.944 1339.11 492.779 1339.19 492.565C1339.28 492.349 1339.33 492.091 1339.33 491.79C1339.33 491.496 1339.28 491.238 1339.2 491.014C1339.11 490.791 1338.98 490.616 1338.81 490.491C1338.65 490.365 1338.44 490.301 1338.19 490.301C1337.93 490.301 1337.72 490.367 1337.55 490.5C1337.38 490.631 1337.25 490.809 1337.16 491.034C1337.08 491.259 1337.04 491.511 1337.04 491.79C1337.04 492.076 1337.08 492.327 1337.17 492.543C1337.25 492.759 1337.38 492.927 1337.55 493.048C1337.72 493.17 1337.94 493.23 1338.19 493.23ZM1341.31 494V489.636H1342.15V494H1341.31ZM1341.73 488.963C1341.59 488.963 1341.46 488.914 1341.35 488.815C1341.25 488.715 1341.2 488.596 1341.2 488.457C1341.2 488.317 1341.25 488.198 1341.35 488.099C1341.46 487.999 1341.59 487.949 1341.73 487.949C1341.88 487.949 1342.01 487.999 1342.11 488.099C1342.22 488.198 1342.27 488.317 1342.27 488.457C1342.27 488.596 1342.22 488.715 1342.11 488.815C1342.01 488.914 1341.88 488.963 1341.73 488.963ZM1346.57 490.702L1345.8 490.838C1345.77 490.74 1345.71 490.646 1345.64 490.557C1345.58 490.468 1345.48 490.395 1345.37 490.338C1345.25 490.281 1345.1 490.253 1344.93 490.253C1344.68 490.253 1344.48 490.307 1344.32 490.415C1344.16 490.521 1344.08 490.658 1344.08 490.827C1344.08 490.973 1344.14 491.09 1344.24 491.179C1344.35 491.268 1344.53 491.341 1344.77 491.398L1345.46 491.557C1345.86 491.65 1346.16 491.793 1346.36 491.986C1346.55 492.179 1346.65 492.43 1346.65 492.739C1346.65 493 1346.58 493.233 1346.43 493.438C1346.28 493.64 1346.07 493.799 1345.8 493.915C1345.53 494.03 1345.22 494.088 1344.87 494.088C1344.38 494.088 1343.98 493.984 1343.67 493.776C1343.36 493.565 1343.17 493.267 1343.1 492.881L1343.93 492.756C1343.98 492.97 1344.08 493.132 1344.24 493.241C1344.4 493.349 1344.61 493.403 1344.86 493.403C1345.14 493.403 1345.36 493.346 1345.53 493.23C1345.7 493.113 1345.78 492.97 1345.78 492.801C1345.78 492.665 1345.73 492.55 1345.63 492.457C1345.53 492.365 1345.37 492.295 1345.16 492.247L1344.43 492.085C1344.02 491.992 1343.72 491.845 1343.52 491.642C1343.33 491.439 1343.23 491.183 1343.23 490.872C1343.23 490.615 1343.3 490.389 1343.45 490.196C1343.59 490.003 1343.79 489.852 1344.04 489.744C1344.3 489.634 1344.59 489.58 1344.92 489.58C1345.39 489.58 1345.76 489.682 1346.03 489.886C1346.3 490.089 1346.48 490.361 1346.57 490.702ZM1349.62 489.636V490.318H1347.24V489.636H1349.62ZM1347.88 488.591H1348.73V492.719C1348.73 492.884 1348.75 493.008 1348.8 493.091C1348.85 493.172 1348.92 493.228 1348.99 493.259C1349.07 493.287 1349.16 493.301 1349.25 493.301C1349.32 493.301 1349.38 493.296 1349.43 493.287C1349.48 493.277 1349.52 493.27 1349.55 493.264L1349.7 493.966C1349.65 493.985 1349.58 494.004 1349.49 494.023C1349.4 494.044 1349.29 494.055 1349.15 494.057C1348.93 494.061 1348.72 494.021 1348.53 493.938C1348.33 493.854 1348.18 493.725 1348.06 493.551C1347.94 493.377 1347.88 493.158 1347.88 492.895V488.591ZM1352.4 494.088C1351.97 494.088 1351.6 493.996 1351.29 493.812C1350.98 493.627 1350.74 493.366 1350.57 493.031C1350.4 492.694 1350.32 492.299 1350.32 491.847C1350.32 491.4 1350.4 491.006 1350.57 490.665C1350.74 490.324 1350.97 490.058 1351.27 489.866C1351.58 489.675 1351.93 489.58 1352.34 489.58C1352.58 489.58 1352.82 489.62 1353.05 489.702C1353.28 489.783 1353.49 489.911 1353.68 490.085C1353.86 490.259 1354 490.486 1354.11 490.764C1354.22 491.041 1354.27 491.377 1354.27 491.773V492.074H1350.8V491.438H1353.44C1353.44 491.214 1353.39 491.016 1353.3 490.844C1353.21 490.67 1353.08 490.532 1352.92 490.432C1352.75 490.331 1352.56 490.281 1352.34 490.281C1352.1 490.281 1351.9 490.34 1351.72 490.457C1351.54 490.573 1351.41 490.724 1351.31 490.912C1351.21 491.098 1351.17 491.299 1351.17 491.517V492.014C1351.17 492.306 1351.22 492.554 1351.32 492.759C1351.42 492.963 1351.57 493.119 1351.75 493.227C1351.94 493.333 1352.16 493.386 1352.41 493.386C1352.57 493.386 1352.71 493.364 1352.85 493.318C1352.98 493.271 1353.09 493.201 1353.19 493.108C1353.29 493.015 1353.36 492.901 1353.41 492.764L1354.22 492.909C1354.15 493.146 1354.04 493.353 1353.87 493.531C1353.7 493.707 1353.5 493.845 1353.25 493.943C1353 494.04 1352.72 494.088 1352.4 494.088ZM1355.21 494V489.636H1356.03V490.33H1356.08C1356.16 490.095 1356.3 489.91 1356.5 489.776C1356.7 489.639 1356.93 489.571 1357.19 489.571C1357.24 489.571 1357.3 489.573 1357.37 489.577C1357.45 489.58 1357.51 489.585 1357.55 489.591V490.403C1357.51 490.394 1357.45 490.384 1357.37 490.372C1357.28 490.359 1357.19 490.352 1357.1 490.352C1356.9 490.352 1356.72 490.395 1356.57 490.48C1356.41 490.563 1356.29 490.68 1356.2 490.83C1356.11 490.977 1356.06 491.146 1356.06 491.335V494H1355.21Z" fill="black"/>
<mask id="path-28-inside-3_262_2" fill="white">
<path d="M1284 370C1284 367.239 1286.24 365 1289 365H1379C1381.76 365 1384 367.239 1384 370C1384 372.761 1381.76 375 1379 375H1289C1286.24 375 1284 372.761 1284 370Z"/>
</mask>
<path d="M1284 365H1384H1284ZM1384 370C1384 372.899 1381.65 375.25 1378.75 375.25H1289.25C1286.35 375.25 1284 372.899 1284 370C1284 372.623 1286.24 374.75 1289 374.75H1379C1381.76 374.75 1384 372.623 1384 370ZM1284 375V365V375ZM1384 365V375V365Z" fill="black" mask="url(#path-28-inside-3_262_2)"/>
<path d="M1289.83 357.688C1289.58 358.68 1289.22 358.736 1288.32 358.736C1287.98 358.736 1287.75 358.728 1287.62 358.696V356.12H1288.16C1288.78 356.12 1289.1 356.152 1289.22 356.768H1289.3C1289.29 356.536 1289.27 356.32 1289.27 355.992C1289.27 355.672 1289.29 355.456 1289.3 355.216H1289.22C1289.08 355.784 1288.86 355.864 1288.16 355.864H1287.62V353.496C1287.72 353.472 1287.86 353.456 1288.34 353.456C1289.25 353.456 1289.58 353.512 1289.77 354.408H1289.85C1289.86 354.16 1289.87 353.872 1289.87 353.6C1289.87 353.336 1289.86 353.176 1289.86 353.176C1289.38 353.192 1288.42 353.192 1287.32 353.192C1286.89 353.192 1286.51 353.184 1286.34 353.176V353.256C1286.74 353.328 1286.78 353.416 1286.78 354.368V357.832C1286.78 358.712 1286.77 358.864 1286.35 358.936V359.016C1286.5 359.008 1286.9 359 1287.23 359H1288.01C1288.78 359 1289.28 359.008 1289.87 359.024C1289.87 358.576 1289.9 358.296 1289.91 357.688H1289.83ZM1296.65 358.936C1296.41 358.888 1296.31 358.848 1296.31 358.208V356.528C1296.31 355.408 1295.68 355.16 1295.11 355.16C1294.72 355.16 1294.24 355.272 1293.74 355.648C1293.51 355.264 1293.12 355.16 1292.74 355.16C1292.35 355.16 1291.95 355.264 1291.55 355.552V355.16C1291.28 355.288 1290.91 355.368 1290.55 355.376V355.456C1290.79 355.52 1290.8 355.64 1290.8 356.032V358.208C1290.8 358.848 1290.7 358.888 1290.46 358.936V359.016C1290.63 359.008 1290.88 359 1291.18 359C1291.47 359 1291.72 359.008 1291.9 359.016V358.936C1291.66 358.888 1291.55 358.848 1291.55 358.208V355.752C1291.82 355.536 1292.11 355.416 1292.43 355.416C1292.87 355.416 1293.17 355.64 1293.17 356.528V358.208C1293.17 358.848 1293.07 358.888 1292.83 358.936V359.016C1293 359.008 1293.25 359 1293.55 359C1293.84 359 1294.09 359.008 1294.27 359.016V358.936C1294.03 358.888 1293.92 358.848 1293.92 358.208V356.504C1293.92 356.208 1293.88 355.976 1293.8 355.792C1294.15 355.536 1294.47 355.416 1294.79 355.416C1295.24 355.416 1295.55 355.664 1295.55 356.544V358.208C1295.55 358.848 1295.45 358.888 1295.21 358.936V359.016C1295.39 359.008 1295.63 359 1295.93 359C1296.23 359 1296.47 359.008 1296.65 359.016V358.936ZM1300.37 358.6C1300.29 358.664 1300.24 358.68 1300.17 358.68C1300.01 358.68 1299.96 358.576 1299.96 358.224V356.544C1299.96 355.512 1299.45 355.16 1298.68 355.16C1297.92 355.16 1297.28 355.496 1297.15 356.352H1297.84C1297.84 355.664 1298.14 355.344 1298.6 355.344C1299 355.344 1299.2 355.6 1299.2 356.216V357.368C1298.98 357.232 1298.67 357.16 1298.36 357.16C1297.6 357.16 1297 357.576 1297 358.184C1297 358.712 1297.44 359.08 1298.09 359.08C1298.52 359.08 1298.91 358.92 1299.24 358.64C1299.27 358.944 1299.45 359.056 1299.71 359.056C1300.01 359.056 1300.27 358.904 1300.41 358.672L1300.37 358.6ZM1298.47 358.792C1298.06 358.792 1297.81 358.528 1297.81 358.096C1297.81 357.656 1298.08 357.36 1298.56 357.36C1298.8 357.36 1299.04 357.424 1299.2 357.544V358.48C1298.95 358.712 1298.69 358.792 1298.47 358.792ZM1301.88 354.336C1301.88 354.096 1301.71 353.928 1301.48 353.928C1301.26 353.928 1301.09 354.096 1301.09 354.336C1301.09 354.544 1301.26 354.712 1301.48 354.712C1301.71 354.712 1301.88 354.544 1301.88 354.336ZM1302.17 358.936C1301.93 358.888 1301.83 358.848 1301.83 358.208V355.184C1301.56 355.312 1301.18 355.384 1300.83 355.392V355.472C1301.07 355.536 1301.08 355.664 1301.08 356.048V358.208C1301.08 358.848 1300.97 358.888 1300.73 358.936V359.016C1300.91 359.008 1301.16 359 1301.45 359C1301.75 359 1302 359.008 1302.17 359.016V358.936ZM1304.06 358.936C1303.82 358.888 1303.71 358.848 1303.71 358.208V352.904C1303.43 353.032 1303.06 353.112 1302.71 353.12V353.2C1302.95 353.264 1302.96 353.384 1302.96 353.776V358.208C1302.96 358.848 1302.86 358.888 1302.62 358.936V359.016C1302.79 359.008 1303.04 359 1303.34 359C1303.63 359 1303.88 359.008 1304.06 359.016V358.936Z" fill="black"/>
<mask id="path-31-inside-4_262_2" fill="white">
<path d="M1284 402C1284 399.239 1286.24 397 1289 397H1379C1381.76 397 1384 399.239 1384 402C1384 404.761 1381.76 407 1379 407H1289C1286.24 407 1284 404.761 1284 402Z"/>
</mask>
<path d="M1284 397H1384H1284ZM1384 402C1384 404.899 1381.65 407.25 1378.75 407.25H1289.25C1286.35 407.25 1284 404.899 1284 402C1284 404.623 1286.24 406.75 1289 406.75H1379C1381.76 406.75 1384 404.623 1384 402ZM1284 407V397V407ZM1384 397V407V397Z" fill="black" mask="url(#path-31-inside-4_262_2)"/>
<path d="M1290.51 388.808C1290.51 390.168 1290.06 390.824 1288.91 390.824C1287.91 390.824 1287.52 390.328 1287.52 388.816V386.424C1287.52 385.432 1287.55 385.312 1287.94 385.256V385.176C1287.78 385.184 1287.38 385.192 1287.1 385.192C1286.81 385.192 1286.46 385.184 1286.29 385.176V385.256C1286.66 385.32 1286.69 385.432 1286.69 386.432V388.88C1286.69 390.48 1287.46 391.104 1288.8 391.104C1290 391.104 1290.8 390.6 1290.8 388.816V387.256C1290.8 385.496 1290.8 385.408 1291.3 385.264V385.184C1291.13 385.192 1290.92 385.2 1290.64 385.2C1290.35 385.2 1290.09 385.192 1289.91 385.184V385.264C1290.46 385.416 1290.51 385.488 1290.51 387.192V388.808ZM1293.87 388.16C1293.86 387.904 1293.85 387.704 1293.85 387.568C1293.85 387.432 1293.86 387.352 1293.87 387.272C1293.53 387.24 1293.21 387.16 1292.88 387.16C1292.17 387.16 1291.6 387.536 1291.6 388.232C1291.6 389.44 1293.33 389.176 1293.33 390.248C1293.33 390.664 1293.07 390.904 1292.66 390.904C1292.04 390.904 1291.77 390.36 1291.79 389.784H1291.71C1291.64 390.104 1291.67 390.632 1291.62 390.896C1292.08 390.976 1292.39 391.064 1292.71 391.064C1293.4 391.064 1294.03 390.664 1294.03 389.904C1294.03 388.624 1292.25 388.84 1292.25 387.912C1292.25 387.576 1292.48 387.32 1292.89 387.32C1293.35 387.32 1293.67 387.656 1293.79 388.16H1293.87ZM1297.82 390.248C1297.47 390.576 1297.15 390.688 1296.81 390.688C1295.95 390.688 1295.34 389.992 1295.34 388.864C1295.34 388.736 1295.35 388.664 1295.35 388.664H1297.86C1297.86 387.64 1297.1 387.16 1296.34 387.16C1295.36 387.16 1294.53 387.96 1294.53 389.112C1294.53 390.232 1295.3 391.08 1296.42 391.08C1297.06 391.08 1297.52 390.808 1297.87 390.32L1297.82 390.248ZM1295.38 388.456C1295.47 387.824 1295.81 387.32 1296.31 387.32C1296.74 387.32 1297.02 387.696 1297.04 388.456H1295.38ZM1299.75 390.936C1299.51 390.888 1299.41 390.848 1299.41 390.208V387.896C1299.6 387.68 1299.75 387.616 1299.89 387.616C1300.09 387.616 1300.21 387.728 1300.21 388.056H1300.95C1300.95 387.432 1300.73 387.16 1300.33 387.16C1299.96 387.16 1299.69 387.4 1299.41 387.672V387.16C1299.13 387.288 1298.76 387.368 1298.41 387.376V387.456C1298.65 387.52 1298.65 387.64 1298.65 388.032V390.208C1298.65 390.848 1298.55 390.888 1298.31 390.936V391.016C1298.49 391.008 1298.73 391 1299.03 391C1299.33 391 1299.57 391.008 1299.75 391.016V390.936ZM1305.14 390.936C1304.9 390.888 1304.8 390.848 1304.8 390.208V388.464C1304.8 387.328 1304.08 387.16 1303.54 387.16C1303.14 387.16 1302.74 387.256 1302.34 387.552V387.16C1302.07 387.288 1301.7 387.368 1301.34 387.376V387.456C1301.58 387.52 1301.59 387.64 1301.59 388.032V390.208C1301.59 390.848 1301.49 390.888 1301.25 390.936V391.016C1301.42 391.008 1301.67 391 1301.97 391C1302.26 391 1302.51 391.008 1302.69 391.016V390.936C1302.45 390.888 1302.34 390.848 1302.34 390.208V387.76C1302.57 387.568 1302.86 387.416 1303.22 387.416C1303.68 387.416 1304.05 387.656 1304.05 388.488V390.208C1304.05 390.848 1303.94 390.888 1303.7 390.936V391.016C1303.88 391.008 1304.13 391 1304.42 391C1304.72 391 1304.97 391.008 1305.14 391.016V390.936ZM1308.86 390.6C1308.78 390.664 1308.73 390.68 1308.66 390.68C1308.5 390.68 1308.45 390.576 1308.45 390.224V388.544C1308.45 387.512 1307.94 387.16 1307.17 387.16C1306.41 387.16 1305.77 387.496 1305.64 388.352H1306.33C1306.34 387.664 1306.63 387.344 1307.09 387.344C1307.5 387.344 1307.7 387.6 1307.7 388.216V389.368C1307.47 389.232 1307.16 389.16 1306.85 389.16C1306.09 389.16 1305.49 389.576 1305.49 390.184C1305.49 390.712 1305.94 391.08 1306.58 391.08C1307.01 391.08 1307.4 390.92 1307.73 390.64C1307.76 390.944 1307.94 391.056 1308.2 391.056C1308.5 391.056 1308.76 390.904 1308.9 390.672L1308.86 390.6ZM1306.96 390.792C1306.55 390.792 1306.3 390.528 1306.3 390.096C1306.3 389.656 1306.57 389.36 1307.06 389.36C1307.29 389.36 1307.54 389.424 1307.7 389.544V390.48C1307.44 390.712 1307.18 390.792 1306.96 390.792ZM1315.42 390.936C1315.18 390.888 1315.07 390.848 1315.07 390.208V388.528C1315.07 387.408 1314.45 387.16 1313.87 387.16C1313.49 387.16 1313.01 387.272 1312.5 387.648C1312.28 387.264 1311.89 387.16 1311.5 387.16C1311.12 387.16 1310.71 387.264 1310.32 387.552V387.16C1310.05 387.288 1309.67 387.368 1309.32 387.376V387.456C1309.56 387.52 1309.57 387.64 1309.57 388.032V390.208C1309.57 390.848 1309.46 390.888 1309.22 390.936V391.016C1309.4 391.008 1309.65 391 1309.94 391C1310.24 391 1310.49 391.008 1310.66 391.016V390.936C1310.42 390.888 1310.32 390.848 1310.32 390.208V387.752C1310.58 387.536 1310.87 387.416 1311.19 387.416C1311.63 387.416 1311.94 387.64 1311.94 388.528V390.208C1311.94 390.848 1311.83 390.888 1311.59 390.936V391.016C1311.77 391.008 1312.02 391 1312.31 391C1312.61 391 1312.86 391.008 1313.03 391.016V390.936C1312.79 390.888 1312.69 390.848 1312.69 390.208V388.504C1312.69 388.208 1312.65 387.976 1312.57 387.792C1312.91 387.536 1313.24 387.416 1313.55 387.416C1314.01 387.416 1314.32 387.664 1314.32 388.544V390.208C1314.32 390.848 1314.22 390.888 1313.98 390.936V391.016C1314.15 391.008 1314.4 391 1314.7 391C1314.99 391 1315.24 391.008 1315.42 391.016V390.936ZM1319.09 390.248C1318.75 390.576 1318.43 390.688 1318.08 390.688C1317.23 390.688 1316.62 389.992 1316.62 388.864C1316.62 388.736 1316.63 388.664 1316.63 388.664H1319.13C1319.13 387.64 1318.38 387.16 1317.62 387.16C1316.63 387.16 1315.8 387.96 1315.8 389.112C1315.8 390.232 1316.58 391.08 1317.7 391.08C1318.34 391.08 1318.79 390.808 1319.15 390.32L1319.09 390.248ZM1316.65 388.456C1316.75 387.824 1317.08 387.32 1317.59 387.32C1318.02 387.32 1318.3 387.696 1318.31 388.456H1316.65Z" fill="black"/>
<mask id="path-34-inside-5_262_2" fill="white">
<path d="M1284 434C1284 431.239 1286.24 429 1289 429H1379C1381.76 429 1384 431.239 1384 434C1384 436.761 1381.76 439 1379 439H1289C1286.24 439 1284 436.761 1284 434Z"/>
</mask>
<path d="M1284 429H1384H1284ZM1384 434C1384 436.899 1381.65 439.25 1378.75 439.25H1289.25C1286.35 439.25 1284 436.899 1284 434C1284 436.623 1286.24 438.75 1289 438.75H1379C1381.76 438.75 1384 436.623 1384 434ZM1284 439V429V439ZM1384 429V439V429Z" fill="black" mask="url(#path-34-inside-5_262_2)"/>
<path d="M1288.01 422.936C1287.68 422.88 1287.61 422.776 1287.61 422.008V417.464C1287.74 417.416 1287.91 417.392 1288.08 417.392C1288.84 417.392 1289.26 417.928 1289.26 418.848C1289.26 419.608 1288.98 420.176 1288.3 420.176C1288.17 420.176 1287.97 420.152 1287.82 420.072L1287.77 420.152C1287.95 420.28 1288.2 420.336 1288.5 420.336C1289.54 420.336 1290.17 419.608 1290.17 418.76C1290.17 417.896 1289.53 417.176 1288.1 417.176C1287.9 417.176 1287.56 417.192 1287.16 417.192C1286.88 417.192 1286.54 417.184 1286.36 417.176V417.256C1286.7 417.312 1286.78 417.416 1286.78 418.184V422.008C1286.78 422.776 1286.71 422.88 1286.38 422.936V423.016C1286.55 423.008 1286.9 423 1287.19 423C1287.48 423 1287.84 423.008 1288.01 423.016V422.936ZM1293.57 422.6C1293.49 422.664 1293.43 422.68 1293.37 422.68C1293.21 422.68 1293.15 422.576 1293.15 422.224V420.544C1293.15 419.512 1292.65 419.16 1291.87 419.16C1291.11 419.16 1290.47 419.496 1290.34 420.352H1291.03C1291.04 419.664 1291.34 419.344 1291.79 419.344C1292.2 419.344 1292.4 419.6 1292.4 420.216V421.368C1292.18 421.232 1291.86 421.16 1291.55 421.16C1290.79 421.16 1290.19 421.576 1290.19 422.184C1290.19 422.712 1290.64 423.08 1291.29 423.08C1291.71 423.08 1292.1 422.92 1292.43 422.64C1292.46 422.944 1292.65 423.056 1292.9 423.056C1293.21 423.056 1293.46 422.904 1293.61 422.672L1293.57 422.6ZM1291.66 422.792C1291.26 422.792 1291.01 422.528 1291.01 422.096C1291.01 421.656 1291.27 421.36 1291.76 421.36C1291.99 421.36 1292.24 421.424 1292.4 421.544V422.48C1292.14 422.712 1291.89 422.792 1291.66 422.792ZM1296.27 420.16C1296.26 419.904 1296.26 419.704 1296.26 419.568C1296.26 419.432 1296.26 419.352 1296.28 419.272C1295.94 419.24 1295.62 419.16 1295.29 419.16C1294.58 419.16 1294.01 419.536 1294.01 420.232C1294.01 421.44 1295.74 421.176 1295.74 422.248C1295.74 422.664 1295.47 422.904 1295.06 422.904C1294.45 422.904 1294.18 422.36 1294.2 421.784H1294.12C1294.05 422.104 1294.07 422.632 1294.02 422.896C1294.49 422.976 1294.79 423.064 1295.12 423.064C1295.81 423.064 1296.44 422.664 1296.44 421.904C1296.44 420.624 1294.66 420.84 1294.66 419.912C1294.66 419.576 1294.89 419.32 1295.3 419.32C1295.76 419.32 1296.07 419.656 1296.19 420.16H1296.27ZM1299.28 420.16C1299.27 419.904 1299.26 419.704 1299.26 419.568C1299.26 419.432 1299.27 419.352 1299.29 419.272C1298.94 419.24 1298.62 419.16 1298.3 419.16C1297.58 419.16 1297.02 419.536 1297.02 420.232C1297.02 421.44 1298.74 421.176 1298.74 422.248C1298.74 422.664 1298.48 422.904 1298.07 422.904C1297.46 422.904 1297.18 422.36 1297.21 421.784H1297.13C1297.06 422.104 1297.08 422.632 1297.03 422.896C1297.5 422.976 1297.8 423.064 1298.13 423.064C1298.82 423.064 1299.45 422.664 1299.45 421.904C1299.45 420.624 1297.66 420.84 1297.66 419.912C1297.66 419.576 1297.9 419.32 1298.3 419.32C1298.77 419.32 1299.08 419.656 1299.2 420.16H1299.28ZM1303.43 423.128L1304.54 420.352C1304.89 419.488 1305.05 419.32 1305.27 419.272V419.192C1305.15 419.192 1305.01 419.2 1304.7 419.2C1304.39 419.2 1304.19 419.192 1304.09 419.192V419.272C1304.34 419.304 1304.45 419.44 1304.45 419.624C1304.45 419.928 1304.14 420.688 1303.64 421.912L1303.09 420.376C1302.86 419.752 1302.85 419.592 1302.85 419.512C1302.85 419.328 1302.93 419.296 1303.15 419.272V419.192C1303.04 419.192 1302.61 419.2 1302.31 419.2C1302.01 419.2 1301.74 419.192 1301.63 419.192V419.272C1301.85 419.304 1301.95 419.48 1302.21 420.2L1302.27 420.352C1302.12 420.768 1301.9 421.304 1301.65 421.912L1301.1 420.376C1300.88 419.752 1300.86 419.592 1300.86 419.512C1300.86 419.328 1300.95 419.296 1301.17 419.272V419.192C1301.05 419.192 1300.62 419.2 1300.33 419.2C1300.03 419.2 1299.76 419.192 1299.65 419.192V419.272C1299.88 419.312 1299.95 419.456 1300.23 420.2L1301.33 423.128H1301.45L1302.41 420.728L1303.31 423.128H1303.43ZM1309.36 421.112C1309.36 419.968 1308.46 419.16 1307.39 419.16C1306.32 419.16 1305.41 419.952 1305.41 421.136C1305.41 422.304 1306.29 423.048 1307.37 423.048C1308.51 423.048 1309.36 422.232 1309.36 421.112ZM1307.37 422.888C1306.49 422.888 1306.3 422.16 1306.3 421.128C1306.3 420.16 1306.47 419.32 1307.39 419.32C1308.24 419.32 1308.47 420.048 1308.47 421.136C1308.47 422.096 1308.29 422.888 1307.37 422.888ZM1311.25 422.936C1311.01 422.888 1310.91 422.848 1310.91 422.208V419.896C1311.1 419.68 1311.25 419.616 1311.39 419.616C1311.59 419.616 1311.71 419.728 1311.71 420.056H1312.45C1312.45 419.432 1312.23 419.16 1311.83 419.16C1311.46 419.16 1311.19 419.4 1310.91 419.672V419.16C1310.63 419.288 1310.26 419.368 1309.91 419.376V419.456C1310.15 419.52 1310.15 419.64 1310.15 420.032V422.208C1310.15 422.848 1310.05 422.888 1309.81 422.936V423.016C1309.99 423.008 1310.23 423 1310.53 423C1310.83 423 1311.07 423.008 1311.25 423.016V422.936ZM1315.95 423.064C1316.29 423.064 1316.49 422.896 1316.64 422.696L1316.59 422.624C1316.53 422.656 1316.45 422.704 1316.33 422.704C1316.13 422.704 1316.12 422.544 1316.12 421.808V416.904C1315.83 417.048 1315.41 417.112 1315.06 417.12V417.2C1315.35 417.256 1315.37 417.384 1315.37 417.776V419.4C1315.13 419.24 1314.85 419.16 1314.54 419.16C1313.51 419.16 1312.63 420.016 1312.63 421.184C1312.63 422.224 1313.33 423.064 1314.4 423.064C1314.73 423.064 1315.09 422.976 1315.41 422.664C1315.51 423 1315.73 423.064 1315.95 423.064ZM1314.65 422.776C1313.93 422.776 1313.53 422.184 1313.53 421.048C1313.53 419.896 1313.95 419.368 1314.57 419.368C1314.92 419.368 1315.24 419.536 1315.37 419.8V422.256C1315.37 422.328 1315.37 422.392 1315.37 422.448C1315.18 422.728 1314.87 422.776 1314.65 422.776Z" fill="black"/>
<mask id="path-37-inside-6_262_2" fill="white">
<path d="M1284 465C1284 462.239 1286.24 460 1289 460H1379C1381.76 460 1384 462.239 1384 465C1384 467.761 1381.76 470 1379 470H1289C1286.24 470 1284 467.761 1284 465Z"/>
</mask>
<path d="M1284 460H1384H1284ZM1384 465C1384 467.899 1381.65 470.25 1378.75 470.25H1289.25C1286.35 470.25 1284 467.899 1284 465C1284 467.623 1286.24 469.75 1289 469.75H1379C1381.76 469.75 1384 467.623 1384 465ZM1284 470V460V470ZM1384 460V470V460Z" fill="black" mask="url(#path-37-inside-6_262_2)"/>
<path d="M1286.35 454.016C1286.53 454.008 1286.9 454 1287.19 454C1287.69 454 1288.2 454.024 1288.45 454.024C1289.9 454.024 1290.34 453.208 1290.34 452.408C1290.34 451.544 1289.82 450.92 1288.75 450.776C1289.56 450.568 1289.9 450.08 1289.9 449.44C1289.9 448.512 1289.2 448.184 1288.14 448.184C1287.97 448.184 1287.54 448.192 1287.21 448.192C1286.87 448.192 1286.54 448.184 1286.36 448.176V448.256C1286.7 448.312 1286.78 448.416 1286.78 449.184V452.768C1286.78 453.768 1286.74 453.872 1286.35 453.936V454.016ZM1287.62 450.744V448.448C1287.75 448.4 1287.89 448.384 1288.02 448.384C1288.58 448.384 1289.02 448.704 1289.02 449.544C1289.02 450.504 1288.45 450.744 1287.62 450.744ZM1287.86 450.968C1288.97 450.968 1289.44 451.456 1289.44 452.392C1289.44 453.392 1288.9 453.8 1288.18 453.8C1288.02 453.8 1287.79 453.776 1287.62 453.728V450.968H1287.86ZM1291.98 449.336C1291.98 449.096 1291.81 448.928 1291.58 448.928C1291.36 448.928 1291.19 449.096 1291.19 449.336C1291.19 449.544 1291.36 449.712 1291.58 449.712C1291.81 449.712 1291.98 449.544 1291.98 449.336ZM1292.27 453.936C1292.03 453.888 1291.93 453.848 1291.93 453.208V450.184C1291.66 450.312 1291.28 450.384 1290.93 450.392V450.472C1291.17 450.536 1291.18 450.664 1291.18 451.048V453.208C1291.18 453.848 1291.07 453.888 1290.83 453.936V454.016C1291.01 454.008 1291.26 454 1291.55 454C1291.85 454 1292.1 454.008 1292.27 454.016V453.936ZM1294.15 453.936C1293.91 453.888 1293.8 453.848 1293.8 453.208V450.896C1294 450.68 1294.15 450.616 1294.29 450.616C1294.48 450.616 1294.61 450.728 1294.61 451.056H1295.35C1295.35 450.432 1295.12 450.16 1294.72 450.16C1294.36 450.16 1294.09 450.4 1293.8 450.672V450.16C1293.53 450.288 1293.16 450.368 1292.8 450.376V450.456C1293.04 450.52 1293.05 450.64 1293.05 451.032V453.208C1293.05 453.848 1292.95 453.888 1292.71 453.936V454.016C1292.88 454.008 1293.13 454 1293.43 454C1293.72 454 1293.97 454.008 1294.15 454.016V453.936ZM1297.77 453.328C1297.64 453.616 1297.48 453.736 1297.21 453.736C1296.85 453.736 1296.69 453.512 1296.69 452.944V450.544H1297.09C1297.45 450.544 1297.56 450.6 1297.56 450.6C1297.68 450.336 1297.75 450.264 1297.87 450.08L1297.81 450.008C1297.66 450.2 1297.48 450.2 1297.14 450.2H1296.69C1296.69 449.8 1296.74 449.32 1296.78 449.056L1296.66 449.032C1296.51 449.648 1296.15 450.208 1295.55 450.408V450.488C1295.86 450.536 1295.94 450.56 1295.94 450.832V453.032C1295.94 453.84 1296.37 454.064 1296.88 454.064C1297.35 454.064 1297.65 453.864 1297.83 453.376L1297.77 453.328ZM1301.94 453.936C1301.7 453.888 1301.6 453.848 1301.6 453.208V451.464C1301.6 450.328 1300.87 450.16 1300.33 450.16C1299.93 450.16 1299.53 450.256 1299.14 450.552V447.904C1298.86 448.032 1298.48 448.112 1298.14 448.12V448.2C1298.38 448.264 1298.39 448.384 1298.39 448.776V453.208C1298.39 453.848 1298.28 453.888 1298.04 453.936V454.016C1298.22 454.008 1298.47 454 1298.76 454C1299.06 454 1299.31 454.008 1299.48 454.016V453.936C1299.24 453.888 1299.14 453.848 1299.14 453.208V450.76C1299.36 450.568 1299.66 450.416 1300.02 450.416C1300.48 450.416 1300.84 450.656 1300.84 451.488V453.208C1300.84 453.848 1300.74 453.888 1300.5 453.936V454.016C1300.68 454.008 1300.92 454 1301.22 454C1301.52 454 1301.76 454.008 1301.94 454.016V453.936ZM1307.64 454.064C1307.98 454.064 1308.18 453.896 1308.33 453.696L1308.28 453.624C1308.22 453.656 1308.13 453.704 1308.02 453.704C1307.82 453.704 1307.81 453.544 1307.81 452.808V447.904C1307.52 448.048 1307.1 448.112 1306.75 448.12V448.2C1307.04 448.256 1307.05 448.384 1307.05 448.776V450.4C1306.81 450.24 1306.54 450.16 1306.23 450.16C1305.2 450.16 1304.32 451.016 1304.32 452.184C1304.32 453.224 1305.02 454.064 1306.09 454.064C1306.42 454.064 1306.78 453.976 1307.1 453.664C1307.2 454 1307.41 454.064 1307.64 454.064ZM1306.34 453.776C1305.62 453.776 1305.21 453.184 1305.21 452.048C1305.21 450.896 1305.64 450.368 1306.25 450.368C1306.61 450.368 1306.93 450.536 1307.05 450.8V453.256C1307.05 453.328 1307.05 453.392 1307.06 453.448C1306.87 453.728 1306.56 453.776 1306.34 453.776ZM1311.97 453.6C1311.89 453.664 1311.83 453.68 1311.77 453.68C1311.61 453.68 1311.55 453.576 1311.55 453.224V451.544C1311.55 450.512 1311.05 450.16 1310.27 450.16C1309.51 450.16 1308.87 450.496 1308.74 451.352H1309.43C1309.44 450.664 1309.73 450.344 1310.19 450.344C1310.6 450.344 1310.8 450.6 1310.8 451.216V452.368C1310.57 452.232 1310.26 452.16 1309.95 452.16C1309.19 452.16 1308.59 452.576 1308.59 453.184C1308.59 453.712 1309.04 454.08 1309.69 454.08C1310.11 454.08 1310.5 453.92 1310.83 453.64C1310.86 453.944 1311.05 454.056 1311.3 454.056C1311.61 454.056 1311.86 453.904 1312.01 453.672L1311.97 453.6ZM1310.06 453.792C1309.65 453.792 1309.41 453.528 1309.41 453.096C1309.41 452.656 1309.67 452.36 1310.16 452.36C1310.39 452.36 1310.64 452.424 1310.8 452.544V453.48C1310.54 453.712 1310.29 453.792 1310.06 453.792ZM1314.41 453.328C1314.29 453.616 1314.13 453.736 1313.86 453.736C1313.49 453.736 1313.34 453.512 1313.34 452.944V450.544H1313.74C1314.09 450.544 1314.21 450.6 1314.21 450.6C1314.33 450.336 1314.4 450.264 1314.52 450.08L1314.45 450.008C1314.31 450.2 1314.13 450.2 1313.79 450.2H1313.34C1313.34 449.8 1313.39 449.32 1313.43 449.056L1313.31 449.032C1313.16 449.648 1312.8 450.208 1312.2 450.408V450.488C1312.51 450.536 1312.59 450.56 1312.59 450.832V453.032C1312.59 453.84 1313.02 454.064 1313.53 454.064C1314 454.064 1314.3 453.864 1314.48 453.376L1314.41 453.328ZM1317.99 453.248C1317.64 453.576 1317.32 453.688 1316.98 453.688C1316.12 453.688 1315.52 452.992 1315.52 451.864C1315.52 451.736 1315.52 451.664 1315.52 451.664H1318.03C1318.03 450.64 1317.28 450.16 1316.52 450.16C1315.53 450.16 1314.7 450.96 1314.7 452.112C1314.7 453.232 1315.48 454.08 1316.6 454.08C1317.24 454.08 1317.69 453.808 1318.04 453.32L1317.99 453.248ZM1315.55 451.456C1315.64 450.824 1315.98 450.32 1316.48 450.32C1316.92 450.32 1317.2 450.696 1317.21 451.456H1315.55Z" fill="black"/>
<path d="M1287.36 514L1286.16 509.636H1286.43L1287.5 513.589H1287.52L1288.57 509.636H1288.9L1289.94 513.589H1289.97L1291.03 509.636H1291.31L1290.11 514H1289.8L1288.74 510.073H1288.72L1287.66 514H1287.36ZM1292.57 514.07C1292.38 514.07 1292.21 514.033 1292.05 513.957C1291.89 513.882 1291.77 513.772 1291.67 513.627C1291.58 513.482 1291.53 513.306 1291.53 513.099C1291.53 512.962 1291.55 512.842 1291.6 512.739C1291.65 512.635 1291.73 512.545 1291.83 512.47C1291.93 512.395 1292.06 512.333 1292.21 512.285C1292.37 512.235 1292.56 512.197 1292.78 512.17C1292.95 512.15 1293.09 512.131 1293.22 512.112C1293.36 512.092 1293.46 512.062 1293.53 512.021C1293.61 511.979 1293.64 511.917 1293.64 511.833V511.697C1293.64 511.458 1293.57 511.268 1293.42 511.128C1293.27 510.987 1293.06 510.917 1292.8 510.917C1292.56 510.917 1292.36 510.969 1292.2 511.072C1292.04 511.175 1291.93 511.307 1291.87 511.469L1291.62 511.377C1291.69 511.221 1291.78 511.091 1291.9 510.987C1292.01 510.884 1292.15 510.806 1292.3 510.755C1292.46 510.704 1292.62 510.678 1292.79 510.678C1292.94 510.678 1293.08 510.699 1293.21 510.74C1293.34 510.781 1293.46 510.844 1293.56 510.928C1293.67 511.011 1293.75 511.119 1293.81 511.249C1293.87 511.379 1293.9 511.533 1293.9 511.714V514H1293.64V513.41H1293.63C1293.57 513.532 1293.49 513.643 1293.39 513.744C1293.29 513.844 1293.17 513.923 1293.03 513.983C1292.9 514.041 1292.74 514.07 1292.57 514.07ZM1292.59 513.83C1292.8 513.83 1292.98 513.78 1293.14 513.68C1293.3 513.58 1293.42 513.442 1293.51 513.267C1293.6 513.092 1293.64 512.894 1293.64 512.673V512.191C1293.61 512.219 1293.56 512.245 1293.5 512.268C1293.44 512.289 1293.37 512.308 1293.29 512.325C1293.22 512.341 1293.14 512.355 1293.05 512.368C1292.97 512.379 1292.88 512.39 1292.8 512.4C1292.57 512.428 1292.37 512.472 1292.22 512.532C1292.07 512.59 1291.96 512.667 1291.89 512.762C1291.82 512.857 1291.79 512.972 1291.79 513.107C1291.79 513.33 1291.87 513.506 1292.02 513.636C1292.17 513.765 1292.37 513.83 1292.59 513.83ZM1295.25 511.878V514H1294.99V510.727H1295.25V511.245H1295.27C1295.35 511.076 1295.47 510.94 1295.64 510.838C1295.81 510.736 1296.01 510.685 1296.24 510.685C1296.47 510.685 1296.66 510.732 1296.82 510.825C1296.99 510.919 1297.12 511.053 1297.22 511.226C1297.31 511.398 1297.36 511.603 1297.36 511.842V514H1297.1V511.852C1297.1 511.574 1297.02 511.35 1296.85 511.181C1296.69 511.011 1296.47 510.925 1296.2 510.925C1296.01 510.925 1295.85 510.965 1295.71 511.045C1295.57 511.124 1295.46 511.236 1295.38 511.379C1295.29 511.521 1295.25 511.688 1295.25 511.878ZM1299.6 510.727V510.96H1298.17V510.727H1299.6ZM1298.65 509.943H1298.91V513.227C1298.91 513.36 1298.93 513.469 1298.98 513.555C1299.04 513.638 1299.11 513.701 1299.19 513.742C1299.27 513.782 1299.37 513.802 1299.46 513.802C1299.51 513.802 1299.55 513.798 1299.58 513.791C1299.62 513.784 1299.65 513.775 1299.68 513.763L1299.75 514C1299.71 514.014 1299.66 514.026 1299.62 514.036C1299.57 514.048 1299.51 514.053 1299.45 514.053C1299.31 514.053 1299.18 514.023 1299.06 513.962C1298.94 513.901 1298.84 513.812 1298.76 513.695C1298.69 513.579 1298.65 513.438 1298.65 513.273V509.943ZM1303.41 510.727V510.96H1301.98V510.727H1303.41ZM1302.46 509.943H1302.72V513.227C1302.72 513.36 1302.74 513.469 1302.79 513.555C1302.85 513.638 1302.91 513.701 1303 513.742C1303.08 513.782 1303.17 513.802 1303.27 513.802C1303.32 513.802 1303.36 513.798 1303.39 513.791C1303.43 513.784 1303.46 513.775 1303.49 513.763L1303.56 514C1303.52 514.014 1303.47 514.026 1303.42 514.036C1303.38 514.048 1303.32 514.053 1303.25 514.053C1303.12 514.053 1302.99 514.023 1302.87 513.962C1302.75 513.901 1302.65 513.812 1302.57 513.695C1302.5 513.579 1302.46 513.438 1302.46 513.273V509.943ZM1305.55 514.068C1305.28 514.068 1305.04 513.996 1304.83 513.851C1304.62 513.705 1304.45 513.504 1304.33 513.248C1304.21 512.992 1304.15 512.701 1304.15 512.374C1304.15 512.046 1304.21 511.755 1304.33 511.501C1304.45 511.245 1304.62 511.044 1304.83 510.898C1305.04 510.751 1305.28 510.678 1305.55 510.678C1305.82 510.678 1306.06 510.751 1306.27 510.898C1306.48 511.044 1306.65 511.245 1306.77 511.501C1306.89 511.756 1306.95 512.048 1306.95 512.374C1306.95 512.701 1306.89 512.992 1306.77 513.248C1306.65 513.504 1306.48 513.705 1306.27 513.851C1306.06 513.996 1305.82 514.068 1305.55 514.068ZM1305.55 513.827C1305.78 513.827 1305.98 513.763 1306.15 513.634C1306.32 513.504 1306.45 513.33 1306.55 513.109C1306.64 512.889 1306.69 512.644 1306.69 512.374C1306.69 512.104 1306.64 511.86 1306.55 511.641C1306.45 511.421 1306.32 511.246 1306.15 511.117C1305.98 510.987 1305.78 510.921 1305.55 510.921C1305.32 510.921 1305.12 510.987 1304.95 511.117C1304.78 511.246 1304.65 511.421 1304.55 511.641C1304.46 511.86 1304.41 512.104 1304.41 512.374C1304.41 512.644 1304.46 512.889 1304.55 513.109C1304.65 513.33 1304.78 513.504 1304.95 513.634C1305.12 513.763 1305.32 513.827 1305.55 513.827ZM1309.62 514V509.636H1309.89V513.753H1312.02V514H1309.62ZM1314.12 514.068C1313.85 514.068 1313.61 513.996 1313.4 513.851C1313.19 513.705 1313.03 513.504 1312.91 513.248C1312.79 512.992 1312.73 512.701 1312.73 512.374C1312.73 512.046 1312.79 511.755 1312.91 511.501C1313.03 511.245 1313.19 511.044 1313.4 510.898C1313.61 510.751 1313.85 510.678 1314.12 510.678C1314.39 510.678 1314.63 510.751 1314.84 510.898C1315.05 511.044 1315.22 511.245 1315.34 511.501C1315.46 511.756 1315.52 512.048 1315.52 512.374C1315.52 512.701 1315.46 512.992 1315.34 513.248C1315.22 513.504 1315.05 513.705 1314.84 513.851C1314.63 513.996 1314.39 514.068 1314.12 514.068ZM1314.12 513.827C1314.35 513.827 1314.55 513.763 1314.72 513.634C1314.89 513.504 1315.03 513.33 1315.12 513.109C1315.22 512.889 1315.26 512.644 1315.26 512.374C1315.26 512.104 1315.22 511.86 1315.12 511.641C1315.02 511.421 1314.89 511.246 1314.72 511.117C1314.55 510.987 1314.35 510.921 1314.12 510.921C1313.89 510.921 1313.69 510.987 1313.52 511.117C1313.35 511.246 1313.22 511.421 1313.13 511.641C1313.03 511.86 1312.98 512.104 1312.98 512.374C1312.98 512.644 1313.03 512.889 1313.12 513.109C1313.22 513.33 1313.35 513.504 1313.52 513.634C1313.69 513.763 1313.89 513.827 1314.12 513.827ZM1317.6 515.295C1317.39 515.295 1317.21 515.268 1317.05 515.214C1316.89 515.162 1316.75 515.087 1316.64 514.989C1316.52 514.891 1316.44 514.774 1316.38 514.639L1316.59 514.511C1316.64 514.616 1316.71 514.71 1316.8 514.793C1316.89 514.875 1317 514.94 1317.13 514.987C1317.27 515.033 1317.42 515.057 1317.6 515.057C1317.91 515.057 1318.16 514.975 1318.34 514.812C1318.53 514.65 1318.62 514.401 1318.62 514.066V513.252H1318.6C1318.55 513.394 1318.47 513.521 1318.37 513.631C1318.28 513.741 1318.16 513.827 1318.02 513.889C1317.88 513.952 1317.72 513.983 1317.54 513.983C1317.28 513.983 1317.05 513.916 1316.86 513.783C1316.66 513.649 1316.51 513.462 1316.4 513.22C1316.29 512.977 1316.23 512.692 1316.23 512.364C1316.23 512.036 1316.29 511.745 1316.39 511.492C1316.5 511.238 1316.65 511.039 1316.85 510.896C1317.05 510.751 1317.28 510.678 1317.54 510.678C1317.73 510.678 1317.89 510.714 1318.03 510.787C1318.17 510.858 1318.29 510.952 1318.38 511.07C1318.47 511.188 1318.55 511.317 1318.6 511.458H1318.63V510.727H1318.88V514.077C1318.88 514.349 1318.83 514.576 1318.72 514.756C1318.61 514.937 1318.46 515.072 1318.27 515.161C1318.08 515.251 1317.85 515.295 1317.6 515.295ZM1317.56 513.742C1317.78 513.742 1317.97 513.687 1318.13 513.576C1318.29 513.464 1318.41 513.305 1318.49 513.099C1318.58 512.891 1318.62 512.646 1318.62 512.362C1318.62 512.086 1318.58 511.839 1318.5 511.622C1318.41 511.405 1318.29 511.234 1318.13 511.109C1317.97 510.984 1317.78 510.921 1317.56 510.921C1317.34 510.921 1317.14 510.985 1316.98 511.113C1316.83 511.239 1316.7 511.411 1316.62 511.629C1316.53 511.846 1316.49 512.09 1316.49 512.362C1316.49 512.634 1316.54 512.874 1316.62 513.082C1316.71 513.288 1316.83 513.45 1316.99 513.567C1317.15 513.684 1317.34 513.742 1317.56 513.742ZM1320.33 509.636V514H1320.06V509.636H1320.33ZM1321.76 511.878V514H1321.5V510.727H1321.76V511.245H1321.78C1321.86 511.076 1321.98 510.94 1322.15 510.838C1322.32 510.736 1322.52 510.685 1322.75 510.685C1322.97 510.685 1323.17 510.732 1323.33 510.825C1323.5 510.919 1323.63 511.053 1323.72 511.226C1323.82 511.398 1323.87 511.603 1323.87 511.842V514H1323.61V511.852C1323.61 511.574 1323.52 511.35 1323.36 511.181C1323.19 511.011 1322.97 510.925 1322.7 510.925C1322.52 510.925 1322.36 510.965 1322.22 511.045C1322.08 511.124 1321.96 511.236 1321.88 511.379C1321.8 511.521 1321.76 511.688 1321.76 511.878ZM1325.61 512.728V512.519C1325.61 512.342 1325.63 512.192 1325.67 512.072C1325.72 511.951 1325.78 511.844 1325.87 511.75C1325.96 511.655 1326.08 511.559 1326.22 511.462C1326.34 511.377 1326.45 511.294 1326.52 511.213C1326.6 511.131 1326.66 511.045 1326.69 510.955C1326.73 510.866 1326.75 510.768 1326.75 510.661C1326.75 510.495 1326.71 510.349 1326.63 510.222C1326.55 510.094 1326.45 509.995 1326.31 509.924C1326.18 509.852 1326.03 509.815 1325.86 509.815C1325.69 509.815 1325.54 509.853 1325.4 509.928C1325.27 510.004 1325.16 510.109 1325.08 510.246C1324.99 510.382 1324.95 510.543 1324.95 510.727H1324.67C1324.68 510.501 1324.73 510.302 1324.84 510.129C1324.94 509.955 1325.08 509.82 1325.26 509.724C1325.44 509.626 1325.64 509.577 1325.86 509.577C1326.08 509.577 1326.28 509.624 1326.45 509.719C1326.63 509.813 1326.76 509.942 1326.86 510.107C1326.96 510.272 1327.01 510.46 1327.01 510.67C1327.01 510.802 1326.99 510.923 1326.95 511.034C1326.9 511.143 1326.84 511.247 1326.75 511.345C1326.65 511.443 1326.54 511.543 1326.39 511.643C1326.26 511.734 1326.16 511.821 1326.08 511.903C1326 511.986 1325.95 512.075 1325.92 512.172C1325.89 512.268 1325.87 512.384 1325.87 512.519V512.728H1325.61ZM1325.75 514.028C1325.68 514.028 1325.63 514.006 1325.58 513.962C1325.54 513.916 1325.52 513.862 1325.52 513.798C1325.52 513.735 1325.54 513.681 1325.58 513.636C1325.63 513.59 1325.68 513.567 1325.75 513.567C1325.81 513.567 1325.86 513.59 1325.91 513.636C1325.95 513.681 1325.98 513.735 1325.98 513.798C1325.98 513.84 1325.97 513.879 1325.94 513.915C1325.92 513.949 1325.9 513.977 1325.86 513.998C1325.83 514.018 1325.79 514.028 1325.75 514.028Z" fill="black"/>
</g>
<rect x="898.5" y="206.5" width="699" height="449" stroke="black"/>
<defs>
<clipPath id="clip0_262_2">
<rect x="101" y="207" width="700" height="450" fill="white"/>
</clipPath>
<clipPath id="clip1_262_2">
<rect x="898" y="206" width="700" height="450" fill="white"/>
</clipPath>
</defs>
</svg>
