<svg width="433" height="283" viewBox="0 0 433 283" fill="none" xmlns="http://www.w3.org/2000/svg">
<rect width="433" height="283" fill="#252323"/>
<rect x="44.5" y="26.5" width="344" height="237" fill="white"/>
<rect x="44.9802" y="26" width="343.04" height="44" fill="#D9D9D9"/>
<rect x="171.125" y="29.125" width="90.75" height="32.75" fill="white" stroke="black" stroke-width="0.25"/>
<path d="M118.364 48V39.2727H121.091C121.58 39.2727 121.997 39.3622 122.344 39.5412C122.693 39.7173 122.96 39.9716 123.145 40.304C123.332 40.6335 123.426 41.0284 123.426 41.4886C123.426 41.8295 123.374 42.1435 123.268 42.4304C123.166 42.7173 123.016 42.9588 122.817 43.1548C122.618 43.348 122.378 43.4801 122.097 43.5511V43.5852C122.412 43.6108 122.696 43.7202 122.949 43.9134C123.202 44.1065 123.401 44.3622 123.545 44.6804C123.693 44.9986 123.767 45.3608 123.767 45.767C123.767 46.2159 123.672 46.608 123.482 46.9432C123.294 47.2784 123.021 47.5384 122.663 47.723C122.308 47.9077 121.881 48 121.381 48H118.364ZM118.636 47.7273H121.381C122.02 47.7273 122.531 47.5483 122.915 47.1903C123.301 46.8295 123.494 46.3551 123.494 45.767C123.494 45.3636 123.403 45.0071 123.222 44.6974C123.04 44.3878 122.79 44.1449 122.472 43.9688C122.156 43.7926 121.793 43.7045 121.381 43.7045H118.636V47.7273ZM118.636 43.4318H121.381C121.778 43.4318 122.108 43.3423 122.369 43.1634C122.631 42.9844 122.827 42.7472 122.957 42.4517C123.088 42.1562 123.153 41.8352 123.153 41.4886C123.153 40.8693 122.969 40.3906 122.599 40.0526C122.23 39.7145 121.727 39.5455 121.091 39.5455H118.636V43.4318ZM125.847 48V41.4545H126.119V42.4943H126.153C126.307 42.1534 126.558 41.8807 126.908 41.6761C127.26 41.4716 127.662 41.3693 128.114 41.3693C128.148 41.3693 128.17 41.3693 128.182 41.3693C128.193 41.3693 128.216 41.3693 128.25 41.3693V41.642C128.216 41.642 128.193 41.642 128.182 41.642C128.17 41.642 128.148 41.642 128.114 41.642C127.727 41.642 127.384 41.7259 127.082 41.8935C126.784 42.0611 126.548 42.2926 126.375 42.5881C126.205 42.8835 126.119 43.2216 126.119 43.6023V48H125.847ZM131.385 48.1364C131.027 48.1364 130.696 48.0625 130.392 47.9148C130.091 47.767 129.848 47.5511 129.664 47.267C129.482 46.983 129.391 46.6364 129.391 46.2273C129.391 46.0057 129.426 45.7983 129.498 45.6051C129.569 45.4091 129.694 45.2315 129.873 45.0724C130.051 44.9134 130.301 44.777 130.623 44.6634C130.946 44.5497 131.36 44.4631 131.863 44.4034C132.164 44.3693 132.448 44.3295 132.715 44.2841C132.982 44.2386 133.199 44.1705 133.367 44.0795C133.534 43.9886 133.618 43.858 133.618 43.6875V43.2955C133.618 42.7926 133.449 42.3892 133.111 42.0852C132.773 41.7784 132.323 41.625 131.76 41.625C131.3 41.625 130.898 41.7273 130.554 41.9318C130.211 42.1335 129.971 42.4176 129.834 42.7841L129.578 42.6818C129.681 42.4091 129.838 42.1733 130.051 41.9744C130.265 41.7756 130.517 41.6222 130.81 41.5142C131.103 41.4062 131.419 41.3523 131.76 41.3523C132.093 41.3523 132.39 41.402 132.651 41.5014C132.915 41.598 133.14 41.7344 133.324 41.9105C133.509 42.0838 133.65 42.2884 133.746 42.5241C133.843 42.7599 133.891 43.017 133.891 43.2955V48H133.618V46.6705H133.584C133.448 46.9659 133.27 47.2244 133.051 47.446C132.836 47.6648 132.586 47.8352 132.301 47.9574C132.02 48.0767 131.715 48.1364 131.385 48.1364ZM131.385 47.8636C131.8 47.8636 132.176 47.7528 132.515 47.5312C132.853 47.3068 133.121 46.9957 133.32 46.598C133.519 46.1974 133.618 45.733 133.618 45.2045V44.2159C133.539 44.2756 133.442 44.3281 133.328 44.3736C133.218 44.419 133.091 44.4602 132.949 44.4972C132.81 44.5312 132.658 44.5611 132.493 44.5866C132.328 44.6122 132.152 44.6364 131.965 44.6591C131.38 44.7273 130.919 44.831 130.584 44.9702C130.249 45.1094 130.012 45.2841 129.873 45.4943C129.733 45.7045 129.664 45.9489 129.664 46.2273C129.664 46.7216 129.828 47.1179 130.158 47.4162C130.49 47.7145 130.9 47.8636 131.385 47.8636ZM136.514 43.6023V48H136.241V41.4545H136.514V42.4943H136.548C136.701 42.1534 136.953 41.8807 137.302 41.6761C137.654 41.4716 138.056 41.3693 138.508 41.3693C138.946 41.3693 139.332 41.4645 139.667 41.6548C140.002 41.8452 140.265 42.108 140.456 42.4432C140.646 42.7784 140.741 43.1648 140.741 43.6023V48H140.468V43.6023C140.468 43.0227 140.287 42.5511 139.923 42.1875C139.559 41.8239 139.088 41.642 138.508 41.642C138.122 41.642 137.778 41.7259 137.477 41.8935C137.179 42.0611 136.943 42.2926 136.77 42.5881C136.599 42.8835 136.514 43.2216 136.514 43.6023ZM145.192 48.1364C144.675 48.1364 144.228 47.9886 143.85 47.6932C143.472 47.3949 143.181 46.9901 142.976 46.4787C142.772 45.9673 142.669 45.3892 142.669 44.7443C142.669 44.1023 142.773 43.5256 142.98 43.0142C143.188 42.5028 143.48 42.098 143.858 41.7997C144.236 41.5014 144.681 41.3523 145.192 41.3523C145.539 41.3523 145.858 41.4247 146.151 41.5696C146.444 41.7116 146.698 41.9162 146.914 42.1832C147.13 42.4474 147.294 42.7614 147.408 43.125H147.442V39.2727H147.715V48H147.442V46.3636H147.408C147.289 46.7244 147.123 47.0384 146.909 47.3054C146.696 47.5696 146.444 47.7741 146.151 47.919C145.861 48.0639 145.542 48.1364 145.192 48.1364ZM145.192 47.8636C145.655 47.8636 146.054 47.7273 146.39 47.4545C146.728 47.179 146.988 46.8068 147.169 46.3381C147.351 45.8665 147.442 45.3352 147.442 44.7443C147.442 44.1534 147.35 43.6236 147.165 43.1548C146.983 42.6832 146.723 42.3111 146.385 42.0384C146.05 41.7628 145.652 41.625 145.192 41.625C144.732 41.625 144.333 41.7628 143.995 42.0384C143.659 42.3111 143.4 42.6832 143.215 43.1548C143.033 43.6236 142.942 44.1534 142.942 44.7443C142.942 45.3352 143.033 45.8665 143.215 46.3381C143.397 46.8068 143.655 47.179 143.99 47.4545C144.328 47.7273 144.729 47.8636 145.192 47.8636ZM154.154 42.8352L153.881 42.9034C153.793 42.6193 153.669 42.3835 153.51 42.196C153.354 42.0057 153.162 41.8636 152.935 41.7699C152.708 41.6733 152.444 41.625 152.142 41.625C151.62 41.625 151.196 41.7585 150.873 42.0256C150.549 42.2898 150.387 42.6392 150.387 43.0739C150.387 43.4176 150.496 43.706 150.715 43.9389C150.936 44.1719 151.27 44.3437 151.716 44.4545L152.739 44.7102C153.219 44.8295 153.583 45.0312 153.83 45.3153C154.08 45.5994 154.205 45.9432 154.205 46.3466C154.205 46.7017 154.111 47.0142 153.924 47.2841C153.739 47.554 153.483 47.7642 153.157 47.9148C152.83 48.0625 152.452 48.1364 152.023 48.1364C151.441 48.1364 150.965 47.9943 150.596 47.7102C150.226 47.4261 149.986 47.0227 149.875 46.5L150.148 46.4318C150.245 46.8949 150.451 47.25 150.766 47.4972C151.084 47.7415 151.503 47.8636 152.023 47.8636C152.591 47.8636 153.051 47.7244 153.404 47.446C153.756 47.1676 153.932 46.8011 153.932 46.3466C153.932 46.0085 153.827 45.723 153.617 45.4901C153.407 45.2571 153.091 45.0881 152.671 44.983L151.648 44.7273C151.145 44.6023 150.763 44.3977 150.502 44.1136C150.243 43.8295 150.114 43.483 150.114 43.0739C150.114 42.7301 150.199 42.4304 150.37 42.1747C150.543 41.9162 150.782 41.7145 151.086 41.5696C151.392 41.4247 151.745 41.3523 152.142 41.3523C152.648 41.3523 153.07 41.4773 153.408 41.7273C153.746 41.9744 153.995 42.3437 154.154 42.8352Z" fill="black"/>
<path d="M57.3636 48V39.2727H59.9205C60.4091 39.2727 60.8409 39.3821 61.2159 39.6009C61.5938 39.8196 61.8892 40.1207 62.1023 40.5043C62.3182 40.8878 62.4261 41.3295 62.4261 41.8295C62.4261 42.3239 62.3182 42.7628 62.1023 43.1463C61.8892 43.527 61.5938 43.8267 61.2159 44.0455C60.8409 44.2614 60.4091 44.3693 59.9205 44.3693H57.5V44.0966H59.9205C60.358 44.0966 60.7443 44 61.0795 43.8068C61.4148 43.6136 61.6776 43.3466 61.8679 43.0057C62.0582 42.6648 62.1534 42.2727 62.1534 41.8295C62.1534 41.3835 62.0582 40.9886 61.8679 40.6449C61.6776 40.3011 61.4148 40.0327 61.0795 39.8395C60.7443 39.6435 60.358 39.5455 59.9205 39.5455H57.6364V48H57.3636ZM64.4364 48V41.4545H64.7092V42.4943H64.7433C64.8967 42.1534 65.1481 41.8807 65.4975 41.6761C65.8498 41.4716 66.2518 41.3693 66.7035 41.3693C66.7376 41.3693 66.7603 41.3693 66.7717 41.3693C66.783 41.3693 66.8058 41.3693 66.8398 41.3693V41.642C66.8058 41.642 66.783 41.642 66.7717 41.642C66.7603 41.642 66.7376 41.642 66.7035 41.642C66.3171 41.642 65.9734 41.7259 65.6722 41.8935C65.3739 42.0611 65.1381 42.2926 64.9648 42.5881C64.7944 42.8835 64.7092 43.2216 64.7092 43.6023V48H64.4364ZM70.4577 48.1364C69.9435 48.1364 69.4819 47.9886 69.0728 47.6932C68.6637 47.3949 68.3398 46.9901 68.1012 46.4787C67.8654 45.9645 67.7475 45.3864 67.7475 44.7443C67.7475 44.0994 67.8654 43.5213 68.1012 43.0099C68.3398 42.4986 68.6637 42.0952 69.0728 41.7997C69.4819 41.5014 69.9435 41.3523 70.4577 41.3523C70.9719 41.3523 71.4322 41.5014 71.8384 41.7997C72.2475 42.098 72.5714 42.5028 72.81 43.0142C73.0487 43.5256 73.168 44.1023 73.168 44.7443C73.168 45.3864 73.0487 45.9645 72.81 46.4787C72.5742 46.9901 72.2518 47.3949 71.8427 47.6932C71.4336 47.9886 70.9719 48.1364 70.4577 48.1364ZM70.4577 47.8636C70.9208 47.8636 71.3356 47.7273 71.7021 47.4545C72.0714 47.1818 72.3626 46.8097 72.5756 46.3381C72.7887 45.8665 72.8952 45.3352 72.8952 44.7443C72.8952 44.1534 72.7873 43.6236 72.5714 43.1548C72.3583 42.6832 72.0685 42.3111 71.7021 42.0384C71.3356 41.7628 70.9208 41.625 70.4577 41.625C69.9975 41.625 69.5827 41.7628 69.2134 42.0384C68.8469 42.3111 68.5558 42.6832 68.3398 43.1548C68.1268 43.6236 68.0202 44.1534 68.0202 44.7443C68.0202 45.3352 68.1268 45.8665 68.3398 46.3381C68.5529 46.8097 68.8427 47.1818 69.2092 47.4545C69.5785 47.7273 69.9947 47.8636 70.4577 47.8636ZM77.2195 48.1364C76.7024 48.1364 76.255 47.9886 75.8771 47.6932C75.4993 47.3949 75.2081 46.9901 75.0036 46.4787C74.799 45.9673 74.6967 45.3892 74.6967 44.7443C74.6967 44.1023 74.8004 43.5256 75.0078 43.0142C75.2152 42.5028 75.5078 42.098 75.8857 41.7997C76.2635 41.5014 76.7081 41.3523 77.2195 41.3523C77.5661 41.3523 77.8857 41.4247 78.1783 41.5696C78.4709 41.7116 78.7251 41.9162 78.9411 42.1832C79.157 42.4474 79.3217 42.7614 79.4354 43.125H79.4695V39.2727H79.7422V48H79.4695V46.3636H79.4354C79.3161 46.7244 79.1499 47.0384 78.9368 47.3054C78.7237 47.5696 78.4709 47.7741 78.1783 47.919C77.8885 48.0639 77.5689 48.1364 77.2195 48.1364ZM77.2195 47.8636C77.6825 47.8636 78.0817 47.7273 78.4169 47.4545C78.755 47.179 79.0149 46.8068 79.1967 46.3381C79.3786 45.8665 79.4695 45.3352 79.4695 44.7443C79.4695 44.1534 79.3771 43.6236 79.1925 43.1548C79.0107 42.6832 78.7507 42.3111 78.4126 42.0384C78.0774 41.7628 77.6797 41.625 77.2195 41.625C76.7592 41.625 76.3601 41.7628 76.022 42.0384C75.6868 42.3111 75.4268 42.6832 75.2422 43.1548C75.0604 43.6236 74.9695 44.1534 74.9695 44.7443C74.9695 45.3352 75.0604 45.8665 75.2422 46.3381C75.424 46.8068 75.6825 47.179 76.0178 47.4545C76.3558 47.7273 76.7564 47.8636 77.2195 47.8636ZM86.4879 45.8523V41.4545H86.7607V48H86.4879V46.9602H86.4538C86.3004 47.3011 86.0476 47.5739 85.6953 47.7784C85.3459 47.983 84.9453 48.0852 84.4936 48.0852C84.0561 48.0852 83.6697 47.9901 83.3345 47.7997C82.9993 47.6094 82.7365 47.3466 82.5462 47.0114C82.3558 46.6761 82.2607 46.2898 82.2607 45.8523V41.4545H82.5334V45.8523C82.5334 46.4318 82.7152 46.9034 83.0788 47.267C83.4425 47.6307 83.9141 47.8125 84.4936 47.8125C84.88 47.8125 85.2223 47.7287 85.5206 47.5611C85.8217 47.3935 86.0575 47.1619 86.228 46.8665C86.4013 46.571 86.4879 46.233 86.4879 45.8523ZM91.4332 48.1364C90.9048 48.1364 90.4332 47.9886 90.0185 47.6932C89.6065 47.3949 89.2813 46.9901 89.0426 46.4787C88.8068 45.9673 88.6889 45.3892 88.6889 44.7443C88.6889 44.1051 88.8068 43.5298 89.0426 43.0185C89.2784 42.5043 89.6023 42.098 90.0142 41.7997C90.429 41.5014 90.902 41.3523 91.4332 41.3523C91.8253 41.3523 92.1847 41.4375 92.5114 41.608C92.8409 41.7756 93.1165 42.0114 93.3381 42.3153C93.5597 42.6165 93.7031 42.9659 93.7685 43.3636H93.4787C93.3906 42.8494 93.1563 42.4318 92.7756 42.1108C92.3977 41.7869 91.9503 41.625 91.4332 41.625C90.9645 41.625 90.5426 41.7614 90.1676 42.0341C89.7955 42.304 89.5014 42.6747 89.2855 43.1463C89.0696 43.6151 88.9616 44.1477 88.9616 44.7443C88.9616 45.3239 89.0653 45.8494 89.2727 46.321C89.483 46.7926 89.7741 47.1676 90.1463 47.446C90.5185 47.7244 90.9474 47.8636 91.4332 47.8636C91.7827 47.8636 92.1037 47.7912 92.3963 47.6463C92.6889 47.4986 92.9318 47.2912 93.125 47.0241C93.321 46.7571 93.4446 46.446 93.4957 46.0909H93.7855C93.723 46.5028 93.581 46.8622 93.3594 47.169C93.1378 47.4759 92.8608 47.7145 92.5284 47.8849C92.196 48.0526 91.831 48.1364 91.4332 48.1364ZM97.7592 41.4545V41.7273H95.1683V41.4545H97.7592ZM96.1229 39.8864H96.3956V46.6193C96.3956 46.875 96.4524 47.0952 96.5661 47.2798C96.6797 47.4616 96.8303 47.6023 97.0178 47.7017C97.2053 47.7983 97.407 47.8466 97.6229 47.8466C97.7053 47.8466 97.7805 47.8395 97.8487 47.8253C97.9197 47.8111 97.9922 47.7898 98.0661 47.7614L98.1513 48.017C98.0661 48.0483 97.9822 48.0724 97.8999 48.0895C97.8175 48.1094 97.7251 48.1193 97.6229 48.1193C97.3558 48.1193 97.1072 48.0582 96.8771 47.9361C96.6499 47.8139 96.4666 47.6406 96.3274 47.4162C96.1911 47.1918 96.1229 46.9261 96.1229 46.6193V39.8864ZM103.689 42.8352L103.416 42.9034C103.328 42.6193 103.205 42.3835 103.045 42.196C102.889 42.0057 102.697 41.8636 102.47 41.7699C102.243 41.6733 101.979 41.625 101.678 41.625C101.155 41.625 100.732 41.7585 100.408 42.0256C100.084 42.2898 99.9219 42.6392 99.9219 43.0739C99.9219 43.4176 100.031 43.706 100.25 43.9389C100.472 44.1719 100.805 44.3437 101.251 44.4545L102.274 44.7102C102.754 44.8295 103.118 45.0312 103.365 45.3153C103.615 45.5994 103.74 45.9432 103.74 46.3466C103.74 46.7017 103.646 47.0142 103.459 47.2841C103.274 47.554 103.018 47.7642 102.692 47.9148C102.365 48.0625 101.987 48.1364 101.558 48.1364C100.976 48.1364 100.5 47.9943 100.131 47.7102C99.7614 47.4261 99.5213 47.0227 99.4105 46.5L99.6832 46.4318C99.7798 46.8949 99.9858 47.25 100.301 47.4972C100.619 47.7415 101.038 47.8636 101.558 47.8636C102.126 47.8636 102.587 47.7244 102.939 47.446C103.291 47.1676 103.467 46.8011 103.467 46.3466C103.467 46.0085 103.362 45.723 103.152 45.4901C102.942 45.2571 102.626 45.0881 102.206 44.983L101.183 44.7273C100.68 44.6023 100.298 44.3977 100.037 44.1136C99.7784 43.8295 99.6491 43.483 99.6491 43.0739C99.6491 42.7301 99.7344 42.4304 99.9048 42.1747C100.078 41.9162 100.317 41.7145 100.621 41.5696C100.928 41.4247 101.28 41.3523 101.678 41.3523C102.183 41.3523 102.605 41.4773 102.943 41.7273C103.281 41.9744 103.53 42.3437 103.689 42.8352Z" fill="black"/>
<path d="M293.824 42H293.534C293.48 41.7102 293.375 41.4148 293.219 41.1136C293.062 40.8125 292.855 40.5341 292.597 40.2784C292.338 40.0227 292.033 39.8168 291.68 39.6605C291.328 39.5043 290.929 39.4261 290.483 39.4261C289.886 39.4261 289.334 39.5895 288.825 39.9162C288.32 40.2401 287.912 40.7159 287.602 41.3438C287.295 41.9688 287.142 42.733 287.142 43.6364C287.142 44.5511 287.295 45.321 287.602 45.946C287.912 46.571 288.32 47.044 288.825 47.3651C289.334 47.6861 289.886 47.8466 290.483 47.8466C290.929 47.8466 291.328 47.7699 291.68 47.6165C292.033 47.4602 292.338 47.2557 292.597 47.0028C292.855 46.7472 293.062 46.4687 293.219 46.1676C293.375 45.8636 293.48 45.5653 293.534 45.2727H293.824C293.77 45.5795 293.662 45.8991 293.5 46.2315C293.338 46.5611 293.119 46.8693 292.844 47.1562C292.568 47.4432 292.234 47.6761 291.842 47.8551C291.45 48.0312 290.997 48.1193 290.483 48.1193C289.767 48.1193 289.138 47.9318 288.595 47.5568C288.053 47.1818 287.629 46.6577 287.325 45.9844C287.021 45.3111 286.869 44.5284 286.869 43.6364C286.869 42.7443 287.021 41.9616 287.325 41.2884C287.629 40.6151 288.053 40.0909 288.595 39.7159C289.138 39.3409 289.767 39.1534 290.483 39.1534C290.997 39.1534 291.45 39.2415 291.842 39.4176C292.234 39.5938 292.568 39.8253 292.844 40.1122C293.119 40.3963 293.338 40.7045 293.5 41.0369C293.662 41.3665 293.77 41.6875 293.824 42ZM297.467 48.1364C297.109 48.1364 296.778 48.0625 296.474 47.9148C296.173 47.767 295.93 47.5511 295.746 47.267C295.564 46.983 295.473 46.6364 295.473 46.2273C295.473 46.0057 295.509 45.7983 295.58 45.6051C295.651 45.4091 295.776 45.2315 295.955 45.0724C296.134 44.9134 296.384 44.777 296.705 44.6634C297.028 44.5497 297.442 44.4631 297.945 44.4034C298.246 44.3693 298.53 44.3295 298.797 44.2841C299.064 44.2386 299.281 44.1705 299.449 44.0795C299.616 43.9886 299.7 43.858 299.7 43.6875V43.2955C299.7 42.7926 299.531 42.3892 299.193 42.0852C298.855 41.7784 298.405 41.625 297.842 41.625C297.382 41.625 296.98 41.7273 296.636 41.9318C296.293 42.1335 296.053 42.4176 295.916 42.7841L295.661 42.6818C295.763 42.4091 295.92 42.1733 296.134 41.9744C296.347 41.7756 296.599 41.6222 296.892 41.5142C297.185 41.4062 297.501 41.3523 297.842 41.3523C298.175 41.3523 298.472 41.402 298.733 41.5014C298.997 41.598 299.222 41.7344 299.406 41.9105C299.591 42.0838 299.732 42.2884 299.828 42.5241C299.925 42.7599 299.973 43.017 299.973 43.2955V48H299.7V46.6705H299.666C299.53 46.9659 299.352 47.2244 299.134 47.446C298.918 47.6648 298.668 47.8352 298.384 47.9574C298.102 48.0767 297.797 48.1364 297.467 48.1364ZM297.467 47.8636C297.882 47.8636 298.259 47.7528 298.597 47.5312C298.935 47.3068 299.203 46.9957 299.402 46.598C299.601 46.1974 299.7 45.733 299.7 45.2045V44.2159C299.621 44.2756 299.524 44.3281 299.411 44.3736C299.3 44.419 299.173 44.4602 299.031 44.4972C298.892 44.5312 298.74 44.5611 298.575 44.5866C298.411 44.6122 298.234 44.6364 298.047 44.6591C297.462 44.7273 297.001 44.831 296.666 44.9702C296.331 45.1094 296.094 45.2841 295.955 45.4943C295.815 45.7045 295.746 45.9489 295.746 46.2273C295.746 46.7216 295.911 47.1179 296.24 47.4162C296.572 47.7145 296.982 47.8636 297.467 47.8636ZM302.323 48V41.4545H302.596V42.4943H302.63C302.783 42.1534 303.035 41.8807 303.384 41.6761C303.737 41.4716 304.138 41.3693 304.59 41.3693C304.624 41.3693 304.647 41.3693 304.658 41.3693C304.67 41.3693 304.692 41.3693 304.727 41.3693V41.642C304.692 41.642 304.67 41.642 304.658 41.642C304.647 41.642 304.624 41.642 304.59 41.642C304.204 41.642 303.86 41.7259 303.559 41.8935C303.261 42.0611 303.025 42.2926 302.852 42.5881C302.681 42.8835 302.596 43.2216 302.596 43.6023V48H302.323ZM308.681 41.4545V41.7273H306.09V41.4545H308.681ZM307.045 39.8864H307.317V46.6193C307.317 46.875 307.374 47.0952 307.488 47.2798C307.602 47.4616 307.752 47.6023 307.94 47.7017C308.127 47.7983 308.329 47.8466 308.545 47.8466C308.627 47.8466 308.702 47.8395 308.771 47.8253C308.842 47.8111 308.914 47.7898 308.988 47.7614L309.073 48.017C308.988 48.0483 308.904 48.0724 308.822 48.0895C308.739 48.1094 308.647 48.1193 308.545 48.1193C308.278 48.1193 308.029 48.0582 307.799 47.9361C307.572 47.8139 307.388 47.6406 307.249 47.4162C307.113 47.1918 307.045 46.9261 307.045 46.6193V39.8864Z" fill="black"/>
<path d="M343.364 48V39.2727H345.92C346.409 39.2727 346.841 39.3821 347.216 39.6009C347.594 39.8196 347.889 40.1207 348.102 40.5043C348.318 40.8878 348.426 41.3295 348.426 41.8295C348.426 42.3239 348.318 42.7628 348.102 43.1463C347.889 43.527 347.594 43.8267 347.216 44.0455C346.841 44.2614 346.409 44.3693 345.92 44.3693H343.5V44.0966H345.92C346.358 44.0966 346.744 44 347.08 43.8068C347.415 43.6136 347.678 43.3466 347.868 43.0057C348.058 42.6648 348.153 42.2727 348.153 41.8295C348.153 41.3835 348.058 40.9886 347.868 40.6449C347.678 40.3011 347.415 40.0327 347.08 39.8395C346.744 39.6435 346.358 39.5455 345.92 39.5455H343.636V48H343.364ZM350.436 48V41.4545H350.709V42.4943H350.743C350.897 42.1534 351.148 41.8807 351.498 41.6761C351.85 41.4716 352.252 41.3693 352.703 41.3693C352.738 41.3693 352.76 41.3693 352.772 41.3693C352.783 41.3693 352.806 41.3693 352.84 41.3693V41.642C352.806 41.642 352.783 41.642 352.772 41.642C352.76 41.642 352.738 41.642 352.703 41.642C352.317 41.642 351.973 41.7259 351.672 41.8935C351.374 42.0611 351.138 42.2926 350.965 42.5881C350.794 42.8835 350.709 43.2216 350.709 43.6023V48H350.436ZM356.458 48.1364C355.944 48.1364 355.482 47.9886 355.073 47.6932C354.664 47.3949 354.34 46.9901 354.101 46.4787C353.865 45.9645 353.748 45.3864 353.748 44.7443C353.748 44.0994 353.865 43.5213 354.101 43.0099C354.34 42.4986 354.664 42.0952 355.073 41.7997C355.482 41.5014 355.944 41.3523 356.458 41.3523C356.972 41.3523 357.432 41.5014 357.838 41.7997C358.248 42.098 358.571 42.5028 358.81 43.0142C359.049 43.5256 359.168 44.1023 359.168 44.7443C359.168 45.3864 359.049 45.9645 358.81 46.4787C358.574 46.9901 358.252 47.3949 357.843 47.6932C357.434 47.9886 356.972 48.1364 356.458 48.1364ZM356.458 47.8636C356.921 47.8636 357.336 47.7273 357.702 47.4545C358.071 47.1818 358.363 46.8097 358.576 46.3381C358.789 45.8665 358.895 45.3352 358.895 44.7443C358.895 44.1534 358.787 43.6236 358.571 43.1548C358.358 42.6832 358.069 42.3111 357.702 42.0384C357.336 41.7628 356.921 41.625 356.458 41.625C355.998 41.625 355.583 41.7628 355.213 42.0384C354.847 42.3111 354.556 42.6832 354.34 43.1548C354.127 43.6236 354.02 44.1534 354.02 44.7443C354.02 45.3352 354.127 45.8665 354.34 46.3381C354.553 46.8097 354.843 47.1818 355.209 47.4545C355.578 47.7273 355.995 47.8636 356.458 47.8636ZM363.339 41.4545V41.7273H360.748V41.4545H363.339ZM361.651 48V40.3807C361.651 40.0739 361.719 39.8082 361.856 39.5838C361.995 39.3594 362.178 39.1861 362.406 39.0639C362.636 38.9418 362.884 38.8807 363.151 38.8807C363.254 38.8807 363.346 38.8892 363.428 38.9062C363.511 38.9233 363.592 38.946 363.671 38.9744L363.586 39.2301C363.515 39.2074 363.445 39.1889 363.377 39.1747C363.309 39.1605 363.234 39.1534 363.151 39.1534C362.825 39.1534 362.538 39.2628 362.29 39.4815C362.046 39.7003 361.924 40 361.924 40.3807L361.915 48H361.651ZM365.096 48V41.4545H365.368V48H365.096ZM365.232 40.2614C365.158 40.2614 365.094 40.2344 365.04 40.1804C364.986 40.1264 364.959 40.0625 364.959 39.9886C364.959 39.9148 364.986 39.8509 365.04 39.7969C365.094 39.7429 365.158 39.7159 365.232 39.7159C365.306 39.7159 365.37 39.7429 365.424 39.7969C365.478 39.8509 365.505 39.9148 365.505 39.9886C365.505 40.0625 365.478 40.1264 365.424 40.1804C365.37 40.2344 365.306 40.2614 365.232 40.2614ZM367.994 39.2727V48H367.722V39.2727H367.994ZM372.766 48.1364C372.195 48.1364 371.695 47.9872 371.266 47.6889C370.84 47.3906 370.509 46.9858 370.273 46.4744C370.037 45.9631 369.919 45.3864 369.919 44.7443C369.919 44.1023 370.037 43.5256 370.273 43.0142C370.512 42.5028 370.836 42.098 371.245 41.7997C371.654 41.5014 372.115 41.3523 372.63 41.3523C373.01 41.3523 373.363 41.4332 373.686 41.5952C374.013 41.7571 374.297 41.9815 374.539 42.2685C374.78 42.5554 374.968 42.8864 375.101 43.2614C375.238 43.6335 375.306 44.0312 375.306 44.4545V44.7273H370.056V44.4545H375.033C375.033 43.929 374.925 43.4531 374.709 43.027C374.493 42.598 374.203 42.2571 373.84 42.0043C373.476 41.7514 373.073 41.625 372.63 41.625C372.181 41.625 371.775 41.7585 371.411 42.0256C371.047 42.2926 370.756 42.6562 370.537 43.1165C370.319 43.5767 370.203 44.0966 370.192 44.6761V44.7102C370.192 45.2812 370.292 45.8068 370.49 46.2869C370.692 46.7642 370.985 47.1463 371.368 47.4332C371.752 47.7202 372.218 47.8636 372.766 47.8636C373.169 47.8636 373.507 47.7926 373.78 47.6506C374.056 47.5085 374.276 47.3452 374.441 47.1605C374.608 46.9759 374.732 46.8182 374.811 46.6875L375.033 46.8409C374.936 47.0057 374.792 47.1889 374.598 47.3906C374.405 47.5923 374.158 47.767 373.857 47.9148C373.556 48.0625 373.192 48.1364 372.766 48.1364Z" fill="black"/>
<line x1="172.296" y1="29.1825" x2="262.043" y2="61.8826" stroke="black" stroke-width="0.25"/>
<line x1="170.958" y1="61.8824" x2="261.699" y2="29.1824" stroke="black" stroke-width="0.25"/>
<path d="M204.364 49V40.2727H204.636V48.7273H209V49H204.364ZM213.227 49.1364C212.713 49.1364 212.251 48.9886 211.842 48.6932C211.433 48.3949 211.109 47.9901 210.871 47.4787C210.635 46.9645 210.517 46.3864 210.517 45.7443C210.517 45.0994 210.635 44.5213 210.871 44.0099C211.109 43.4986 211.433 43.0952 211.842 42.7997C212.251 42.5014 212.713 42.3523 213.227 42.3523C213.741 42.3523 214.202 42.5014 214.608 42.7997C215.017 43.098 215.341 43.5028 215.58 44.0142C215.818 44.5256 215.938 45.1023 215.938 45.7443C215.938 46.3864 215.818 46.9645 215.58 47.4787C215.344 47.9901 215.021 48.3949 214.612 48.6932C214.203 48.9886 213.741 49.1364 213.227 49.1364ZM213.227 48.8636C213.69 48.8636 214.105 48.7273 214.472 48.4545C214.841 48.1818 215.132 47.8097 215.345 47.3381C215.558 46.8665 215.665 46.3352 215.665 45.7443C215.665 45.1534 215.557 44.6236 215.341 44.1548C215.128 43.6832 214.838 43.3111 214.472 43.0384C214.105 42.7628 213.69 42.625 213.227 42.625C212.767 42.625 212.352 42.7628 211.983 43.0384C211.616 43.3111 211.325 43.6832 211.109 44.1548C210.896 44.6236 210.79 45.1534 210.79 45.7443C210.79 46.3352 210.896 46.8665 211.109 47.3381C211.322 47.8097 211.612 48.1818 211.979 48.4545C212.348 48.7273 212.764 48.8636 213.227 48.8636ZM220.074 51.5909C219.708 51.5909 219.37 51.5412 219.06 51.4418C218.75 51.3452 218.483 51.1989 218.259 51.0028C218.034 50.8097 217.867 50.5682 217.756 50.2784L218.012 50.1761C218.111 50.4318 218.259 50.6435 218.455 50.8111C218.654 50.9815 218.891 51.108 219.167 51.1903C219.445 51.2756 219.748 51.3182 220.074 51.3182C220.756 51.3182 221.287 51.1378 221.668 50.777C222.049 50.419 222.239 49.8722 222.239 49.1364V47.3636H222.205C222.091 47.7273 221.922 48.0312 221.698 48.2756C221.473 48.517 221.213 48.6989 220.918 48.821C220.623 48.9403 220.313 49 219.989 49C219.478 49 219.033 48.8622 218.655 48.5866C218.277 48.3111 217.985 47.929 217.777 47.4403C217.57 46.9517 217.466 46.3864 217.466 45.7443C217.466 45.0966 217.569 44.517 217.773 44.0057C217.978 43.4943 218.269 43.0909 218.647 42.7955C219.025 42.5 219.472 42.3523 219.989 42.3523C220.341 42.3523 220.662 42.4247 220.952 42.5696C221.242 42.7116 221.493 42.9162 221.706 43.1832C221.919 43.4474 222.086 43.7614 222.205 44.125H222.239V42.4545H222.512V49.1364C222.512 49.6733 222.414 50.1236 222.218 50.4872C222.022 50.8537 221.742 51.1293 221.378 51.3139C221.015 51.4986 220.58 51.5909 220.074 51.5909ZM219.989 48.7273C220.444 48.7273 220.838 48.6065 221.174 48.3651C221.512 48.1236 221.773 47.7798 221.958 47.3338C222.145 46.8849 222.239 46.3551 222.239 45.7443C222.239 45.1534 222.148 44.6236 221.966 44.1548C221.784 43.6832 221.525 43.3111 221.186 43.0384C220.851 42.7628 220.452 42.625 219.989 42.625C219.526 42.625 219.125 42.7628 218.787 43.0384C218.452 43.3111 218.194 43.6832 218.012 44.1548C217.83 44.6236 217.739 45.1534 217.739 45.7443C217.739 46.3352 217.83 46.8551 218.012 47.304C218.196 47.75 218.456 48.0994 218.792 48.3523C219.13 48.6023 219.529 48.7273 219.989 48.7273ZM227.184 49.1364C226.67 49.1364 226.208 48.9886 225.799 48.6932C225.39 48.3949 225.066 47.9901 224.828 47.4787C224.592 46.9645 224.474 46.3864 224.474 45.7443C224.474 45.0994 224.592 44.5213 224.828 44.0099C225.066 43.4986 225.39 43.0952 225.799 42.7997C226.208 42.5014 226.67 42.3523 227.184 42.3523C227.699 42.3523 228.159 42.5014 228.565 42.7997C228.974 43.098 229.298 43.5028 229.537 44.0142C229.775 44.5256 229.895 45.1023 229.895 45.7443C229.895 46.3864 229.775 46.9645 229.537 47.4787C229.301 47.9901 228.978 48.3949 228.569 48.6932C228.16 48.9886 227.699 49.1364 227.184 49.1364ZM227.184 48.8636C227.647 48.8636 228.062 48.7273 228.429 48.4545C228.798 48.1818 229.089 47.8097 229.302 47.3381C229.515 46.8665 229.622 46.3352 229.622 45.7443C229.622 45.1534 229.514 44.6236 229.298 44.1548C229.085 43.6832 228.795 43.3111 228.429 43.0384C228.062 42.7628 227.647 42.625 227.184 42.625C226.724 42.625 226.309 42.7628 225.94 43.0384C225.574 43.3111 225.282 43.6832 225.066 44.1548C224.853 44.6236 224.747 45.1534 224.747 45.7443C224.747 46.3352 224.853 46.8665 225.066 47.3381C225.279 47.8097 225.569 48.1818 225.936 48.4545C226.305 48.7273 226.721 48.8636 227.184 48.8636Z" fill="black"/>
<g filter="url(#filter0_d_262_2)">
<rect x="66" y="97" width="303" height="145" fill="white"/>
<rect x="66.1" y="97.1" width="302.8" height="144.8" stroke="black" stroke-width="0.2"/>
</g>
<rect x="301" y="209" width="58" height="23" fill="#D9D9D9"/>
<rect x="75.1" y="122.1" width="207.8" height="22.8" fill="white" stroke="black" stroke-width="0.2"/>
<path d="M103.295 129.364V133H103.182L100.696 129.577H100.682V133H100.568V129.364H100.682L103.168 132.787H103.182V129.364H103.295ZM105.027 133.057C104.878 133.057 104.74 133.026 104.613 132.964C104.488 132.903 104.387 132.813 104.31 132.695C104.234 132.576 104.196 132.432 104.196 132.261C104.196 132.169 104.211 132.083 104.241 132.002C104.27 131.92 104.322 131.846 104.397 131.78C104.471 131.714 104.575 131.657 104.709 131.61C104.844 131.562 105.016 131.526 105.226 131.501C105.351 131.487 105.47 131.471 105.581 131.452C105.692 131.433 105.783 131.404 105.853 131.366C105.923 131.329 105.957 131.274 105.957 131.203V131.04C105.957 130.83 105.887 130.662 105.746 130.536C105.605 130.408 105.418 130.344 105.183 130.344C104.992 130.344 104.824 130.386 104.681 130.472C104.538 130.556 104.438 130.674 104.381 130.827L104.274 130.784C104.317 130.67 104.383 130.572 104.471 130.489C104.56 130.406 104.665 130.343 104.787 130.298C104.909 130.253 105.041 130.23 105.183 130.23C105.322 130.23 105.446 130.251 105.554 130.292C105.665 130.333 105.758 130.389 105.835 130.463C105.912 130.535 105.97 130.62 106.011 130.718C106.051 130.817 106.071 130.924 106.071 131.04V133H105.957V132.446H105.943C105.886 132.569 105.812 132.677 105.721 132.769C105.631 132.86 105.527 132.931 105.409 132.982C105.292 133.032 105.164 133.057 105.027 133.057ZM105.027 132.943C105.2 132.943 105.357 132.897 105.498 132.805C105.638 132.711 105.75 132.582 105.833 132.416C105.916 132.249 105.957 132.055 105.957 131.835V131.423C105.924 131.448 105.884 131.47 105.837 131.489C105.791 131.508 105.738 131.525 105.679 131.54C105.621 131.555 105.557 131.567 105.489 131.578C105.42 131.588 105.347 131.598 105.269 131.608C105.025 131.636 104.833 131.68 104.693 131.738C104.554 131.796 104.455 131.868 104.397 131.956C104.339 132.044 104.31 132.145 104.31 132.261C104.31 132.467 104.378 132.632 104.516 132.757C104.654 132.881 104.825 132.943 105.027 132.943ZM107.05 133V130.273H107.164V130.678H107.178C107.228 130.545 107.317 130.438 107.445 130.358C107.574 130.277 107.729 130.237 107.91 130.237C108.116 130.237 108.28 130.288 108.402 130.39C108.525 130.492 108.609 130.628 108.655 130.798H108.67C108.715 130.628 108.806 130.492 108.943 130.39C109.08 130.288 109.252 130.237 109.458 130.237C109.731 130.237 109.933 130.324 110.063 130.498C110.195 130.671 110.261 130.894 110.261 131.168V133H110.147V131.168C110.147 130.926 110.092 130.73 109.984 130.578C109.875 130.427 109.699 130.351 109.458 130.351C109.217 130.351 109.032 130.428 108.904 130.582C108.776 130.734 108.712 130.93 108.712 131.168V133H108.599V131.168C108.599 130.926 108.544 130.73 108.435 130.578C108.326 130.427 108.151 130.351 107.91 130.351C107.749 130.351 107.613 130.386 107.501 130.456C107.391 130.525 107.307 130.622 107.249 130.745C107.192 130.868 107.164 131.009 107.164 131.168V133H107.05ZM112.248 133.057C112.01 133.057 111.802 132.995 111.623 132.87C111.445 132.746 111.307 132.577 111.209 132.364C111.111 132.151 111.062 131.911 111.062 131.643C111.062 131.376 111.111 131.136 111.209 130.923C111.309 130.71 111.444 130.541 111.614 130.417C111.784 130.292 111.977 130.23 112.191 130.23C112.35 130.23 112.496 130.264 112.631 130.331C112.768 130.399 112.886 130.492 112.987 130.612C113.087 130.731 113.165 130.869 113.221 131.026C113.278 131.181 113.306 131.346 113.306 131.523V131.636H111.119V131.523H113.192C113.192 131.304 113.147 131.105 113.058 130.928C112.968 130.749 112.847 130.607 112.695 130.502C112.544 130.396 112.376 130.344 112.191 130.344C112.004 130.344 111.835 130.399 111.683 130.511C111.532 130.622 111.41 130.773 111.319 130.965C111.228 131.157 111.18 131.374 111.175 131.615V131.629C111.175 131.867 111.217 132.086 111.3 132.286C111.384 132.485 111.506 132.644 111.665 132.764C111.825 132.883 112.019 132.943 112.248 132.943C112.416 132.943 112.557 132.914 112.67 132.854C112.785 132.795 112.877 132.727 112.946 132.65C113.016 132.573 113.067 132.508 113.1 132.453L113.192 132.517C113.152 132.586 113.092 132.662 113.011 132.746C112.931 132.83 112.828 132.903 112.702 132.964C112.577 133.026 112.425 133.057 112.248 133.057Z" fill="black"/>
<path d="M262.483 134.023V130.273H262.597V130.969H262.611C262.661 130.817 262.73 130.686 262.819 130.576C262.907 130.466 263.012 130.381 263.133 130.321C263.255 130.26 263.388 130.23 263.534 130.23C263.75 130.23 263.935 130.292 264.092 130.417C264.249 130.54 264.37 130.708 264.456 130.921C264.542 131.134 264.585 131.375 264.585 131.643C264.585 131.911 264.542 132.151 264.456 132.364C264.369 132.577 264.247 132.746 264.09 132.87C263.932 132.995 263.747 133.057 263.534 133.057C263.39 133.057 263.257 133.027 263.135 132.968C263.013 132.908 262.907 132.822 262.817 132.712C262.727 132.601 262.658 132.47 262.611 132.318H262.597V134.023H262.483ZM262.597 131.643C262.597 131.89 262.634 132.111 262.71 132.308C262.787 132.503 262.895 132.658 263.035 132.773C263.176 132.886 263.342 132.943 263.534 132.943C263.726 132.943 263.892 132.886 264.031 132.773C264.172 132.658 264.28 132.503 264.356 132.308C264.433 132.111 264.472 131.89 264.472 131.643C264.472 131.397 264.434 131.176 264.358 130.981C264.282 130.785 264.174 130.63 264.033 130.516C263.893 130.401 263.727 130.344 263.534 130.344C263.341 130.344 263.174 130.401 263.033 130.516C262.894 130.63 262.786 130.785 262.71 130.981C262.634 131.176 262.597 131.397 262.597 131.643ZM265.388 133V130.273H265.502V130.706H265.516C265.58 130.564 265.685 130.45 265.83 130.365C265.977 130.28 266.145 130.237 266.333 130.237C266.347 130.237 266.357 130.237 266.361 130.237C266.366 130.237 266.375 130.237 266.39 130.237V130.351C266.375 130.351 266.366 130.351 266.361 130.351C266.357 130.351 266.347 130.351 266.333 130.351C266.172 130.351 266.029 130.386 265.903 130.456C265.779 130.525 265.681 130.622 265.608 130.745C265.537 130.868 265.502 131.009 265.502 131.168V133H265.388ZM267.028 133V130.273H267.142V133H267.028ZM267.085 129.776C267.054 129.776 267.028 129.764 267.005 129.742C266.983 129.719 266.972 129.693 266.972 129.662C266.972 129.631 266.983 129.605 267.005 129.582C267.028 129.56 267.054 129.548 267.085 129.548C267.116 129.548 267.143 129.56 267.165 129.582C267.188 129.605 267.199 129.631 267.199 129.662C267.199 129.693 267.188 129.719 267.165 129.742C267.143 129.764 267.116 129.776 267.085 129.776ZM269.103 133.057C268.883 133.057 268.686 132.995 268.513 132.872C268.342 132.748 268.206 132.579 268.107 132.366C268.008 132.153 267.959 131.912 267.959 131.643C267.959 131.377 268.008 131.137 268.107 130.924C268.205 130.71 268.34 130.541 268.511 130.417C268.684 130.292 268.881 130.23 269.103 130.23C269.266 130.23 269.416 130.266 269.552 130.337C269.689 130.406 269.804 130.505 269.896 130.631C269.989 130.757 270.049 130.902 270.076 131.068H269.955C269.918 130.854 269.821 130.68 269.662 130.546C269.505 130.411 269.318 130.344 269.103 130.344C268.907 130.344 268.732 130.401 268.575 130.514C268.42 130.627 268.298 130.781 268.208 130.978C268.118 131.173 268.073 131.395 268.073 131.643C268.073 131.885 268.116 132.104 268.203 132.3C268.29 132.497 268.411 132.653 268.566 132.769C268.722 132.885 268.9 132.943 269.103 132.943C269.248 132.943 269.382 132.913 269.504 132.853C269.626 132.791 269.727 132.705 269.808 132.593C269.889 132.482 269.941 132.353 269.962 132.205H270.083C270.057 132.376 269.998 132.526 269.905 132.654C269.813 132.782 269.698 132.881 269.559 132.952C269.421 133.022 269.268 133.057 269.103 133.057ZM271.909 133.057C271.671 133.057 271.463 132.995 271.284 132.87C271.106 132.746 270.969 132.577 270.87 132.364C270.772 132.151 270.723 131.911 270.723 131.643C270.723 131.376 270.772 131.136 270.87 130.923C270.97 130.71 271.105 130.541 271.275 130.417C271.446 130.292 271.638 130.23 271.852 130.23C272.011 130.23 272.158 130.264 272.293 130.331C272.429 130.399 272.547 130.492 272.648 130.612C272.748 130.731 272.826 130.869 272.882 131.026C272.939 131.181 272.967 131.346 272.967 131.523V131.636H270.78V131.523H272.854C272.854 131.304 272.809 131.105 272.719 130.928C272.629 130.749 272.508 130.607 272.356 130.502C272.205 130.396 272.037 130.344 271.852 130.344C271.665 130.344 271.496 130.399 271.344 130.511C271.193 130.622 271.072 130.773 270.98 130.965C270.889 131.157 270.841 131.374 270.837 131.615V131.629C270.837 131.867 270.878 132.086 270.961 132.286C271.045 132.485 271.167 132.644 271.327 132.764C271.486 132.883 271.681 132.943 271.909 132.943C272.077 132.943 272.218 132.914 272.332 132.854C272.446 132.795 272.538 132.727 272.607 132.65C272.677 132.573 272.728 132.508 272.761 132.453L272.854 132.517C272.813 132.586 272.753 132.662 272.672 132.746C272.592 132.83 272.489 132.903 272.364 132.964C272.238 133.026 272.087 133.057 271.909 133.057Z" fill="black"/>
<path d="M310.514 121.273C310.496 121.024 310.401 120.82 310.228 120.66C310.057 120.5 309.83 120.42 309.548 120.42C309.364 120.42 309.199 120.456 309.053 120.527C308.907 120.598 308.792 120.696 308.708 120.82C308.624 120.943 308.582 121.085 308.582 121.244C308.582 121.337 308.598 121.422 308.629 121.5C308.659 121.578 308.706 121.65 308.769 121.715C308.833 121.779 308.913 121.837 309.009 121.889C309.106 121.94 309.219 121.985 309.349 122.026L309.761 122.153C309.919 122.202 310.055 122.256 310.17 122.317C310.285 122.377 310.379 122.445 310.454 122.521C310.53 122.596 310.586 122.679 310.623 122.771C310.659 122.862 310.678 122.964 310.678 123.077C310.678 123.266 310.629 123.435 310.532 123.583C310.435 123.731 310.299 123.847 310.125 123.931C309.951 124.015 309.75 124.057 309.52 124.057C309.299 124.057 309.105 124.018 308.939 123.941C308.774 123.863 308.642 123.756 308.545 123.62C308.449 123.483 308.395 123.325 308.384 123.148H308.497C308.509 123.304 308.558 123.442 308.645 123.561C308.731 123.681 308.848 123.775 308.996 123.842C309.145 123.909 309.32 123.943 309.52 123.943C309.728 123.943 309.911 123.907 310.067 123.835C310.224 123.761 310.346 123.66 310.433 123.529C310.52 123.399 310.564 123.248 310.564 123.077C310.564 122.946 310.536 122.832 310.479 122.734C310.422 122.635 310.333 122.547 310.211 122.471C310.089 122.395 309.929 122.327 309.733 122.267L309.321 122.139C309.036 122.049 308.822 121.93 308.68 121.782C308.539 121.634 308.469 121.455 308.469 121.244C308.469 121.066 308.516 120.906 308.609 120.765C308.703 120.623 308.83 120.511 308.993 120.429C309.156 120.348 309.341 120.307 309.548 120.307C309.757 120.307 309.94 120.348 310.097 120.431C310.254 120.514 310.379 120.628 310.472 120.774C310.564 120.919 310.616 121.086 310.628 121.273H310.514ZM311.658 122.168V124H311.544V120.364H311.658V121.706H311.672C311.736 121.564 311.841 121.45 311.987 121.365C312.133 121.28 312.301 121.237 312.489 121.237C312.671 121.237 312.832 121.277 312.972 121.356C313.112 121.435 313.221 121.545 313.301 121.685C313.38 121.824 313.419 121.985 313.419 122.168V124H313.306V122.168C313.306 121.926 313.23 121.73 313.079 121.578C312.927 121.427 312.731 121.351 312.489 121.351C312.328 121.351 312.185 121.386 312.059 121.456C311.935 121.525 311.837 121.622 311.765 121.745C311.694 121.868 311.658 122.009 311.658 122.168ZM314.4 124V121.273H314.514V124H314.4ZM314.457 120.776C314.427 120.776 314.4 120.764 314.377 120.742C314.355 120.719 314.344 120.693 314.344 120.662C314.344 120.631 314.355 120.605 314.377 120.582C314.4 120.56 314.427 120.548 314.457 120.548C314.488 120.548 314.515 120.56 314.537 120.582C314.56 120.605 314.571 120.631 314.571 120.662C314.571 120.693 314.56 120.719 314.537 120.742C314.515 120.764 314.488 120.776 314.457 120.776ZM315.495 125.023V121.273H315.608V121.969H315.623C315.672 121.817 315.741 121.686 315.83 121.576C315.919 121.466 316.024 121.381 316.145 121.321C316.266 121.26 316.4 121.23 316.546 121.23C316.761 121.23 316.947 121.292 317.103 121.417C317.261 121.54 317.382 121.708 317.467 121.921C317.554 122.134 317.597 122.375 317.597 122.643C317.597 122.911 317.554 123.151 317.467 123.364C317.381 123.577 317.259 123.746 317.102 123.87C316.944 123.995 316.759 124.057 316.546 124.057C316.401 124.057 316.268 124.027 316.146 123.968C316.024 123.908 315.918 123.822 315.828 123.712C315.739 123.601 315.67 123.47 315.623 123.318H315.608V125.023H315.495ZM315.608 122.643C315.608 122.89 315.646 123.111 315.722 123.308C315.799 123.503 315.907 123.658 316.047 123.773C316.188 123.886 316.354 123.943 316.546 123.943C316.738 123.943 316.903 123.886 317.043 123.773C317.184 123.658 317.292 123.503 317.368 123.308C317.445 123.111 317.483 122.89 317.483 122.643C317.483 122.397 317.445 122.176 317.37 121.981C317.294 121.785 317.186 121.63 317.045 121.516C316.905 121.401 316.739 121.344 316.546 121.344C316.353 121.344 316.186 121.401 316.045 121.516C315.905 121.63 315.798 121.785 315.722 121.981C315.646 122.176 315.608 122.397 315.608 122.643ZM318.4 125.023V121.273H318.514V121.969H318.528C318.578 121.817 318.647 121.686 318.736 121.576C318.824 121.466 318.929 121.381 319.05 121.321C319.172 121.26 319.305 121.23 319.451 121.23C319.667 121.23 319.852 121.292 320.009 121.417C320.166 121.54 320.287 121.708 320.373 121.921C320.459 122.134 320.502 122.375 320.502 122.643C320.502 122.911 320.459 123.151 320.373 123.364C320.286 123.577 320.164 123.746 320.007 123.87C319.849 123.995 319.664 124.057 319.451 124.057C319.307 124.057 319.174 124.027 319.052 123.968C318.93 123.908 318.824 123.822 318.734 123.712C318.644 123.601 318.575 123.47 318.528 123.318H318.514V125.023H318.4ZM318.514 122.643C318.514 122.89 318.551 123.111 318.627 123.308C318.704 123.503 318.812 123.658 318.952 123.773C319.093 123.886 319.259 123.943 319.451 123.943C319.643 123.943 319.809 123.886 319.948 123.773C320.089 123.658 320.197 123.503 320.273 123.308C320.35 123.111 320.389 122.89 320.389 122.643C320.389 122.397 320.351 122.176 320.275 121.981C320.199 121.785 320.091 121.63 319.95 121.516C319.81 121.401 319.644 121.344 319.451 121.344C319.258 121.344 319.091 121.401 318.95 121.516C318.811 121.63 318.703 121.785 318.627 121.981C318.551 122.176 318.514 122.397 318.514 122.643ZM321.319 124V121.273H321.433V124H321.319ZM321.376 120.776C321.345 120.776 321.319 120.764 321.296 120.742C321.274 120.719 321.263 120.693 321.263 120.662C321.263 120.631 321.274 120.605 321.296 120.582C321.319 120.56 321.345 120.548 321.376 120.548C321.407 120.548 321.434 120.56 321.456 120.582C321.479 120.605 321.49 120.631 321.49 120.662C321.49 120.693 321.479 120.719 321.456 120.742C321.434 120.764 321.407 120.776 321.376 120.776ZM322.527 122.168V124H322.414V121.273H322.527V121.706H322.541C322.605 121.564 322.71 121.45 322.856 121.365C323.003 121.28 323.17 121.237 323.358 121.237C323.541 121.237 323.701 121.277 323.841 121.356C323.981 121.435 324.09 121.545 324.17 121.685C324.249 121.824 324.289 121.985 324.289 122.168V124H324.175V122.168C324.175 121.926 324.099 121.73 323.948 121.578C323.796 121.427 323.6 121.351 323.358 121.351C323.197 121.351 323.054 121.386 322.929 121.456C322.804 121.525 322.706 121.622 322.634 121.745C322.563 121.868 322.527 122.009 322.527 122.168ZM326.179 125.08C326.026 125.08 325.885 125.059 325.756 125.017C325.627 124.977 325.516 124.916 325.422 124.835C325.329 124.754 325.259 124.653 325.213 124.533L325.319 124.49C325.361 124.597 325.422 124.685 325.504 124.755C325.587 124.826 325.686 124.878 325.801 124.913C325.917 124.948 326.043 124.966 326.179 124.966C326.463 124.966 326.684 124.891 326.843 124.74C327.001 124.591 327.081 124.363 327.081 124.057V123.318H327.066C327.019 123.47 326.949 123.596 326.855 123.698C326.762 123.799 326.653 123.875 326.53 123.925C326.407 123.975 326.278 124 326.143 124C325.93 124 325.745 123.943 325.587 123.828C325.43 123.713 325.308 123.554 325.222 123.35C325.135 123.147 325.092 122.911 325.092 122.643C325.092 122.374 325.135 122.132 325.22 121.919C325.305 121.706 325.426 121.538 325.584 121.415C325.741 121.292 325.928 121.23 326.143 121.23C326.29 121.23 326.424 121.26 326.544 121.321C326.665 121.38 326.77 121.465 326.859 121.576C326.948 121.686 327.017 121.817 327.066 121.969H327.081V121.273H327.194V124.057C327.194 124.281 327.153 124.468 327.072 124.62C326.99 124.772 326.874 124.887 326.722 124.964C326.571 125.041 326.389 125.08 326.179 125.08ZM326.143 123.886C326.333 123.886 326.497 123.836 326.637 123.735C326.778 123.635 326.887 123.492 326.964 123.306C327.042 123.119 327.081 122.898 327.081 122.643C327.081 122.397 327.043 122.176 326.967 121.981C326.891 121.785 326.783 121.63 326.642 121.516C326.502 121.401 326.336 121.344 326.143 121.344C325.95 121.344 325.783 121.401 325.642 121.516C325.503 121.63 325.395 121.785 325.319 121.981C325.244 122.176 325.206 122.397 325.206 122.643C325.206 122.89 325.244 123.106 325.319 123.293C325.396 123.479 325.505 123.625 325.644 123.73C325.785 123.834 325.951 123.886 326.143 123.886Z" fill="black"/>
<path d="M310.514 147.273C310.496 147.024 310.401 146.82 310.228 146.66C310.057 146.5 309.83 146.42 309.548 146.42C309.364 146.42 309.199 146.456 309.053 146.527C308.907 146.598 308.792 146.696 308.708 146.82C308.624 146.943 308.582 147.085 308.582 147.244C308.582 147.337 308.598 147.422 308.629 147.5C308.659 147.578 308.706 147.65 308.769 147.715C308.833 147.779 308.913 147.837 309.009 147.889C309.106 147.94 309.219 147.985 309.349 148.026L309.761 148.153C309.919 148.202 310.055 148.256 310.17 148.317C310.285 148.377 310.379 148.445 310.454 148.521C310.53 148.596 310.586 148.679 310.623 148.771C310.659 148.862 310.678 148.964 310.678 149.077C310.678 149.266 310.629 149.435 310.532 149.583C310.435 149.731 310.299 149.847 310.125 149.931C309.951 150.015 309.75 150.057 309.52 150.057C309.299 150.057 309.105 150.018 308.939 149.941C308.774 149.863 308.642 149.756 308.545 149.62C308.449 149.483 308.395 149.325 308.384 149.148H308.497C308.509 149.304 308.558 149.442 308.645 149.561C308.731 149.681 308.848 149.775 308.996 149.842C309.145 149.909 309.32 149.943 309.52 149.943C309.728 149.943 309.911 149.907 310.067 149.835C310.224 149.761 310.346 149.66 310.433 149.529C310.52 149.399 310.564 149.248 310.564 149.077C310.564 148.946 310.536 148.832 310.479 148.734C310.422 148.635 310.333 148.547 310.211 148.471C310.089 148.395 309.929 148.327 309.733 148.267L309.321 148.139C309.036 148.049 308.822 147.93 308.68 147.782C308.539 147.634 308.469 147.455 308.469 147.244C308.469 147.066 308.516 146.906 308.609 146.765C308.703 146.623 308.83 146.511 308.993 146.429C309.156 146.348 309.341 146.307 309.548 146.307C309.757 146.307 309.94 146.348 310.097 146.431C310.254 146.514 310.379 146.628 310.472 146.774C310.564 146.919 310.616 147.086 310.628 147.273H310.514ZM311.658 148.168V150H311.544V146.364H311.658V147.706H311.672C311.736 147.564 311.841 147.45 311.987 147.365C312.133 147.28 312.301 147.237 312.489 147.237C312.671 147.237 312.832 147.277 312.972 147.356C313.112 147.435 313.221 147.545 313.301 147.685C313.38 147.824 313.419 147.985 313.419 148.168V150H313.306V148.168C313.306 147.926 313.23 147.73 313.079 147.578C312.927 147.427 312.731 147.351 312.489 147.351C312.328 147.351 312.185 147.386 312.059 147.456C311.935 147.525 311.837 147.622 311.765 147.745C311.694 147.868 311.658 148.009 311.658 148.168ZM314.4 150V147.273H314.514V150H314.4ZM314.457 146.776C314.427 146.776 314.4 146.764 314.377 146.742C314.355 146.719 314.344 146.693 314.344 146.662C314.344 146.631 314.355 146.605 314.377 146.582C314.4 146.56 314.427 146.548 314.457 146.548C314.488 146.548 314.515 146.56 314.537 146.582C314.56 146.605 314.571 146.631 314.571 146.662C314.571 146.693 314.56 146.719 314.537 146.742C314.515 146.764 314.488 146.776 314.457 146.776ZM315.495 151.023V147.273H315.608V147.969H315.623C315.672 147.817 315.741 147.686 315.83 147.576C315.919 147.466 316.024 147.381 316.145 147.321C316.266 147.26 316.4 147.23 316.546 147.23C316.761 147.23 316.947 147.292 317.103 147.417C317.261 147.54 317.382 147.708 317.467 147.921C317.554 148.134 317.597 148.375 317.597 148.643C317.597 148.911 317.554 149.151 317.467 149.364C317.381 149.577 317.259 149.746 317.102 149.87C316.944 149.995 316.759 150.057 316.546 150.057C316.401 150.057 316.268 150.027 316.146 149.968C316.024 149.908 315.918 149.822 315.828 149.712C315.739 149.601 315.67 149.47 315.623 149.318H315.608V151.023H315.495ZM315.608 148.643C315.608 148.89 315.646 149.111 315.722 149.308C315.799 149.503 315.907 149.658 316.047 149.773C316.188 149.886 316.354 149.943 316.546 149.943C316.738 149.943 316.903 149.886 317.043 149.773C317.184 149.658 317.292 149.503 317.368 149.308C317.445 149.111 317.483 148.89 317.483 148.643C317.483 148.397 317.445 148.176 317.37 147.981C317.294 147.785 317.186 147.63 317.045 147.516C316.905 147.401 316.739 147.344 316.546 147.344C316.353 147.344 316.186 147.401 316.045 147.516C315.905 147.63 315.798 147.785 315.722 147.981C315.646 148.176 315.608 148.397 315.608 148.643ZM318.4 151.023V147.273H318.514V147.969H318.528C318.578 147.817 318.647 147.686 318.736 147.576C318.824 147.466 318.929 147.381 319.05 147.321C319.172 147.26 319.305 147.23 319.451 147.23C319.667 147.23 319.852 147.292 320.009 147.417C320.166 147.54 320.287 147.708 320.373 147.921C320.459 148.134 320.502 148.375 320.502 148.643C320.502 148.911 320.459 149.151 320.373 149.364C320.286 149.577 320.164 149.746 320.007 149.87C319.849 149.995 319.664 150.057 319.451 150.057C319.307 150.057 319.174 150.027 319.052 149.968C318.93 149.908 318.824 149.822 318.734 149.712C318.644 149.601 318.575 149.47 318.528 149.318H318.514V151.023H318.4ZM318.514 148.643C318.514 148.89 318.551 149.111 318.627 149.308C318.704 149.503 318.812 149.658 318.952 149.773C319.093 149.886 319.259 149.943 319.451 149.943C319.643 149.943 319.809 149.886 319.948 149.773C320.089 149.658 320.197 149.503 320.273 149.308C320.35 149.111 320.389 148.89 320.389 148.643C320.389 148.397 320.351 148.176 320.275 147.981C320.199 147.785 320.091 147.63 319.95 147.516C319.81 147.401 319.644 147.344 319.451 147.344C319.258 147.344 319.091 147.401 318.95 147.516C318.811 147.63 318.703 147.785 318.627 147.981C318.551 148.176 318.514 148.397 318.514 148.643ZM321.319 150V147.273H321.433V150H321.319ZM321.376 146.776C321.345 146.776 321.319 146.764 321.296 146.742C321.274 146.719 321.263 146.693 321.263 146.662C321.263 146.631 321.274 146.605 321.296 146.582C321.319 146.56 321.345 146.548 321.376 146.548C321.407 146.548 321.434 146.56 321.456 146.582C321.479 146.605 321.49 146.631 321.49 146.662C321.49 146.693 321.479 146.719 321.456 146.742C321.434 146.764 321.407 146.776 321.376 146.776ZM322.527 148.168V150H322.414V147.273H322.527V147.706H322.541C322.605 147.564 322.71 147.45 322.856 147.365C323.003 147.28 323.17 147.237 323.358 147.237C323.541 147.237 323.701 147.277 323.841 147.356C323.981 147.435 324.09 147.545 324.17 147.685C324.249 147.824 324.289 147.985 324.289 148.168V150H324.175V148.168C324.175 147.926 324.099 147.73 323.948 147.578C323.796 147.427 323.6 147.351 323.358 147.351C323.197 147.351 323.054 147.386 322.929 147.456C322.804 147.525 322.706 147.622 322.634 147.745C322.563 147.868 322.527 148.009 322.527 148.168ZM326.179 151.08C326.026 151.08 325.885 151.059 325.756 151.017C325.627 150.977 325.516 150.916 325.422 150.835C325.329 150.754 325.259 150.653 325.213 150.533L325.319 150.49C325.361 150.597 325.422 150.685 325.504 150.755C325.587 150.826 325.686 150.878 325.801 150.913C325.917 150.948 326.043 150.966 326.179 150.966C326.463 150.966 326.684 150.891 326.843 150.74C327.001 150.591 327.081 150.363 327.081 150.057V149.318H327.066C327.019 149.47 326.949 149.596 326.855 149.698C326.762 149.799 326.653 149.875 326.53 149.925C326.407 149.975 326.278 150 326.143 150C325.93 150 325.745 149.943 325.587 149.828C325.43 149.713 325.308 149.554 325.222 149.35C325.135 149.147 325.092 148.911 325.092 148.643C325.092 148.374 325.135 148.132 325.22 147.919C325.305 147.706 325.426 147.538 325.584 147.415C325.741 147.292 325.928 147.23 326.143 147.23C326.29 147.23 326.424 147.26 326.544 147.321C326.665 147.38 326.77 147.465 326.859 147.576C326.948 147.686 327.017 147.817 327.066 147.969H327.081V147.273H327.194V150.057C327.194 150.281 327.153 150.468 327.072 150.62C326.99 150.772 326.874 150.887 326.722 150.964C326.571 151.041 326.389 151.08 326.179 151.08ZM326.143 149.886C326.333 149.886 326.497 149.836 326.637 149.735C326.778 149.635 326.887 149.492 326.964 149.306C327.042 149.119 327.081 148.898 327.081 148.643C327.081 148.397 327.043 148.176 326.967 147.981C326.891 147.785 326.783 147.63 326.642 147.516C326.502 147.401 326.336 147.344 326.143 147.344C325.95 147.344 325.783 147.401 325.642 147.516C325.503 147.63 325.395 147.785 325.319 147.981C325.244 148.176 325.206 148.397 325.206 148.643C325.206 148.89 325.244 149.106 325.319 149.293C325.396 149.479 325.505 149.625 325.644 149.73C325.785 149.834 325.951 149.886 326.143 149.886Z" fill="black"/>
<path d="M325.568 223V219.364H326.705C326.908 219.364 327.082 219.401 327.227 219.475C327.372 219.549 327.483 219.655 327.56 219.793C327.638 219.931 327.678 220.095 327.678 220.287C327.678 220.429 327.656 220.56 327.612 220.679C327.569 220.799 327.507 220.9 327.424 220.981C327.341 221.062 327.241 221.117 327.124 221.146V221.161C327.255 221.171 327.373 221.217 327.479 221.297C327.584 221.378 327.667 221.484 327.727 221.617C327.789 221.749 327.82 221.9 327.82 222.07C327.82 222.257 327.78 222.42 327.701 222.56C327.623 222.699 327.509 222.808 327.36 222.885C327.212 222.962 327.034 223 326.825 223H325.568ZM325.682 222.886H326.825C327.092 222.886 327.305 222.812 327.464 222.663C327.625 222.512 327.706 222.315 327.706 222.07C327.706 221.902 327.668 221.753 327.592 221.624C327.517 221.495 327.412 221.394 327.28 221.32C327.148 221.247 326.997 221.21 326.825 221.21H325.682V222.886ZM325.682 221.097H326.825C326.991 221.097 327.128 221.059 327.237 220.985C327.346 220.91 327.428 220.811 327.482 220.688C327.537 220.565 327.564 220.431 327.564 220.287C327.564 220.029 327.487 219.829 327.333 219.689C327.179 219.548 326.97 219.477 326.705 219.477H325.682V221.097ZM331.271 219.364H331.385V221.771C331.385 222.018 331.328 222.238 331.213 222.432C331.099 222.625 330.944 222.777 330.748 222.89C330.551 223.001 330.328 223.057 330.078 223.057C329.831 223.057 329.608 223.001 329.411 222.888C329.213 222.776 329.057 222.623 328.942 222.43C328.827 222.236 328.77 222.016 328.771 221.771V219.364H328.885V221.771C328.885 221.996 328.936 222.197 329.039 222.373C329.144 222.55 329.286 222.689 329.466 222.79C329.645 222.892 329.85 222.943 330.078 222.943C330.307 222.943 330.511 222.892 330.691 222.79C330.871 222.689 331.012 222.55 331.115 222.373C331.219 222.197 331.271 221.996 331.271 221.771V219.364ZM332.124 219.364H332.266L333.48 221.146H333.494L334.709 219.364H334.851L333.544 221.274V223H333.43V221.274L332.124 219.364Z" fill="black"/>
<rect x="77" y="125" width="19" height="18" fill="#D9D9D9"/>
<line x1="76.9312" y1="142.927" x2="95.9312" y2="124.927" stroke="black" stroke-width="0.2"/>
<line x1="77.0667" y1="125.925" x2="96.0667" y2="142.925" stroke="black" stroke-width="0.2"/>
<rect x="305" y="130" width="52" height="9" rx="4.5" fill="#D9D9D9"/>
<rect x="305" y="156" width="52" height="9" fill="#D9D9D9"/>
<rect x="44.5" y="26.5" width="344" height="237" stroke="black"/>
<defs>
<filter id="filter0_d_262_2" x="62" y="97" width="311" height="153" filterUnits="userSpaceOnUse" color-interpolation-filters="sRGB">
<feFlood flood-opacity="0" result="BackgroundImageFix"/>
<feColorMatrix in="SourceAlpha" type="matrix" values="0 0 0 0 0 0 0 0 0 0 0 0 0 0 0 0 0 0 127 0" result="hardAlpha"/>
<feOffset dy="4"/>
<feGaussianBlur stdDeviation="2"/>
<feComposite in2="hardAlpha" operator="out"/>
<feColorMatrix type="matrix" values="0 0 0 0 0 0 0 0 0 0 0 0 0 0 0 0 0 0 0.25 0"/>
<feBlend mode="normal" in2="BackgroundImageFix" result="effect1_dropShadow_262_2"/>
<feBlend mode="normal" in="SourceGraphic" in2="effect1_dropShadow_262_2" result="shape"/>
</filter>
</defs>
</svg>
