<svg version="1.2" xmlns="http://www.w3.org/2000/svg" viewBox="0 0 800 800" width="800" height="800">
	<title>13697-ai</title>
	<style>
		.s0 { fill: #ffffff } 
		.s1 { fill: #cccccc } 
	</style>
	<g id="Layer 1">
		<g id="Layer 2">
			<g id="Layer 3">
				<g id="Layer 4">
				</g>
				<g id="Layer 5">
				</g>
			</g>
		</g>
		<g id="&lt;Group&gt;">
			<path id="&lt;Path&gt;" class="s0" d="m800 800h-800v-800h800z"/>
			<g id="&lt;Group&gt;">
				<path id="&lt;Path&gt;" class="s1" d="m799.9 7.8l-15.5-7.8h-20.3v0.1l35.8 17.9z"/>
				<path id="&lt;Path&gt;" class="s1" d="m733.3 0h-20.4l-15.5 7.8v10.2l35.9-17.9z"/>
				<path id="&lt;Path&gt;" class="s1" d="m774.3 56.4l-10.2-5.1v35.9l35.8 18v-10.3l-20.5-10.2 20.6-10.3v-10.3l-25.7 12.9z"/>
				<path id="&lt;Path&gt;" class="s1" d="m784.6 61.6l15.4-7.8v-10.2l-15.4 7.7z"/>
				<path id="&lt;Path&gt;" class="s1" d="m753.8 5.2v-5.2h-10.3v5.2l-56.4 28.2v-20.5l-10.2-5.1v35.8l35.8 18v-10.3l-20.5-10.2 56.4-28.2 51.4 25.7v-10.3z"/>
				<path id="&lt;Path&gt;" class="s1" d="m800 84.7v-0.1l-0.1 0.1z"/>
				<path id="&lt;Path&gt;" class="s1" d="m753.8 35.9l20.5 10.3 10.3-5.1-36-18-35.9 18 10.3 5.1 20.5-10.3v56.4l-56.4 28.3v-20.5l-10.2-5.2v29.7 6.2l15.3 7.7 20.5 10.3v-10.3l-20.5-10.3 56.4-28.1 51.4 25.6v-10.2l-46.2-23.2z"/>
				<path id="&lt;Path&gt;" class="s1" d="m692.4 0h-10.6l5.3 2.6z"/>
				<path id="&lt;Path&gt;" class="s1" d="m666.6 79.5l9 4.5 11.5 5.8 10.3-5.1-22-11-13.9-7-35.9 18 10.3 5.1 20.5-10.3v45.1 11.3l-5.1 2.6-3.6 1.8-24.1 12-23.7 11.8v-20.5l-10.2-5.1v35.9l35.9 17.9v-10.2l-20.5-10.3 38.9-19.4 17.5-8.8 13.9 7h0.1l3.6 1.8 38.8 19.4-20.5 10.3v10.2l35.9-17.9v-35.9l-10.3 5.1v20.5l-23.5-11.7-24.1-12.1-3.6-1.8-5.2-2.6v-11.3z"/>
				<path id="&lt;Path&gt;" class="s1" d="m774.3 164.1v-20.5l-10.2-5.1v35.9l35.8 17.9v-10.2l-20.5-10.3 20.6-10.3v-9.2-1.1l-2.1 1.1z"/>
				<path id="&lt;Path&gt;" class="s1" d="m774.3 230.8l-10.2-5.1v35.9l35.8 17.9v-10.3l-20.5-10.2 20.6-10.3v-10.3l-25.7 12.9z"/>
				<path id="&lt;Path&gt;" class="s1" d="m800 171.9v-0.1h-0.1z"/>
				<path id="&lt;Path&gt;" class="s1" d="m784.6 235.9l15.4-7.7v-10.3l-15.4 7.8z"/>
				<path id="&lt;Path&gt;" class="s1" d="m753.8 152.3v-13.8-15.4l20.5 10.3 10.3-5.2-36-17.9-35.9 17.9 10.3 5.2 20.5-10.3v15.4 13.8 27.2l-56.4 28.2v-20.5l-10.2-5.1v35.9l35.8 17.9v-10.2l-20.5-10.3 56.4-28.2 51.4 25.7v-10.3l-46.2-23.1z"/>
				<path id="&lt;Path&gt;" class="s1" d="m774.3 317.9l-10.2-5.1v35.9l35.8 18v-10.3l-20.5-10.3 20.6-10.3v-10.2l-25.7 12.8z"/>
				<path id="&lt;Path&gt;" class="s1" d="m800 259v-0.1l-0.1 0.1z"/>
				<path id="&lt;Path&gt;" class="s1" d="m753.8 210.2l20.5 10.3 10.3-5.1-36-18-35.9 18 10.3 5.1 20.5-10.3v56.5l-56.4 28.2v-20.5l-10.2-5.2v35.9l35.8 18v-10.3l-20.5-10.2 56.4-28.2 51.4 25.7v-10.3l-46.2-23.1z"/>
				<path id="&lt;Path&gt;" class="s1" d="m784.6 323.1l15.4-7.8v-10.2l-15.4 7.7z"/>
				<path id="&lt;Path&gt;" class="s1" d="m800 346.2v-0.1h-0.1z"/>
				<path id="&lt;Path&gt;" class="s1" d="m753.8 297.4l20.5 10.3 10.3-5.1-36-18-35.9 18 10.3 5.1 20.5-10.3v56.4l-56.4 28.2v-20.5l-10.2-5.1v29.7 6.2l15.3 7.7 20.5 10.2v-10.2l-20.5-10.3 56.4-28.2 51.4 25.7v-10.3l-46.2-23.1z"/>
				<path id="&lt;Path&gt;" class="s1" d="m672.4 256.8l3.1 1.5 11.6 5.8 10.3-5.1-22-11-13.9-7-35.9 18 10.3 5.1 20.5-10.3v56.4l-56.5 28.2v-20.5l-10.2-5.1v35.9l35.9 18v-10.3l-20.5-10.3 56.4-28.2 14 7 42.4 21.2-20.5 10.3v10.3l35.9-18v-35.9l-10.3 5.1v20.5l-47.6-23.7-8.8-4.5v-56.3z"/>
				<path id="&lt;Path&gt;" class="s1" d="m666.6 341l9 4.5 11.5 5.8 10.3-5.2-22-10.9-13.9-7-35.9 17.9 10.3 5.2 20.5-10.3v45.1 11.3l-5.1 2.6-3.6 1.8-24.1 12-23.7 11.8v-20.5l-10.2-5.1v35.9l35.9 17.9v-10.2l-20.5-10.3 56.4-28.2 56.4 28.2-20.5 10.3v10.2l35.9-17.9v-35.9l-10.3 5.1v20.5l-23.5-11.7-24.1-12.1-3.6-1.8-5.2-2.6v-11.3z"/>
				<path id="&lt;Path&gt;" class="s1" d="m675.4 171.1l11.7 5.8 10.3-5.1-22-11-13.9-6.9-35.9 17.9 10.3 5.1 20.5-10.2v56.4l-56.5 28.2v-20.5l-10.2-5.1v35.9l35.9 17.9v-10.3l-20.5-10.2 56.4-28.2 56.4 28.2-20.5 10.2v10.3l35.9-17.9v-35.9l-10.3 5.1v20.5l-47.6-23.8-0.3-0.2-8.5-4.2v-56.4z"/>
				<path id="&lt;Path&gt;" class="s1" d="m784.6 148.8l15.4-7.8v-2.5-7.7l-15.4 7.7z"/>
				<path id="&lt;Path&gt;" class="s1" d="m774.3 425.6v-20.5l-10.2-5.1v35.9l35.8 17.9v-10.2l-20.5-10.3 20.6-10.3v-9.2-1.1l-2.1 1.1z"/>
				<path id="&lt;Path&gt;" class="s1" d="m774.3 492.2l-10.2-5.1v36l35.8 17.9v-10.3l-20.5-10.2 20.6-10.3v-10.3l-25.7 12.9z"/>
				<path id="&lt;Path&gt;" class="s1" d="m800 433.4v-0.1h-0.1z"/>
				<path id="&lt;Path&gt;" class="s1" d="m784.6 497.4l15.4-7.7v-10.3l-15.4 7.7z"/>
				<path id="&lt;Path&gt;" class="s1" d="m753.8 413.8v-13.8-15.4l20.5 10.2 10.3-5.1-36-17.9-35.9 17.9 10.3 5.1 20.5-10.2v15.4 13.8 27.2l-56.4 28.2v-20.5l-10.2-5.1v35.8l35.8 18v-10.3l-20.5-10.2 56.4-28.2 51.4 25.7v-10.3l-46.2-23.1z"/>
				<path id="&lt;Path&gt;" class="s1" d="m687.1 438.4l10.3-5.1-22-10.9v-0.1l-13.9-6.9-35.9 17.9 10.3 5.1 20.5-10.2v56.4l-56.5 28.2v-20.6l-10.2-5.1v36l35.9 17.9v-10.3l-20.5-10.2 56.4-28.3 13.9 7.1 42.5 21.2-20.5 10.2v10.3l35.9-17.9v-36l-10.3 5.1v20.6l-47.6-23.8-8.8-4.4v-56.4z"/>
				<path id="&lt;Path&gt;" class="s1" d="m774.3 579.4l-10.2-5.1v35.9l35.8 17.9v-10.2l-20.5-10.3 20.6-10.3v-10.2l-25.7 12.8z"/>
				<path id="&lt;Path&gt;" class="s1" d="m800 520.5v-0.1l-0.1 0.1z"/>
				<path id="&lt;Path&gt;" class="s1" d="m753.8 471.8l20.5 10.2 10.3-5.1-36-18-35.9 18 10.3 5.1 20.5-10.2v56.4l-56.4 28.2v-20.5l-10.2-5.2v35.9l35.8 18v-10.3l-20.5-10.2 56.4-28.2 51.4 25.7v-10.3l-46.2-23.1z"/>
				<path id="&lt;Path&gt;" class="s1" d="m784.6 584.6l15.4-7.8v-10.2l-15.4 7.7z"/>
				<path id="&lt;Path&gt;" class="s1" d="m800 607.7v-0.1h-0.1z"/>
				<path id="&lt;Path&gt;" class="s1" d="m753.8 558.9l20.5 10.3 10.3-5.1-36-18-35.9 18 10.3 5.1 20.5-10.3v56.4l-56.4 28.2v-20.5l-10.2-5.1v29.7 6.2l15.3 7.7 20.5 10.3v-10.3l-20.5-10.3 56.4-28.2 51.4 25.7v-10.3l-46.2-23.1z"/>
				<path id="&lt;Path&gt;" class="s1" d="m687.1 525.6l10.3-5.1-35.9-18-35.9 18 10.3 5.1 20.5-10.2v56.4l-56.5 28.1v-20.5l-10.2-5.1v35.9l35.9 17.9v-10.2l-20.5-10.3 56.4-28.2 14 7 42.4 21.2-20.5 10.3v10.2l35.9-17.9v-35.9l-10.3 5.1v20.5l-47.6-23.7-8.8-4.4v-56.4z"/>
				<path id="&lt;Path&gt;" class="s1" d="m666.6 602.5l9 4.5 11.5 5.7 10.3-5.1-22-11-13.9-6.9-35.9 17.9 10.3 5.1 20.5-10.2v45.1 11.3l-5.1 2.6-3.6 1.8-24.1 12-23.7 11.8v-20.5l-10.2-5.1v35.9l35.9 17.9v-10.2l-20.5-10.3 56.4-28.2 56.4 28.2-20.5 10.3v10.2l35.9-17.9v-35.9l-10.3 5.1v20.5l-23.5-11.7-24.1-12.1-3.6-1.8-5.2-2.6v-11.3z"/>
				<path id="&lt;Path&gt;" class="s1" d="m784.6 410.2l15.4-7.7v-2.5-7.8l-15.4 7.8z"/>
				<path id="&lt;Path&gt;" class="s1" d="m774.3 687.1v-20.5l-10.2-5.1v35.9l35.8 17.9v-10.2l-20.5-10.3 20.6-10.3v-9.2-1.1l-2.1 1.1z"/>
				<path id="&lt;Path&gt;" class="s1" d="m800 694.8v-0.1l-0.1 0.1z"/>
				<path id="&lt;Path&gt;" class="s1" d="m774.3 753.8l-10.2-5.2v35.9l30.8 15.5h5v-7.8l-20.5-10.3 20.6-10.2v-10.3l-25.7 12.8z"/>
				<path id="&lt;Path&gt;" class="s1" d="m784.6 758.9l15.4-7.8v-10.2l-15.4 7.7z"/>
				<path id="&lt;Path&gt;" class="s1" d="m753.8 675.3v-13.8-15.4l20.5 10.3 10.3-5.2-36-17.9-35.9 17.9 10.3 5.2 20.5-10.3v15.4 13.8 27.2l-56.4 28.2v-20.5l-10.2-5.1v35.8l35.8 18v-10.3l-20.5-10.2 56.4-28.2 51.4 25.7v-10.3l-46.2-23.1z"/>
				<path id="&lt;Path&gt;" class="s1" d="m733.3 748.6l-10.3 5.2v20.4l-47.6-23.7-8.8-4.4v-56.4l20.5 10.2 10.3-5.1-22-11-13.9-6.9-35.9 17.9 10.3 5.1 20.5-10.2v56.4l-56.5 28.1v-20.4l-10.2-5.2v35.9l30.9 15.5h5v-7.8l-20.5-10.3 56.4-28.1 13.9 6.9 42.5 21.2-20.5 10.3v7.8h4.9l31-15.5z"/>
				<path id="&lt;Path&gt;" class="s1" d="m800 782v-0.1h-0.1z"/>
				<path id="&lt;Path&gt;" class="s1" d="m753.8 733.3l20.5 10.2 10.3-5.1-36-18-35.9 18 10.3 5.1 20.5-10.2v56.3l-20.6 10.4h20.5l5.2-2.7 5.3 2.7h20.5l-20.6-10.4z"/>
				<path id="&lt;Path&gt;" class="s1" d="m676.9 800h10.2v-2.7l-10.2-5.1z"/>
				<path id="&lt;Path&gt;" class="s1" d="m661.5 764l-35.9 17.9 10.3 5.2 20.5-10.3v23.2h5.1 5.1v-23.2l5.8 3 3.1 1.5 11.6 5.8 10.3-5.2z"/>
				<path id="&lt;Path&gt;" class="s1" d="m784.6 671.8l15.4-7.8v-2.5-7.7l-15.4 7.7z"/>
				<path id="&lt;Path&gt;" class="s1" d="m625.6 7.8l-15.5-7.8h-20.4v0.1l35.9 17.9z"/>
				<path id="&lt;Path&gt;" class="s1" d="m558.9 0h-20.3l-15.5 7.8v10.2l35.8-17.9z"/>
				<path id="&lt;Path&gt;" class="s1" d="m641.1 0h-10.5l5.3 2.6z"/>
				<path id="&lt;Path&gt;" class="s1" d="m599.9 56.4l-10.2-5.1v35.9l35.9 18v-10.3l-20.5-10.2 56.4-28.3 56.4 28.3-20.5 10.2v10.3l35.9-18v-35.9l-10.3 5.1v20.6l-47.6-23.8-8.8-4.4v-48.8h-5.1-5.1v48.8l-56.5 28.2z"/>
				<path id="&lt;Path&gt;" class="s1" d="m538.4 51.3l-20.5-10.2 56.4-28.2 56.4 28.2-20.5 10.2v10.3l35.9-18v-35.8l-10.2 5.1v20.5l-56.5-28.2v-5.2h-10.2v5.2l-56.4 28.2v-20.5l-10.2-5.1v35.8l35.8 18z"/>
				<path id="&lt;Path&gt;" class="s1" d="m512.8 120.6v-20.5l-10.2-5.2v29.7 6.2l15.3 7.7 20.5 10.3v-10.3l-20.5-10.3 56.4-28.1 56.4 28.1-20.5 10.3v10.3l20.5-10.3 15.4-7.7v-6.2-29.7l-10.2 5.2v20.5l-56.5-28.3v-56.4l20.5 10.3 10.3-5.1-35.9-18-35.9 18 10.3 5.1 20.5-10.3v56.4z"/>
				<path id="&lt;Path&gt;" class="s1" d="m518.1 0h-10.6l5.3 2.6z"/>
				<path id="&lt;Path&gt;" class="s1" d="m501.1 73.7l-13.9-7-35.9 18 10.3 5.1 20.5-10.3v45.1 11.3l-5.2 2.6-3.6 1.8-24 12-23.7 11.8v-20.5l-10.2-5.1v35.9l35.9 17.9v-10.2l-20.6-10.3 39-19.4 17.5-8.8 7.7 3.9 3.4 1.7 2.9 1.4 3.5 1.8 38.9 19.4-20.5 10.3v10.2l35.8-17.9v-35.9l-10.2 5.1v20.5l-23.5-11.7-24.1-12.1-3.7-1.8-5.1-2.6v-11.3-45.1l9 4.5 11.5 5.8 10.3-5.1z"/>
				<path id="&lt;Path&gt;" class="s1" d="m599.9 220.5l10.3-5.1-35.9-18-35.9 18 10.3 5.1 20.5-10.3v56.5l-56.4 28.2v-20.5l-10.2-5.2v35.9l35.8 18v-10.3l-20.5-10.2 56.4-28.2 56.4 28.2-20.5 10.2v10.3l35.9-18v-35.9l-10.2 5.2v20.5l-56.5-28.2v-56.5z"/>
				<path id="&lt;Path&gt;" class="s1" d="m599.9 307.7l10.3-5.1-35.9-18-35.9 18 10.3 5.1 20.5-10.3v56.4l-56.4 28.2v-20.5l-10.2-5.1v29.7 6.2l15.3 7.7 20.5 10.2v-10.2l-20.5-10.3 56.4-28.2 56.4 28.2-20.5 10.3v10.2l20.5-10.2 15.4-7.7v-6.2-29.7l-10.2 5.1v20.5l-56.5-28.2v-56.4z"/>
				<path id="&lt;Path&gt;" class="s1" d="m497.7 256.6l3.5 1.7 11.6 5.8 10.3-5.1-22-11-10.3-5.2-3.6-1.8-35.9 18 10.3 5.1 20.5-10.3v56.4l-56.5 28.2v-20.5l-10.2-5.1v35.9l35.9 18v-10.3l-20.6-10.3 56.5-28.2 14 7 42.4 21.2-20.5 10.3v10.3l35.8-18v-35.9l-10.2 5.1v20.5l-47.6-23.7-8.8-4.5v-56.3z"/>
				<path id="&lt;Path&gt;" class="s1" d="m492.3 341l9 4.5 11.5 5.8 10.3-5.2-22-10.9-13.9-7-35.9 17.9 10.3 5.2 20.5-10.3v45.1 11.3l-5.2 2.6-3.6 1.8-24 12-23.7 11.8v-20.5l-10.2-5.1v35.9l35.9 17.9v-10.2l-20.6-10.3 56.5-28.2 7.7 3.9 3.4 1.7 0.3 0.1 45 22.5-20.5 10.3v10.2l35.8-17.9v-35.9l-10.2 5.1v20.5l-23.5-11.7-24.1-12.1-3.7-1.8-5.1-2.6v-11.3z"/>
				<path id="&lt;Path&gt;" class="s1" d="m501.1 171.1l11.7 5.8 10.3-5.1-22-11-13.9-6.9-35.9 17.9 10.3 5.1 20.5-10.2v56.4l-56.5 28.2v-20.5l-10.2-5.1v35.9l35.9 17.9v-10.3l-20.6-10.2 56.5-28.2 56.4 28.2-20.5 10.2v10.3l35.8-17.9v-35.9l-10.2 5.1v20.5l-47.6-23.8-8.8-4.4v-56.4z"/>
				<path id="&lt;Path&gt;" class="s1" d="m579.4 138.5v-15.4l20.5 10.3 10.3-5.2-35.9-17.9-35.9 17.9 10.3 5.2 20.5-10.3v15.4 13.8 27.2l-56.4 28.2v-20.5l-10.2-5.1v35.9l35.8 17.9v-10.2l-20.5-10.3 56.4-28.2 56.4 28.2-20.5 10.3v10.2l35.9-17.9v-35.9l-10.2 5.1v20.5l-56.5-28.2v-27.2z"/>
				<path id="&lt;Path&gt;" class="s1" d="m512.8 438.4l10.3-5.1-22-10.9v-0.1l-13.9-6.9-35.9 17.9 10.3 5.1 20.5-10.2v56.4l-56.5 28.2v-20.6l-10.2-5.1v36l35.9 17.9v-10.3l-20.6-10.2 56.5-28.3 13.9 7.1 42.5 21.2-20.5 10.2v10.3l35.8-17.9v-36l-10.2 5.1v20.6l-47.6-23.8-8.8-4.4v-56.4z"/>
				<path id="&lt;Path&gt;" class="s1" d="m599.9 482l10.3-5.1-35.9-18-35.9 18 10.3 5.1 20.5-10.2v56.4l-56.4 28.2v-20.5l-10.2-5.2v35.9l35.8 18v-10.3l-20.5-10.2 56.4-28.2 56.4 28.2-20.5 10.2v10.3l35.9-18v-35.9l-10.2 5.2v20.5l-56.5-28.2v-56.4z"/>
				<path id="&lt;Path&gt;" class="s1" d="m599.9 569.2l10.3-5.1-35.9-18-35.9 18 10.3 5.1 20.5-10.3v56.4l-56.4 28.2v-20.5l-10.2-5.1v29.7 6.2l15.3 7.7 20.5 10.3v-10.3l-20.5-10.3 56.4-28.2 56.4 28.2-20.5 10.3v10.3l20.5-10.3 15.4-7.7v-6.2-29.7l-10.2 5.1v20.5l-56.5-28.2v-56.4z"/>
				<path id="&lt;Path&gt;" class="s1" d="m501.2 586.4l42.4 21.2-20.5 10.3v10.2l35.8-17.9v-35.9l-10.2 5.1v20.5l-47.6-23.7-8.8-4.4v-56.4l20.5 10.2 10.3-5.1-22-11-0.8-0.4-13.1-6.6-35.9 18 10.3 5.1 20.5-10.2v56.4l-56.5 28.1v-20.5l-10.2-5.1v35.9l35.9 17.9v-10.2l-20.6-10.3 56.5-28.2z"/>
				<path id="&lt;Path&gt;" class="s1" d="m579.4 400v-15.4l20.5 10.2 10.3-5.1-35.9-17.9-35.9 17.9 10.3 5.1 20.5-10.2v15.4 13.8 27.2l-56.4 28.2v-20.5l-10.2-5.1v35.8l35.8 18v-10.3l-20.5-10.2 56.4-28.2 56.4 28.2-20.5 10.2v10.3l35.9-18v-35.8l-10.2 5.1v20.5l-56.5-28.2v-27.2z"/>
				<path id="&lt;Path&gt;" class="s1" d="m630.7 738.4l-20.5 10.2v10.3l35.9-18v-35.8l-10.2 5.1v20.5l-56.5-28.2v-27.2-13.8-15.4l20.5 10.3 10.3-5.2-35.9-17.9-35.9 17.9 10.3 5.2 20.5-10.3v15.4 13.8 27.2l-56.4 28.2v-20.5l-10.2-5.1v35.8l35.8 18v-10.3l-20.5-10.2 56.4-28.2z"/>
				<path id="&lt;Path&gt;" class="s1" d="m543.6 694.8l-20.5 10.3v10.2l35.8-17.9v-35.9l-10.2 5.1v20.5l-23.5-11.7-24.1-12.1-3.7-1.8-5.1-2.6v-11.3-45.1l9 4.5 11.5 5.7 10.3-5.1-22-11-13.9-6.9-35.9 17.9 10.3 5.1 20.5-10.2v45.1 11.3l-5.2 2.6-3.6 1.8-24 12-23.7 11.8v-20.5l-10.2-5.1v35.9l35.9 17.9v-10.2l-20.6-10.3 56.5-28.2z"/>
				<path id="&lt;Path&gt;" class="s1" d="m558.9 748.6l-10.2 5.2v20.4l-47.6-23.7-8.8-4.4v-56.4l20.5 10.2 10.3-5.1-22-11-13.9-6.9-35.9 17.9 10.3 5.1 20.5-10.2v56.4l-56.5 28.1v-20.4l-10.2-5.2v35.9l30.9 15.5h5v-7.8l-20.6-10.3 56.5-28.1 13.9 6.9 42.5 21.2-20.5 10.3v7.8h4.9l30.9-15.5z"/>
				<path id="&lt;Path&gt;" class="s1" d="m635.9 800h10.2v-7.8l-10.2 5.1z"/>
				<path id="&lt;Path&gt;" class="s1" d="m579.4 733.3l20.5 10.2 10.3-5.1-35.9-18-35.9 18 10.3 5.1 20.5-10.2v56.3l-20.7 10.4h20.6l5.2-2.7 5.3 2.7h20.5l-20.7-10.4z"/>
				<path id="&lt;Path&gt;" class="s1" d="m502.6 800h10.2v-2.7l-10.2-5.1z"/>
				<path id="&lt;Path&gt;" class="s1" d="m492.5 766.7l-5.3-2.7-35.9 17.9 10.3 5.2 20.5-10.3v23.2h5.1 5.1v-23.2l5.4 2.7 3.5 1.8 11.6 5.8 10.3-5.2z"/>
				<path id="&lt;Path&gt;" class="s1" d="m451.3 7.8l-15.5-7.8h-20.4v0.1l35.9 17.9z"/>
				<path id="&lt;Path&gt;" class="s1" d="m384.6 0h-20.3l-15.6 7.8v10.2l35.9-17.9z"/>
				<path id="&lt;Path&gt;" class="s1" d="m466.8 0h-10.6l5.4 2.6z"/>
				<path id="&lt;Path&gt;" class="s1" d="m425.6 56.4l-10.2-5.1v35.9l35.9 18v-10.3l-20.6-10.2 56.5-28.3 56.4 28.3-20.5 10.2v10.3l35.8-18v-35.9l-10.2 5.1v20.6l-47.6-23.8-8.8-4.4v-48.8h-5.1-5.1v48.8l-56.5 28.2z"/>
				<path id="&lt;Path&gt;" class="s1" d="m364.1 51.3l-20.5-10.2 56.4-28.2 56.4 28.2-20.5 10.2v10.3l35.9-18v-35.8l-10.2 5.1v20.5l-56.5-28.2v-5.2h-10.2v5.2l-56.4 28.2v-20.5l-10.3-5.1v35.8l35.9 18z"/>
				<path id="&lt;Path&gt;" class="s1" d="m338.5 120.6v-20.5l-10.3-5.2v29.7 6.2l15.4 7.7 20.5 10.3v-10.3l-20.5-10.3 56.4-28.1 56.4 28.1-20.5 10.3v10.3l20.5-10.3 15.4-7.7v-6.2-29.7l-10.2 5.2v20.5l-56.5-28.3v-56.4l20.5 10.3 10.3-5.1-35.9-18-35.9 18 10.3 5.1 20.5-10.3v56.4z"/>
				<path id="&lt;Path&gt;" class="s1" d="m343.8 0h-10.6l5.3 2.6z"/>
				<path id="&lt;Path&gt;" class="s1" d="m326.7 73.7l-13.9-7-35.8 18 10.2 5.1 20.5-10.3v45.1 11.3l-5.1 2.6-3.6 1.8-24.1 12-23.6 11.8v-20.5l-10.2-5.1v35.9l35.9 17.9v-10.2l-20.6-10.3 38.9-19.4h0.1l17.4-8.8 13.2 6.6 0.8 0.4 2.3 1.2 40.1 20-20.5 10.3v10.2l35.9-17.9v-35.9l-10.2 5.1v20.5l-23.5-11.7-24.1-12.1-3.7-1.8-5.1-2.6v-11.3-45.1l8.9 4.5 11.6 5.8 10.2-5.1z"/>
				<path id="&lt;Path&gt;" class="s1" d="m326.8 160.8l-14-6.9-35.8 17.9 10.2 5.1 20.5-10.2v56.4l-56.4 28.2v-20.5l-10.2-5.1v35.9l35.9 17.9v-10.3l-20.6-10.2 56.4-28.2 56.4 28.2-20.5 10.2v10.3l35.9-17.9v-35.9l-10.2 5.1v20.5l-47.6-23.8-8.8-4.4v-56.4l8.8 4.4 11.7 5.8 10.2-5.1z"/>
				<path id="&lt;Path&gt;" class="s1" d="m338.5 294.9v-20.5l-10.3-5.2v35.9l35.9 18v-10.3l-20.5-10.2 56.4-28.2 56.4 28.2-20.5 10.2v10.3l35.9-18v-35.9l-10.2 5.2v20.5l-56.5-28.2v-56.5l20.5 10.3 10.3-5.1-35.9-18-35.9 18 10.3 5.1 20.5-10.3v56.5z"/>
				<path id="&lt;Path&gt;" class="s1" d="m425.6 307.7l10.3-5.1-35.9-18-35.9 18 10.3 5.1 20.5-10.3v56.4l-56.4 28.2v-20.5l-10.3-5.1v29.7 6.2l15.4 7.7 20.5 10.2v-10.2l-20.5-10.3 56.4-28.2 56.4 28.2-20.5 10.3v10.2l20.5-10.2 15.4-7.7v-6.2-29.7l-10.2 5.1v20.5l-56.5-28.2v-56.4z"/>
				<path id="&lt;Path&gt;" class="s1" d="m326.8 324.9l42.4 21.2-20.5 10.3v10.3l35.9-18v-35.9l-10.2 5.1v20.5l-47.6-23.7-8.8-4.5v-56.3l5.4 2.7 3.4 1.7 11.7 5.8 10.2-5.1-21.9-11-9-4.5-5-2.5-35.8 18 10.2 5.1 20.5-10.3v56.4l-56.4 28.2v-20.5l-10.2-5.1v35.9l35.9 18v-10.3l-20.6-10.3 56.4-28.2z"/>
				<path id="&lt;Path&gt;" class="s1" d="m394.9 152.3v27.2l-56.4 28.2v-20.5l-10.3-5.1v35.9l35.9 17.9v-10.2l-20.5-10.3 56.4-28.2 56.4 28.2-20.5 10.3v10.2l35.9-17.9v-35.9l-10.2 5.1v20.5l-56.5-28.2v-27.2-13.8-15.4l20.5 10.3 10.3-5.2-35.9-17.9-35.9 17.9 10.3 5.2 20.5-10.3v15.4z"/>
				<path id="&lt;Path&gt;" class="s1" d="m369.2 433.3l-20.5 10.3v10.2l35.9-17.9v-35.9l-10.2 5.1v20.5l-23.5-11.7-24.1-12.1-3.7-1.8-5.1-2.6v-11.3-45.1l8.9 4.5 11.6 5.8 10.2-5.2-22-10.9-13.9-7-35.8 17.9 10.2 5.2 20.5-10.3v45.1 11.3l-5.1 2.6-3.6 1.8-24.1 12-23.6 11.8v-20.5l-10.2-5.1v35.9l35.9 17.9v-10.2l-20.6-10.3 56.4-28.2z"/>
				<path id="&lt;Path&gt;" class="s1" d="m456.4 564.1l-20.5 10.2v10.3l35.9-18v-35.9l-10.2 5.2v20.5l-56.5-28.2v-56.4l20.5 10.2 10.3-5.1-35.9-18-35.9 18 10.3 5.1 20.5-10.2v56.4l-56.4 28.2v-20.5l-10.3-5.2v35.9l35.9 18v-10.3l-20.5-10.2 56.4-28.2z"/>
				<path id="&lt;Path&gt;" class="s1" d="m471.8 647.6v-29.7l-10.2 5.1v20.5l-56.5-28.2v-56.4l20.5 10.3 10.3-5.1-35.9-18-35.9 18 10.3 5.1 20.5-10.3v56.4l-56.4 28.2v-20.5l-10.3-5.1v29.7 6.2l15.4 7.7 20.5 10.3v-10.3l-20.5-10.3 56.4-28.2 56.4 28.2-20.5 10.3v10.3l20.5-10.3 15.4-7.7z"/>
				<path id="&lt;Path&gt;" class="s1" d="m326.8 586.4l42.4 21.2-20.5 10.3v10.2l35.9-17.9v-35.9l-10.2 5.1v20.5l-47.6-23.7-8.8-4.4v-56.4l20.5 10.2 10.2-5.1-21.9-11-14-7-35.8 18 10.2 5.1 20.5-10.2v56.4l-56.4 28.1v-20.5l-10.2-5.1v35.9l35.9 17.9v-10.2l-20.6-10.3 56.4-28.2z"/>
				<path id="&lt;Path&gt;" class="s1" d="m326.8 499.3v-0.1l42.4 21.3-20.5 10.2v10.3l35.9-17.9v-36l-10.2 5.1v20.6l-47.6-23.8-8.8-4.4v-56.4l20.5 10.2 10.2-5.1-21.9-10.9v-0.1l-14-6.9-35.8 17.9 10.2 5.1 20.5-10.2v56.4l-56.4 28.2v-20.6l-10.2-5.1v36l35.9 17.9v-10.3l-20.6-10.2 56.4-28.3z"/>
				<path id="&lt;Path&gt;" class="s1" d="m405.1 400v-15.4l20.5 10.2 10.3-5.1-35.9-17.9-35.9 17.9 10.3 5.1 20.5-10.2v15.4 13.8 27.2l-56.4 28.2v-20.5l-10.3-5.1v35.8l35.9 18v-10.3l-20.5-10.2 56.4-28.2 56.4 28.2-20.5 10.2v10.3l35.9-18v-35.8l-10.2 5.1v20.5l-56.5-28.2v-27.2z"/>
				<path id="&lt;Path&gt;" class="s1" d="m456.4 738.4l-20.5 10.2v10.3l35.9-18v-35.8l-10.2 5.1v20.5l-56.5-28.2v-27.2-13.8-15.4l20.5 10.3 10.3-5.2-35.9-17.9-35.9 17.9 10.3 5.2 20.5-10.3v15.4 13.8 27.2l-56.4 28.2v-20.5l-10.3-5.1v35.8l35.9 18v-10.3l-20.5-10.2 56.4-28.2z"/>
				<path id="&lt;Path&gt;" class="s1" d="m369.2 694.8l-20.5 10.3v10.2l35.9-17.9v-35.9l-10.2 5.1v20.5l-23.5-11.7-24.1-12.1-3.7-1.8-5.1-2.6v-11.3-45.1l8.9 4.5 11.6 5.7 10.2-5.1-22-11-13.9-6.9-35.8 17.9 10.2 5.1 20.5-10.2v45.1 11.3l-5.1 2.6-3.6 1.8-24.1 12-23.6 11.8v-20.5l-10.2-5.1v35.9l35.9 17.9v-10.2l-20.6-10.3 56.4-28.2z"/>
				<path id="&lt;Path&gt;" class="s1" d="m384.6 748.6l-10.2 5.2v20.4l-47.6-23.7-8.8-4.4v-56.4l20.5 10.2 10.2-5.1-21.9-11-14-6.9-35.8 17.9 10.2 5.1 20.5-10.2v56.4l-56.4 28.1v-20.4l-10.2-5.2v35.9l30.9 15.5h5v-7.8l-20.6-10.3 56.4-28.1 14 6.9 42.4 21.2-20.5 10.3v7.8h5l30.9-15.5z"/>
				<path id="&lt;Path&gt;" class="s1" d="m405.1 733.3l20.5 10.2 10.3-5.1-35.9-18-35.9 18 10.3 5.1 20.5-10.2v56.3l-20.7 10.4h20.5l5.3-2.7 5.3 2.7h20.5l-20.7-10.4z"/>
				<path id="&lt;Path&gt;" class="s1" d="m461.6 800h10.2v-7.8l-10.2 5.1z"/>
				<path id="&lt;Path&gt;" class="s1" d="m328.2 800h10.3v-2.7l-10.3-5.1z"/>
				<path id="&lt;Path&gt;" class="s1" d="m321.5 768.3l-8.7-4.3-35.8 17.9 10.2 5.2 20.5-10.3v23.2h5.1 5.2v-23.2l5.4 2.7 3.4 1.8 11.7 5.8 10.2-5.2z"/>
				<path id="&lt;Path&gt;" class="s1" d="m277 7.8l-15.6-7.8h-20.3v0.1l35.9 17.9z"/>
				<path id="&lt;Path&gt;" class="s1" d="m210.3 0h-20.3l-15.6 7.8v10.2l35.9-17.9z"/>
				<path id="&lt;Path&gt;" class="s1" d="m292.5 0h-10.6l5.3 2.6z"/>
				<path id="&lt;Path&gt;" class="s1" d="m251.3 56.4l-10.2-5.1v35.9l35.9 18v-10.3l-20.6-10.2 56.4-28.3 56.4 28.3-20.5 10.2v10.3l35.9-18v-35.9l-10.2 5.1v20.6l-47.6-23.8-8.8-4.4v-48.8h-5.2-5.1v48.8l-56.4 28.2z"/>
				<path id="&lt;Path&gt;" class="s1" d="m189.8 51.3l-20.5-10.2 56.4-28.2 56.4 28.2-20.5 10.2v10.3l35.9-18v-35.8l-10.3 5.1v20.5l-56.4-28.2v-5.2h-10.3v5.2l-56.3 28.2v-20.5l-10.3-5.1v35.8l35.9 18z"/>
				<path id="&lt;Path&gt;" class="s1" d="m164.2 120.6v-20.5l-10.3-5.2v29.7 6.2l15.4 7.7 20.5 10.3v-10.3l-20.5-10.3 56.4-28.1 56.4 28.1-20.5 10.3v10.3l20.5-10.3 15.4-7.7v-6.2-29.7l-10.3 5.2v20.5l-56.4-28.3v-56.4l20.5 10.3 10.3-5.1-35.9-18-35.9 18 10.2 5.1 20.5-10.3v56.4z"/>
				<path id="&lt;Path&gt;" class="s1" d="m169.4 0h-10.5l5.3 2.6z"/>
				<path id="&lt;Path&gt;" class="s1" d="m282.1 215.4l-20.5 10.3v10.2l35.9-17.9v-35.9l-10.3 5.1v20.5l-56.4-28.2v-27.2-13.8-15.4l20.5 10.3 10.3-5.2-35.9-17.9-35.9 17.9 10.2 5.2 20.5-10.3v15.4 13.8 27.2l-56.3 28.2v-20.5l-10.3-5.1v35.9l35.9 17.9v-10.2l-20.5-10.3 56.4-28.2z"/>
				<path id="&lt;Path&gt;" class="s1" d="m194.9 259l-20.5 10.2v10.3l35.9-17.9v-35.9l-10.3 5.1v20.5l-47.5-23.8-0.4-0.2-8.4-4.2v-56.4l8.8 4.4 11.7 5.8 10.2-5.1-21.9-11-14-6.9-35.9 17.9 10.3 5.1 20.5-10.2v56.4l-56.4 28.2v-20.5l-10.2-5.1v35.9l35.8 17.9v-10.3l-20.5-10.2 56.4-28.2z"/>
				<path id="&lt;Path&gt;" class="s1" d="m282.1 302.6l-20.5 10.2v10.3l35.9-18v-35.9l-10.3 5.2v20.5l-56.4-28.2v-56.5l20.5 10.3 10.3-5.1-35.9-18-35.9 18 10.2 5.1 20.5-10.3v56.5l-56.3 28.2v-20.5l-10.3-5.2v35.9l35.9 18v-10.3l-20.5-10.2 56.4-28.2z"/>
				<path id="&lt;Path&gt;" class="s1" d="m282.1 389.7l-20.5 10.3v10.2l20.5-10.2 15.4-7.7v-6.2-29.7l-10.3 5.1v20.5l-56.4-28.2v-56.4l20.5 10.3 10.3-5.1-35.9-18-35.9 18 10.2 5.1 20.5-10.3v56.4l-56.3 28.2v-20.5l-10.3-5.1v29.7 6.2l15.4 7.7 20.5 10.2v-10.2l-20.5-10.3 56.4-28.2z"/>
				<path id="&lt;Path&gt;" class="s1" d="m194.9 346.1l-20.5 10.3v10.3l35.9-18v-35.9l-10.3 5.1v20.5l-47.5-23.7-8.8-4.5v-56.3l4.9 2.4 3.9 2 11.7 5.8 10.2-5.1-21.9-11-9.1-4.5-4.9-2.5-35.9 18 10.3 5.1 20.5-10.3v56.4l-56.4 28.2v-20.5l-10.2-5.1v35.9l35.8 18v-10.3l-20.5-10.3 56.4-28.2z"/>
				<path id="&lt;Path&gt;" class="s1" d="m282.1 476.9l-20.5 10.2v10.3l35.9-18v-35.8l-10.3 5.1v20.5l-56.4-28.2v-27.2-13.8-15.4l20.5 10.2 10.3-5.1-35.9-17.9-35.9 17.9 10.2 5.1 20.5-10.2v15.4 13.8 27.2l-56.3 28.2v-20.5l-10.3-5.1v35.8l35.9 18v-10.3l-20.5-10.2 56.4-28.2z"/>
				<path id="&lt;Path&gt;" class="s1" d="m194.9 433.3l-20.5 10.3v10.2l35.9-17.9v-35.9l-10.3 5.1v20.5l-23.5-11.7-24-12.1h-0.1l-3.6-1.8-5.1-2.6v-11.3-45.1l8.9 4.5 11.6 5.8 10.2-5.2-22-10.9-13.9-7-35.9 17.9 10.3 5.2 20.5-10.3v45.1 11.3l-5.1 2.6-3.6 1.8-24.1 12-23.6 11.8v-20.5l-10.2-5.1v35.9l35.8 17.9v-10.2l-20.5-10.3 56.4-28.2z"/>
				<path id="&lt;Path&gt;" class="s1" d="m282.1 564.1l-20.5 10.2v10.3l35.9-18v-35.9l-10.3 5.2v20.5l-56.4-28.2v-56.4l20.5 10.2 10.3-5.1-35.9-18-35.9 18 10.2 5.1 20.5-10.2v56.4l-56.3 28.2v-20.5l-10.3-5.2v35.9l35.9 18v-10.3l-20.5-10.2 56.4-28.2z"/>
				<path id="&lt;Path&gt;" class="s1" d="m282.1 651.2l-20.5 10.3v10.3l20.5-10.3 15.4-7.7v-6.2-29.7l-10.3 5.1v20.5l-56.4-28.2v-56.4l20.5 10.3 10.3-5.1-35.9-18-35.9 18 10.2 5.1 20.5-10.3v56.4l-56.3 28.2v-20.5l-10.3-5.1v29.7 6.2l15.4 7.7 20.5 10.3v-10.3l-20.5-10.3 56.4-28.2z"/>
				<path id="&lt;Path&gt;" class="s1" d="m194.9 607.6l-20.5 10.3v10.2l35.9-17.9v-35.9l-10.3 5.1v20.5l-47.5-23.7-8.8-4.4v-56.4l20.5 10.2 10.2-5.1-21.9-11-14-7-35.9 18 10.3 5.1 20.5-10.2v56.4l-56.4 28.1v-20.5l-10.2-5.1v35.9l35.8 17.9v-10.2l-20.5-10.3 56.4-28.2z"/>
				<path id="&lt;Path&gt;" class="s1" d="m152.5 499.3l42.4 21.2-20.5 10.2v10.3l35.9-17.9v-36l-10.3 5.1v20.6l-47.5-23.8-8.8-4.4v-56.4l20.5 10.2 10.2-5.1-21.9-10.9v-0.1l-14-6.9-35.9 17.9 10.3 5.1 20.5-10.2v56.4l-56.4 28.2v-20.6l-10.2-5.1v36l35.8 17.9v-10.3l-20.5-10.2 56.4-28.3z"/>
				<path id="&lt;Path&gt;" class="s1" d="m282.1 738.4l-20.5 10.2v10.3l35.9-18v-35.8l-10.3 5.1v20.5l-56.4-28.2v-27.2-13.8-15.4l20.5 10.3 10.3-5.2-35.9-17.9-35.9 17.9 10.2 5.2 20.5-10.3v15.4 13.8 27.2l-56.3 28.2v-20.5l-10.3-5.1v35.8l35.9 18v-10.3l-20.5-10.2 56.4-28.2z"/>
				<path id="&lt;Path&gt;" class="s1" d="m194.9 694.8l-20.5 10.3v10.2l35.9-17.9v-35.9l-10.3 5.1v20.5l-23.5-11.7-24-12.1h-0.1l-3.6-1.8-5.1-2.6v-11.3-45.1l8.9 4.5 11.6 5.7 10.2-5.1-22-11-13.9-6.9-35.9 17.9 10.3 5.1 20.5-10.2v45.1 11.3l-5.1 2.6h-0.1l-3.5 1.8-24.1 12-23.6 11.8v-20.5l-10.2-5.1v35.9l35.8 17.9v-10.2l-20.5-10.3 56.4-28.2z"/>
				<path id="&lt;Path&gt;" class="s1" d="m210.3 748.6l-10.3 5.2v20.4l-47.5-23.7-8.8-4.4v-56.4l20.5 10.2 10.2-5.1-21.9-11-14-6.9-35.9 17.9 10.3 5.1 20.5-10.2v56.4l-56.4 28.1v-20.4l-10.2-5.2v35.9l30.9 15.5h4.9v-7.8l-20.5-10.3 56.4-28.1 14 6.9 42.4 21.2-20.5 10.3v7.8h5l30.9-15.5z"/>
				<path id="&lt;Path&gt;" class="s1" d="m230.8 733.3l20.5 10.2 10.3-5.1-35.9-18-35.9 18 10.2 5.1 20.5-10.2v56.3l-20.6 10.4h20.5l5.3-2.7 5.3 2.7h20.5l-20.7-10.4z"/>
				<path id="&lt;Path&gt;" class="s1" d="m153.9 800h10.3v-2.7l-10.3-5.1z"/>
				<path id="&lt;Path&gt;" class="s1" d="m287.2 800h10.3v-7.8l-10.3 5.1z"/>
				<path id="&lt;Path&gt;" class="s1" d="m147.2 768.3l-8.7-4.3-35.9 17.9 10.3 5.2 20.5-10.3v23.2h5.1 5.2v-23.2l4.9 2.5 3.9 2 11.7 5.8 10.2-5.2z"/>
				<path id="&lt;Path&gt;" class="s1" d="m102.6 7.8l-15.5-7.8h-20.3v0.1l35.8 17.9z"/>
				<path id="&lt;Path&gt;" class="s1" d="m36 0h-20.4l-15.5 7.8v10.2l35.9-17.9z"/>
				<path id="&lt;Path&gt;" class="s1" d="m118.2 0h-10.6l5.3 2.6z"/>
				<path id="&lt;Path&gt;" class="s1" d="m77 56.4l-10.2-5.1v35.9l35.8 18v-10.3l-20.5-10.2 56.4-28.3 56.4 28.3-20.5 10.2v10.3l35.9-18v-35.9l-10.3 5.1v20.6l-47.5-23.8-8.8-4.4v-48.8h-5.2-5.1v48.8l-56.4 28.2z"/>
				<path id="&lt;Path&gt;" class="s1" d="m107.8 41.1l-20.6 10.2v10.3l35.9-18v-35.8l-10.2 5.1v20.5l-56.4-28.2v-5.2h-10.3v5.2l-46.2 23.1v10.3l51.4-25.7z"/>
				<path id="&lt;Path&gt;" class="s1" d="m15.5 51.3l-15.5-7.7v10.2l15.5 7.8z"/>
				<path id="&lt;Path&gt;" class="s1" d="m107.8 128.2l-20.6 10.3v10.3l20.6-10.3 15.3-7.7v-6.2-29.7l-10.2 5.2v20.5l-56.4-28.3v-56.4l20.5 10.3 10.2-5.1-35.8-18-35.9 18 10.2 5.1 20.5-10.3v56.4l-46.2 23.2v10.2l51.4-25.6z"/>
				<path id="&lt;Path&gt;" class="s1" d="m0.1 94.9v10.3l35.9-18v-35.9l-10.3 5.1v20.6l-25.7-12.9v10.3l20.6 10.3z"/>
				<path id="&lt;Path&gt;" class="s1" d="m0 84.6v0.1h0.1z"/>
				<path id="&lt;Path&gt;" class="s1" d="m107.8 215.4l-20.6 10.3v10.2l35.9-17.9v-35.9l-10.2 5.1v20.5l-56.4-28.2v-27.2-13.8-15.4l20.5 10.3 10.2-5.2-35.8-17.9-35.9 17.9 10.2 5.2 20.5-10.3v15.4 13.8 27.2l-46.2 23.1v10.3l51.4-25.7z"/>
				<path id="&lt;Path&gt;" class="s1" d="m15.5 225.7l-15.5-7.8v10.3l15.5 7.7z"/>
				<path id="&lt;Path&gt;" class="s1" d="m0.1 182.1v10.2l35.9-17.9v-35.9l-10.3 5.1v20.5l-23.5-11.7-2.2-1.2v1.2 9.1l20.6 10.3z"/>
				<path id="&lt;Path&gt;" class="s1" d="m0.1 269.2v10.3l35.9-17.9v-35.9l-10.3 5.1v20.5l-25.7-12.9v10.3l20.6 10.3z"/>
				<path id="&lt;Path&gt;" class="s1" d="m0 171.8v0.1l0.1-0.1z"/>
				<path id="&lt;Path&gt;" class="s1" d="m107.8 302.6l-20.6 10.2v10.3l35.9-18v-35.9l-10.2 5.2v20.5l-56.4-28.2v-56.5l20.5 10.3 10.2-5.1-35.8-18-35.9 18 10.2 5.1 20.5-10.3v56.5l-46.2 23.1v10.3l51.4-25.7z"/>
				<path id="&lt;Path&gt;" class="s1" d="m15.5 312.8l-15.5-7.7v10.2l15.5 7.8z"/>
				<path id="&lt;Path&gt;" class="s1" d="m107.8 389.7l-20.6 10.3v10.2l20.6-10.2 15.3-7.7v-6.2-29.7l-10.2 5.1v20.5l-56.4-28.2v-56.4l20.5 10.3 10.2-5.1-35.8-18-35.9 18 10.2 5.1 20.5-10.3v56.4l-46.2 23.1v10.3l51.4-25.7z"/>
				<path id="&lt;Path&gt;" class="s1" d="m0.1 356.4v10.3l35.9-18v-35.9l-10.3 5.1v20.5l-25.7-12.8v10.2l20.6 10.3z"/>
				<path id="&lt;Path&gt;" class="s1" d="m0 258.9v0.1h0.1z"/>
				<path id="&lt;Path&gt;" class="s1" d="m0 346.1v0.1l0.1-0.1z"/>
				<path id="&lt;Path&gt;" class="s1" d="m121 152.4l17.5-8.8 13.1 6.6 0.9 0.4 1.6 0.8 40.8 20.4-20.5 10.3v10.2l35.9-17.9v-35.9l-10.3 5.1v20.5l-23.5-11.7-24-12.1h-0.1l-3.6-1.8-5.1-2.6v-11.3-45.1l8.9 4.5 11.6 5.8 10.2-5.1-22-11-13.9-7-35.9 18 10.3 5.1 20.5-10.3v45.1 11.3l-5.1 2.6-3.6 1.8-24.1 12-23.6 11.8v-20.5l-10.2-5.1v35.9l35.8 17.9v-10.2l-20.5-10.3 38.9-19.4z"/>
				<path id="&lt;Path&gt;" class="s1" d="m15.5 138.5l-15.5-7.7v7.7 2.5l15.5 7.8z"/>
				<path id="&lt;Path&gt;" class="s1" d="m107.8 476.9l-20.6 10.2v10.3l35.9-18v-35.8l-10.2 5.1v20.5l-56.4-28.2v-27.2-13.8-15.4l20.5 10.2 10.2-5.1-35.8-17.9-35.9 17.9 10.2 5.1 20.5-10.2v15.4 13.8 27.2l-46.2 23.1v10.3l51.4-25.7z"/>
				<path id="&lt;Path&gt;" class="s1" d="m15.5 487.1l-15.5-7.7v10.3l15.5 7.7z"/>
				<path id="&lt;Path&gt;" class="s1" d="m0.1 443.6v10.2l35.9-17.9v-35.9l-10.3 5.1v20.5l-23.5-11.7-2.2-1.2v1.2 9.1l20.6 10.3z"/>
				<path id="&lt;Path&gt;" class="s1" d="m0 433.3v0.1l0.1-0.1z"/>
				<path id="&lt;Path&gt;" class="s1" d="m0.1 530.7v10.3l35.9-17.9v-36l-10.3 5.1v20.6l-25.7-12.9v10.3l20.6 10.3z"/>
				<path id="&lt;Path&gt;" class="s1" d="m15.5 574.3l-15.5-7.7v10.2l15.5 7.8z"/>
				<path id="&lt;Path&gt;" class="s1" d="m107.8 564.1l-20.6 10.2v10.3l35.9-18v-35.9l-10.2 5.2v20.5l-56.4-28.2v-56.4l20.5 10.2 10.2-5.1-35.8-18-35.9 18 10.2 5.1 20.5-10.2v56.4l-46.2 23.1v10.3l51.4-25.7z"/>
				<path id="&lt;Path&gt;" class="s1" d="m107.8 651.2l-20.6 10.3v10.3l20.6-10.3 15.3-7.7v-6.2-29.7l-10.2 5.1v20.5l-56.4-28.2v-56.4l20.5 10.3 10.2-5.1-35.8-18-35.9 18 10.2 5.1 20.5-10.3v56.4l-46.2 23.1v10.3l51.4-25.7z"/>
				<path id="&lt;Path&gt;" class="s1" d="m0 520.4v0.1h0.1z"/>
				<path id="&lt;Path&gt;" class="s1" d="m0.1 617.9v10.2l35.9-17.9v-35.9l-10.3 5.1v20.5l-25.7-12.8v10.2l20.6 10.3z"/>
				<path id="&lt;Path&gt;" class="s1" d="m0 607.6v0.1l0.1-0.1z"/>
				<path id="&lt;Path&gt;" class="s1" d="m15.5 400l-15.5-7.8v7.8 2.5l15.5 7.7z"/>
				<path id="&lt;Path&gt;" class="s1" d="m15.5 748.6l-15.5-7.7v10.2l15.5 7.8z"/>
				<path id="&lt;Path&gt;" class="s1" d="m107.8 738.4l-20.6 10.2v10.3l35.9-18v-35.8l-10.2 5.1v20.5l-56.4-28.2v-27.2-13.8-15.4l20.5 10.3 10.2-5.2-35.8-17.9-35.9 17.9 10.2 5.2 20.5-10.3v15.4 13.8 27.2l-46.2 23.1v10.3l51.4-25.7z"/>
				<path id="&lt;Path&gt;" class="s1" d="m0.1 705.1v10.2l35.9-17.9v-35.9l-10.3 5.1v20.5l-23.5-11.7-2.2-1.2v1.2 9.1l20.6 10.3z"/>
				<path id="&lt;Path&gt;" class="s1" d="m0 694.7v0.1h0.1z"/>
				<path id="&lt;Path&gt;" class="s1" d="m36 748.6l-10.3 5.2v20.4l-25.7-12.8v10.3l20.6 10.2-20.5 10.3v7.8h4.9l31-15.5z"/>
				<path id="&lt;Path&gt;" class="s1" d="m112.9 800h10.2v-7.8l-10.2 5.1z"/>
				<path id="&lt;Path&gt;" class="s1" d="m56.5 733.3l20.5 10.2 10.2-5.1-35.8-18-35.9 18 10.2 5.1 20.5-10.2v56.3l-20.6 10.4h20.5l5.3-2.7 5.3 2.7h20.5l-20.7-10.4z"/>
				<path id="&lt;Path&gt;" class="s1" d="m0 781.9v0.1l0.1-0.1z"/>
				<path id="&lt;Path&gt;" class="s1" d="m15.5 661.5l-15.5-7.7v7.7 2.5l15.5 7.8z"/>
			</g>
		</g>
	</g>
</svg>