<?xml version="1.0" encoding="UTF-8"?>
<!DOCTYPE svg
PUBLIC "-//W3C//DTD SVG 1.1//EN"
       "http://www.w3.org/Graphics/SVG/1.1/DTD/svg11.dtd">
<svg viewBox="31 1 1091 621" width="1060px" height="620px" xmlns="http://www.w3.org/2000/svg" version="1.1">
   <line x1="432" y1="556" x2="422" y2="556" style="stroke:#b0b;stroke-width:1;"/>
   <line x1="474" y1="279" x2="464" y2="279" style="stroke:#b0b;stroke-width:1;"/>
   <line x1="422" y1="556" x2="474" y2="279" style="stroke:#b0b;stroke-width:1;"/>
   <line x1="424,5" y1="556" x2="428,03553390593" y2="559,53553390593" style="stroke:#b0b;stroke-width:2;"/>
   <line x1="424,5" y1="556" x2="428,03553390593" y2="552,46446609407" style="stroke:#b0b;stroke-width:2;"/>
   <line x1="469" y1="279" x2="472,53553390593" y2="282,53553390593" style="stroke:#b0b;stroke-width:2;"/>
   <line x1="469" y1="279" x2="472,53553390593" y2="275,46446609407" style="stroke:#b0b;stroke-width:2;"/>
   <line x1="179" y1="106" x2="189" y2="106" style="stroke:#cb0;stroke-width:1;"/>
   <line x1="342" y1="79" x2="352" y2="79" style="stroke:#cb0;stroke-width:1;"/>
   <line x1="189" y1="106" x2="342" y2="79" style="stroke:#cb0;stroke-width:1;"/>
   <line x1="186,5" y1="106" x2="182,96446609407" y2="109,53553390593" style="stroke:#cb0;stroke-width:2;"/>
   <line x1="186,5" y1="106" x2="182,96446609407" y2="102,46446609407" style="stroke:#cb0;stroke-width:2;"/>
   <line x1="347" y1="79" x2="343,46446609407" y2="82,535533905933" style="stroke:#cb0;stroke-width:2;"/>
   <line x1="347" y1="79" x2="343,46446609407" y2="75,464466094067" style="stroke:#cb0;stroke-width:2;"/>
   <line x1="464" y1="379" x2="474" y2="379" style="stroke:#0bf;stroke-width:1;"/>
   <line x1="675" y1="355" x2="685" y2="355" style="stroke:#0bf;stroke-width:1;"/>
   <line x1="474" y1="379" x2="675" y2="355" style="stroke:#0bf;stroke-width:1;"/>
   <line x1="471,5" y1="379" x2="467,96446609407" y2="382,53553390593" style="stroke:#0bf;stroke-width:2;"/>
   <line x1="471,5" y1="379" x2="467,96446609407" y2="375,46446609407" style="stroke:#0bf;stroke-width:2;"/>
   <line x1="680" y1="355" x2="676,46446609407" y2="358,53553390593" style="stroke:#0bf;stroke-width:2;"/>
   <line x1="680" y1="355" x2="676,46446609407" y2="351,46446609407" style="stroke:#0bf;stroke-width:2;"/>
   <line x1="51" y1="216" x2="41" y2="216" style="stroke:#bbb;stroke-width:1;"/>
   <line x1="36" y1="46" x2="46" y2="46" style="stroke:#bbb;stroke-width:1;"/>
   <line x1="41" y1="216" x2="36" y2="46" style="stroke:#bbb;stroke-width:1;"/>
   <line x1="43,5" y1="216" x2="47,035533905933" y2="219,53553390593" style="stroke:#bbb;stroke-width:2;"/>
   <line x1="43,5" y1="216" x2="47,035533905933" y2="212,46446609407" style="stroke:#bbb;stroke-width:2;"/>
   <line x1="41" y1="46" x2="37,464466094067" y2="49,535533905933" style="stroke:#bbb;stroke-width:2;"/>
   <line x1="41" y1="46" x2="37,464466094067" y2="42,464466094067" style="stroke:#bbb;stroke-width:2;"/>
   <line x1="190" y1="236" x2="200" y2="236" style="stroke:#333;stroke-width:1;"/>
   <line x1="342" y1="279" x2="352" y2="279" style="stroke:#333;stroke-width:1;"/>
   <line x1="200" y1="236" x2="342" y2="279" style="stroke:#333;stroke-width:1;"/>
   <line x1="197,5" y1="236" x2="193,96446609407" y2="239,53553390593" style="stroke:#333;stroke-width:2;"/>
   <line x1="197,5" y1="236" x2="193,96446609407" y2="232,46446609407" style="stroke:#333;stroke-width:2;"/>
   <line x1="347" y1="279" x2="343,46446609407" y2="282,53553390593" style="stroke:#333;stroke-width:2;"/>
   <line x1="347" y1="279" x2="343,46446609407" y2="275,46446609407" style="stroke:#333;stroke-width:2;"/>
   <line x1="713" y1="114" x2="703" y2="114" style="stroke:#c00;stroke-width:1;"/>
   <line x1="500" y1="79" x2="490" y2="79" style="stroke:#c00;stroke-width:1;"/>
   <line x1="703" y1="114" x2="500" y2="79" style="stroke:#c00;stroke-width:1;"/>
   <line x1="705,5" y1="114" x2="709,03553390593" y2="117,53553390593" style="stroke:#c00;stroke-width:2;"/>
   <line x1="705,5" y1="114" x2="709,03553390593" y2="110,46446609407" style="stroke:#c00;stroke-width:2;"/>
   <line x1="495" y1="79" x2="498,53553390593" y2="82,535533905933" style="stroke:#c00;stroke-width:2;"/>
   <line x1="495" y1="79" x2="498,53553390593" y2="75,464466094067" style="stroke:#c00;stroke-width:2;"/>
   <line x1="843" y1="134" x2="853" y2="134" style="stroke:#bbb;stroke-width:1;"/>
   <line x1="992" y1="117" x2="1002" y2="117" style="stroke:#bbb;stroke-width:1;"/>
   <line x1="853" y1="134" x2="992" y2="117" style="stroke:#bbb;stroke-width:1;"/>
   <line x1="850,5" y1="134" x2="846,96446609407" y2="137,53553390593" style="stroke:#bbb;stroke-width:2;"/>
   <line x1="850,5" y1="134" x2="846,96446609407" y2="130,46446609407" style="stroke:#bbb;stroke-width:2;"/>
   <line x1="997" y1="117" x2="993,46446609407" y2="120,53553390593" style="stroke:#bbb;stroke-width:2;"/>
   <line x1="997" y1="117" x2="993,46446609407" y2="113,46446609407" style="stroke:#bbb;stroke-width:2;"/>
   <rect width="97" height="20" x="432" y="506" style="fill:#007;stroke:black;"/>
   <text width="97" height="20" x="437" y="520" style="fill:#fff;" font-family="Arial" font-size="16px"> comentarios</text>
   <rect width="97" height="20" x="432" y="526" style="fill:#aea;stroke:black;"/>
   <text width="97" height="20" x="437" y="540" style="fill:black;" font-family="Arial" font-size="16px">id</text>
   <rect width="97" height="20" x="432" y="546" style="fill:none;stroke:black;"/>
   <text width="97" height="20" x="437" y="560" style="fill:black;" font-family="Arial" font-size="16px">id_producto</text>
   <rect width="97" height="20" x="432" y="566" style="fill:none;stroke:black;"/>
   <text width="97" height="20" x="437" y="580" style="fill:black;" font-family="Arial" font-size="16px">comentario</text>
   <rect width="97" height="20" x="432" y="586" style="fill:none;stroke:black;"/>
   <text width="97" height="20" x="437" y="600" style="fill:black;" font-family="Arial" font-size="16px">usuario</text>
   <rect width="91" height="20" x="685" y="325" style="fill:#007;stroke:black;"/>
   <text width="91" height="20" x="690" y="339" style="fill:#fff;" font-family="Arial" font-size="16px"> marcas</text>
   <rect width="91" height="20" x="685" y="345" style="fill:#aea;stroke:black;"/>
   <text width="91" height="20" x="690" y="359" style="fill:black;" font-family="Arial" font-size="16px">id</text>
   <rect width="91" height="20" x="685" y="365" style="fill:none;stroke:black;"/>
   <text width="91" height="20" x="690" y="379" style="fill:black;" font-family="Arial" font-size="16px">nombre</text>
   <rect width="91" height="20" x="685" y="385" style="fill:none;stroke:black;"/>
   <text width="91" height="20" x="690" y="399" style="fill:black;" font-family="Arial" font-size="16px">descripcion</text>
   <rect width="133" height="20" x="46" y="16" style="fill:#007;stroke:black;"/>
   <text width="133" height="20" x="51" y="30" style="fill:#fff;" font-family="Arial" font-size="16px"> pedidos</text>
   <rect width="133" height="20" x="46" y="36" style="fill:#aea;stroke:black;"/>
   <text width="133" height="20" x="51" y="50" style="fill:black;" font-family="Arial" font-size="16px">id</text>
   <rect width="133" height="20" x="46" y="56" style="fill:none;stroke:black;"/>
   <text width="133" height="20" x="51" y="70" style="fill:black;" font-family="Arial" font-size="16px">numero_de_orden</text>
   <rect width="133" height="20" x="46" y="76" style="fill:none;stroke:black;"/>
   <text width="133" height="20" x="51" y="90" style="fill:black;" font-family="Arial" font-size="16px">fecha_de_compra</text>
   <rect width="133" height="20" x="46" y="96" style="fill:none;stroke:black;"/>
   <text width="133" height="20" x="51" y="110" style="fill:black;" font-family="Arial" font-size="16px">usuario_id</text>
   <rect width="74" height="20" x="1002" y="87" style="fill:#007;stroke:black;"/>
   <text width="74" height="20" x="1007" y="101" style="fill:#fff;" font-family="Arial" font-size="16px"> permisos</text>
   <rect width="74" height="20" x="1002" y="107" style="fill:#aea;stroke:black;"/>
   <text width="74" height="20" x="1007" y="121" style="fill:black;" font-family="Arial" font-size="16px">id</text>
   <rect width="74" height="20" x="1002" y="127" style="fill:none;stroke:black;"/>
   <text width="74" height="20" x="1007" y="141" style="fill:black;" font-family="Arial" font-size="16px">permiso</text>
   <rect width="112" height="20" x="352" y="249" style="fill:#007;stroke:black;"/>
   <text width="112" height="20" x="357" y="263" style="fill:#fff;" font-family="Arial" font-size="16px"> productos</text>
   <rect width="112" height="20" x="352" y="269" style="fill:#aea;stroke:black;"/>
   <text width="112" height="20" x="357" y="283" style="fill:black;" font-family="Arial" font-size="16px">id</text>
   <rect width="112" height="20" x="352" y="289" style="fill:none;stroke:black;"/>
   <text width="112" height="20" x="357" y="303" style="fill:black;" font-family="Arial" font-size="16px">nombre</text>
   <rect width="112" height="20" x="352" y="309" style="fill:none;stroke:black;"/>
   <text width="112" height="20" x="357" y="323" style="fill:black;" font-family="Arial" font-size="16px">descripcion</text>
   <rect width="112" height="20" x="352" y="329" style="fill:none;stroke:black;"/>
   <text width="112" height="20" x="357" y="343" style="fill:black;" font-family="Arial" font-size="16px">Genero</text>
   <rect width="112" height="20" x="352" y="349" style="fill:none;stroke:black;"/>
   <text width="112" height="20" x="357" y="363" style="fill:black;" font-family="Arial" font-size="16px">precio</text>
   <rect width="112" height="20" x="352" y="369" style="fill:none;stroke:black;"/>
   <text width="112" height="20" x="357" y="383" style="fill:black;" font-family="Arial" font-size="16px">marca_id</text>
   <rect width="112" height="20" x="352" y="389" style="fill:none;stroke:black;"/>
   <text width="112" height="20" x="357" y="403" style="fill:black;" font-family="Arial" font-size="16px">product_image</text>
   <rect width="112" height="20" x="352" y="409" style="fill:none;stroke:black;"/>
   <text width="112" height="20" x="357" y="423" style="fill:black;" font-family="Arial" font-size="16px">featured</text>
   <rect width="139" height="20" x="51" y="166" style="fill:#007;stroke:black;"/>
   <text width="139" height="20" x="56" y="180" style="fill:#fff;" font-family="Arial" font-size="16px"> productos_pedidos</text>
   <rect width="139" height="20" x="51" y="186" style="fill:#aea;stroke:black;"/>
   <text width="139" height="20" x="56" y="200" style="fill:black;" font-family="Arial" font-size="16px">id</text>
   <rect width="139" height="20" x="51" y="206" style="fill:none;stroke:black;"/>
   <text width="139" height="20" x="56" y="220" style="fill:black;" font-family="Arial" font-size="16px">pedido_id</text>
   <rect width="139" height="20" x="51" y="226" style="fill:none;stroke:black;"/>
   <text width="139" height="20" x="56" y="240" style="fill:black;" font-family="Arial" font-size="16px">producto_id</text>
   <rect width="139" height="20" x="51" y="246" style="fill:none;stroke:black;"/>
   <text width="139" height="20" x="56" y="260" style="fill:black;" font-family="Arial" font-size="16px">cantidad</text>
   <rect width="139" height="20" x="51" y="266" style="fill:none;stroke:black;"/>
   <text width="139" height="20" x="56" y="280" style="fill:black;" font-family="Arial" font-size="16px">precio</text>
   <rect width="138" height="20" x="352" y="49" style="fill:#007;stroke:black;"/>
   <text width="138" height="20" x="357" y="63" style="fill:#fff;" font-family="Arial" font-size="16px"> usuarios</text>
   <rect width="138" height="20" x="352" y="69" style="fill:#aea;stroke:black;"/>
   <text width="138" height="20" x="357" y="83" style="fill:black;" font-family="Arial" font-size="16px">id</text>
   <rect width="138" height="20" x="352" y="89" style="fill:none;stroke:black;"/>
   <text width="138" height="20" x="357" y="103" style="fill:black;" font-family="Arial" font-size="16px">nombre</text>
   <rect width="138" height="20" x="352" y="109" style="fill:none;stroke:black;"/>
   <text width="138" height="20" x="357" y="123" style="fill:black;" font-family="Arial" font-size="16px">correo_electronico</text>
   <rect width="138" height="20" x="352" y="129" style="fill:none;stroke:black;"/>
   <text width="138" height="20" x="357" y="143" style="fill:black;" font-family="Arial" font-size="16px">contrasena</text>
   <rect width="138" height="20" x="352" y="149" style="fill:none;stroke:black;"/>
   <text width="138" height="20" x="357" y="163" style="fill:black;" font-family="Arial" font-size="16px">direccion</text>
   <rect width="138" height="20" x="352" y="169" style="fill:none;stroke:black;"/>
   <text width="138" height="20" x="357" y="183" style="fill:black;" font-family="Arial" font-size="16px">telefono</text>
   <rect width="138" height="20" x="352" y="189" style="fill:none;stroke:black;"/>
   <text width="138" height="20" x="357" y="203" style="fill:black;" font-family="Arial" font-size="16px">estatus</text>
   <rect width="130" height="20" x="713" y="84" style="fill:#007;stroke:black;"/>
   <text width="130" height="20" x="718" y="98" style="fill:#fff;" font-family="Arial" font-size="16px"> usuarios_permiso</text>
   <rect width="130" height="20" x="713" y="104" style="fill:#aea;stroke:black;"/>
   <text width="130" height="20" x="718" y="118" style="fill:black;" font-family="Arial" font-size="16px">idUsuario</text>
   <rect width="130" height="20" x="713" y="124" style="fill:#aea;stroke:black;"/>
   <text width="130" height="20" x="718" y="138" style="fill:black;" font-family="Arial" font-size="16px">idPermiso</text>
</svg>
