<?xml version="1.0" encoding="us-ascii" standalone="no"?><svg xmlns="http://www.w3.org/2000/svg" xmlns:xlink="http://www.w3.org/1999/xlink" contentStyleType="text/css" height="704.4px" preserveAspectRatio="none" style="width:2633px;height:704px;background:#FFFFFF;" version="1.1" viewBox="0 0 2633 704" width="2633.4px" zoomAndPan="magnify"><defs/><g><!--cluster PFCMDM--><g id="cluster_PFCMDM"><path d="M5.1,244.2082 L44.1,244.2082 A2.25,2.25 0 0 1 45.6,245.7082 L49.8,258.9809 L2627.7,258.9809 A1.5,1.5 0 0 1 2629.2,260.4809 L2629.2,698.7082 A1.5,1.5 0 0 1 2627.7,700.2082 L5.1,700.2082 A1.5,1.5 0 0 1 3.6,698.7082 L3.6,245.7082 A1.5,1.5 0 0 1 5.1,244.2082 " fill="none" style="stroke:#000000;stroke-width:0.8999999999999999;"/><line style="stroke:#000000;stroke-width:0.8999999999999999;" x1="3.6" x2="49.8" y1="258.9809" y2="258.9809"/><text fill="#000000" font-family="sans-serif" font-size="8.4" font-weight="bold" lengthAdjust="spacing" textLength="38.4" x="6" y="254.4727">PFCMDM</text></g><!--cluster repository--><g id="cluster_repository"><path d="M1308.3,310.2082 L1352.1,310.2082 A2.25,2.25 0 0 1 1353.6,311.7082 L1357.8,324.9809 L2613.3,324.9809 A1.5,1.5 0 0 1 2614.8,326.4809 L2614.8,425.1082 A1.5,1.5 0 0 1 2613.3,426.6082 L1308.3,426.6082 A1.5,1.5 0 0 1 1306.8,425.1082 L1306.8,311.7082 A1.5,1.5 0 0 1 1308.3,310.2082 " fill="none" style="stroke:#000000;stroke-width:0.8999999999999999;"/><line style="stroke:#000000;stroke-width:0.8999999999999999;" x1="1306.8" x2="1357.8" y1="324.9809" y2="324.9809"/><text fill="#000000" font-family="sans-serif" font-size="8.4" font-weight="bold" lengthAdjust="spacing" textLength="43.2" x="1309.2" y="320.4727">repository</text></g><!--cluster ServiceImpl--><g id="cluster_ServiceImpl"><path d="M19.5,480.0082 L69.9,480.0082 A2.25,2.25 0 0 1 71.4,481.5082 L75.6,494.7809 L1412.1,494.7809 A1.5,1.5 0 0 1 1413.6,496.2809 L1413.6,684.3082 A1.5,1.5 0 0 1 1412.1,685.8082 L19.5,685.8082 A1.5,1.5 0 0 1 18,684.3082 L18,481.5082 A1.5,1.5 0 0 1 19.5,480.0082 " fill="none" style="stroke:#000000;stroke-width:0.8999999999999999;"/><line style="stroke:#000000;stroke-width:0.8999999999999999;" x1="18" x2="75.6" y1="494.7809" y2="494.7809"/><text fill="#000000" font-family="sans-serif" font-size="8.4" font-weight="bold" lengthAdjust="spacing" textLength="49.8" x="20.4" y="490.2727">ServiceImpl</text></g><!--cluster Service--><g id="cluster_Service"><path d="M19.5,271.2082 L52.5,271.2082 A2.25,2.25 0 0 1 54,272.7082 L58.2,285.9809 L1290.9,285.9809 A1.5,1.5 0 0 1 1292.4,287.4809 L1292.4,464.1082 A1.5,1.5 0 0 1 1290.9,465.6082 L19.5,465.6082 A1.5,1.5 0 0 1 18,464.1082 L18,272.7082 A1.5,1.5 0 0 1 19.5,271.2082 " fill="none" style="stroke:#000000;stroke-width:0.8999999999999999;"/><line style="stroke:#000000;stroke-width:0.8999999999999999;" x1="18" x2="58.2" y1="285.9809" y2="285.9809"/><text fill="#000000" font-family="sans-serif" font-size="8.4" font-weight="bold" lengthAdjust="spacing" textLength="32.4" x="20.4" y="281.4727">Service</text></g><!--cluster org--><g id="cluster_org"><path d="M1856.7,3.6082 L1871.7,3.6082 A2.25,2.25 0 0 1 1873.2,5.1082 L1877.4,18.3809 L2061.3,18.3809 A1.5,1.5 0 0 1 2062.8,19.8809 L2062.8,228.3082 A1.5,1.5 0 0 1 2061.3,229.8082 L1856.7,229.8082 A1.5,1.5 0 0 1 1855.2,228.3082 L1855.2,5.1082 A1.5,1.5 0 0 1 1856.7,3.6082 " fill="none" style="stroke:#000000;stroke-width:0.8999999999999999;"/><line style="stroke:#000000;stroke-width:0.8999999999999999;" x1="1855.2" x2="1877.4" y1="18.3809" y2="18.3809"/><text fill="#000000" font-family="sans-serif" font-size="8.4" font-weight="bold" lengthAdjust="spacing" textLength="14.4" x="1857.6" y="13.8727">org</text></g><!--cluster springframework--><g id="cluster_springframework"><path d="M1871.1,30.6082 L1943.1,30.6082 A2.25,2.25 0 0 1 1944.6,32.1082 L1948.8,45.3809 L2046.9,45.3809 A1.5,1.5 0 0 1 2048.4,46.8809 L2048.4,213.9082 A1.5,1.5 0 0 1 2046.9,215.4082 L1871.1,215.4082 A1.5,1.5 0 0 1 1869.6,213.9082 L1869.6,32.1082 A1.5,1.5 0 0 1 1871.1,30.6082 " fill="none" style="stroke:#000000;stroke-width:0.8999999999999999;"/><line style="stroke:#000000;stroke-width:0.8999999999999999;" x1="1869.6" x2="1948.8" y1="45.3809" y2="45.3809"/><text fill="#000000" font-family="sans-serif" font-size="8.4" font-weight="bold" lengthAdjust="spacing" textLength="71.4" x="1872" y="40.8727">springframework</text></g><!--cluster data--><g id="cluster_data"><path d="M1885.5,57.6082 L1904.1,57.6082 A2.25,2.25 0 0 1 1905.6,59.1082 L1909.8,72.3809 L2032.5,72.3809 A1.5,1.5 0 0 1 2034,73.8809 L2034,199.5082 A1.5,1.5 0 0 1 2032.5,201.0082 L1885.5,201.0082 A1.5,1.5 0 0 1 1884,199.5082 L1884,59.1082 A1.5,1.5 0 0 1 1885.5,57.6082 " fill="none" style="stroke:#000000;stroke-width:0.8999999999999999;"/><line style="stroke:#000000;stroke-width:0.8999999999999999;" x1="1884" x2="1909.8" y1="72.3809" y2="72.3809"/><text fill="#000000" font-family="sans-serif" font-size="8.4" font-weight="bold" lengthAdjust="spacing" textLength="18" x="1886.4" y="67.8727">data</text></g><!--cluster jpa--><g id="cluster_jpa"><path d="M1899.9,84.6082 L1913.1,84.6082 A2.25,2.25 0 0 1 1914.6,86.1082 L1918.8,99.3809 L2018.1,99.3809 A1.5,1.5 0 0 1 2019.6,100.8809 L2019.6,185.1082 A1.5,1.5 0 0 1 2018.1,186.6082 L1899.9,186.6082 A1.5,1.5 0 0 1 1898.4,185.1082 L1898.4,86.1082 A1.5,1.5 0 0 1 1899.9,84.6082 " fill="none" style="stroke:#000000;stroke-width:0.8999999999999999;"/><line style="stroke:#000000;stroke-width:0.8999999999999999;" x1="1898.4" x2="1918.8" y1="99.3809" y2="99.3809"/><text fill="#000000" font-family="sans-serif" font-size="8.4" font-weight="bold" lengthAdjust="spacing" textLength="12.6" x="1900.8" y="94.8727">jpa</text></g><!--cluster repository--><g id="cluster_repository"><path d="M1914.3,111.6082 L1958.1,111.6082 A2.25,2.25 0 0 1 1959.6,113.1082 L1963.8,126.3809 L2003.7,126.3809 A1.5,1.5 0 0 1 2005.2,127.8809 L2005.2,170.7082 A1.5,1.5 0 0 1 2003.7,172.2082 L1914.3,172.2082 A1.5,1.5 0 0 1 1912.8,170.7082 L1912.8,113.1082 A1.5,1.5 0 0 1 1914.3,111.6082 " fill="none" style="stroke:#000000;stroke-width:0.8999999999999999;"/><line style="stroke:#000000;stroke-width:0.8999999999999999;" x1="1912.8" x2="1963.8" y1="126.3809" y2="126.3809"/><text fill="#000000" font-family="sans-serif" font-size="8.4" font-weight="bold" lengthAdjust="spacing" textLength="43.2" x="1915.2" y="121.8727">repository</text></g><!--class BrandRepository--><g id="elem_BrandRepository"><rect codeLine="1" fill="#F1F1F1" height="39.9727" id="BrandRepository" rx="1.5" ry="1.5" style="stroke:#181818;stroke-width:0.3;" width="185.4" x="2419.5" y="354.6082"/><ellipse cx="2477.85" cy="364.2082" fill="#B4A7E5" rx="6.6" ry="6.6" style="stroke:#181818;stroke-width:0.6;"/><path d="M2478.4219,362.1926 L2478.4219,366.1863 L2479.4531,366.1863 Q2479.8188,366.1863 2479.9781,366.327 Q2480.1375,366.4676 2480.1375,366.702 Q2480.1375,366.927 2479.9781,367.0676 Q2479.8188,367.2082 2479.4531,367.2082 L2476.3688,367.2082 Q2476.0031,367.2082 2475.8438,367.0676 Q2475.6844,366.927 2475.6844,366.6926 Q2475.6844,366.4676 2475.8438,366.327 Q2476.0031,366.1863 2476.3688,366.1863 L2477.4,366.1863 L2477.4,362.1926 L2476.3688,362.1926 Q2476.0031,362.1926 2475.8438,362.052 Q2475.6844,361.9113 2475.6844,361.677 Q2475.6844,361.452 2475.8438,361.3113 Q2476.0031,361.1707 2476.3688,361.1707 L2479.4531,361.1707 Q2479.8188,361.1707 2479.9781,361.3113 Q2480.1375,361.452 2480.1375,361.677 Q2480.1375,361.9113 2479.9781,362.052 Q2479.8188,362.1926 2479.4531,362.1926 L2478.4219,362.1926 Z " fill="#000000"/><text fill="#000000" font-family="sans-serif" font-size="8.4" font-style="italic" lengthAdjust="spacing" textLength="63.6" x="2490.15" y="367.6863">BrandRepository</text><line style="stroke:#181818;stroke-width:0.3;" x1="2420.1" x2="2604.3" y1="373.8082" y2="373.8082"/><line style="stroke:#181818;stroke-width:0.3;" x1="2420.1" x2="2604.3" y1="378.6082" y2="378.6082"/><polygon fill="#4177AF" points="2426.1,385.0945,2423.7,388.6945,2428.5,388.6945" style="stroke:#1963A0;stroke-width:0.6;"/><text fill="#000000" font-family="sans-serif" font-size="8.4" lengthAdjust="spacing" textLength="169.8" x="2431.5" y="390.0727">List&lt;Brand&gt; findByNombreContaining(String)</text></g><!--class PedidosRepository--><g id="elem_PedidosRepository"><rect codeLine="13" fill="#F1F1F1" height="39.9727" id="PedidosRepository" rx="1.5" ry="1.5" style="stroke:#181818;stroke-width:0.3;" width="117" x="2281.5" y="354.6082"/><ellipse cx="2302.38" cy="364.2082" fill="#B4A7E5" rx="6.6" ry="6.6" style="stroke:#181818;stroke-width:0.6;"/><path d="M2302.9519,362.1926 L2302.9519,366.1863 L2303.9831,366.1863 Q2304.3488,366.1863 2304.5081,366.327 Q2304.6675,366.4676 2304.6675,366.702 Q2304.6675,366.927 2304.5081,367.0676 Q2304.3488,367.2082 2303.9831,367.2082 L2300.8988,367.2082 Q2300.5331,367.2082 2300.3738,367.0676 Q2300.2144,366.927 2300.2144,366.6926 Q2300.2144,366.4676 2300.3738,366.327 Q2300.5331,366.1863 2300.8988,366.1863 L2301.93,366.1863 L2301.93,362.1926 L2300.8988,362.1926 Q2300.5331,362.1926 2300.3738,362.052 Q2300.2144,361.9113 2300.2144,361.677 Q2300.2144,361.452 2300.3738,361.3113 Q2300.5331,361.1707 2300.8988,361.1707 L2303.9831,361.1707 Q2304.3488,361.1707 2304.5081,361.3113 Q2304.6675,361.452 2304.6675,361.677 Q2304.6675,361.9113 2304.5081,362.052 Q2304.3488,362.1926 2303.9831,362.1926 L2302.9519,362.1926 Z " fill="#000000"/><text fill="#000000" font-family="sans-serif" font-size="8.4" font-style="italic" lengthAdjust="spacing" textLength="71.4" x="2313.42" y="367.6863">PedidosRepository</text><line style="stroke:#181818;stroke-width:0.3;" x1="2282.1" x2="2397.9" y1="373.8082" y2="373.8082"/><line style="stroke:#181818;stroke-width:0.3;" x1="2282.1" x2="2397.9" y1="378.6082" y2="378.6082"/><polygon fill="#4177AF" points="2288.1,385.0945,2285.7,388.6945,2290.5,388.6945" style="stroke:#1963A0;stroke-width:0.6;"/><text fill="#000000" font-family="sans-serif" font-size="8.4" lengthAdjust="spacing" textLength="101.4" x="2293.5" y="390.0727">long countByUsuario(User)</text></g><!--class UserRepository--><g id="elem_UserRepository"><rect codeLine="16" fill="#F1F1F1" height="51.1453" id="UserRepository" rx="1.5" ry="1.5" style="stroke:#181818;stroke-width:0.3;" width="180" x="2080.2" y="349.2082"/><ellipse cx="2138.25" cy="358.8082" fill="#B4A7E5" rx="6.6" ry="6.6" style="stroke:#181818;stroke-width:0.6;"/><path d="M2138.8219,356.7926 L2138.8219,360.7863 L2139.8531,360.7863 Q2140.2188,360.7863 2140.3781,360.927 Q2140.5375,361.0676 2140.5375,361.302 Q2140.5375,361.527 2140.3781,361.6676 Q2140.2188,361.8082 2139.8531,361.8082 L2136.7687,361.8082 Q2136.4031,361.8082 2136.2438,361.6676 Q2136.0844,361.527 2136.0844,361.2926 Q2136.0844,361.0676 2136.2438,360.927 Q2136.4031,360.7863 2136.7687,360.7863 L2137.8,360.7863 L2137.8,356.7926 L2136.7687,356.7926 Q2136.4031,356.7926 2136.2438,356.652 Q2136.0844,356.5113 2136.0844,356.277 Q2136.0844,356.052 2136.2438,355.9113 Q2136.4031,355.7707 2136.7687,355.7707 L2139.8531,355.7707 Q2140.2188,355.7707 2140.3781,355.9113 Q2140.5375,356.052 2140.5375,356.277 Q2140.5375,356.5113 2140.3781,356.652 Q2140.2188,356.7926 2139.8531,356.7926 L2138.8219,356.7926 Z " fill="#000000"/><text fill="#000000" font-family="sans-serif" font-size="8.4" font-style="italic" lengthAdjust="spacing" textLength="58.8" x="2150.55" y="362.2863">UserRepository</text><line style="stroke:#181818;stroke-width:0.3;" x1="2080.8" x2="2259.6" y1="368.4082" y2="368.4082"/><line style="stroke:#181818;stroke-width:0.3;" x1="2080.8" x2="2259.6" y1="373.2082" y2="373.2082"/><polygon fill="#4177AF" points="2086.8,379.6945,2084.4,383.2945,2089.2,383.2945" style="stroke:#1963A0;stroke-width:0.6;"/><text fill="#000000" font-family="sans-serif" font-size="8.4" lengthAdjust="spacing" textLength="100.8" x="2092.2" y="384.6727">User findByNombre(String)</text><polygon fill="#4177AF" points="2086.8,390.8672,2084.4,394.4672,2089.2,394.4672" style="stroke:#1963A0;stroke-width:0.6;"/><text fill="#000000" font-family="sans-serif" font-size="8.4" lengthAdjust="spacing" textLength="164.4" x="2092.2" y="395.8453">List&lt;User&gt; findByNombreContaining(String)</text></g><!--class ProductosPedidoRepository--><g id="elem_ProductosPedidoRepository"><rect codeLine="60" fill="#F1F1F1" height="39.9727" id="ProductosPedidoRepository" rx="1.5" ry="1.5" style="stroke:#181818;stroke-width:0.3;" width="200.4" x="1858.8" y="354.6082"/><ellipse cx="1903.65" cy="364.2082" fill="#B4A7E5" rx="6.6" ry="6.6" style="stroke:#181818;stroke-width:0.6;"/><path d="M1904.2219,362.1926 L1904.2219,366.1863 L1905.2531,366.1863 Q1905.6187,366.1863 1905.7781,366.327 Q1905.9375,366.4676 1905.9375,366.702 Q1905.9375,366.927 1905.7781,367.0676 Q1905.6187,367.2082 1905.2531,367.2082 L1902.1687,367.2082 Q1901.8031,367.2082 1901.6438,367.0676 Q1901.4844,366.927 1901.4844,366.6926 Q1901.4844,366.4676 1901.6438,366.327 Q1901.8031,366.1863 1902.1687,366.1863 L1903.2,366.1863 L1903.2,362.1926 L1902.1687,362.1926 Q1901.8031,362.1926 1901.6438,362.052 Q1901.4844,361.9113 1901.4844,361.677 Q1901.4844,361.452 1901.6438,361.3113 Q1901.8031,361.1707 1902.1687,361.1707 L1905.2531,361.1707 Q1905.6187,361.1707 1905.7781,361.3113 Q1905.9375,361.452 1905.9375,361.677 Q1905.9375,361.9113 1905.7781,362.052 Q1905.6187,362.1926 1905.2531,362.1926 L1904.2219,362.1926 Z " fill="#000000"/><text fill="#000000" font-family="sans-serif" font-size="8.4" font-style="italic" lengthAdjust="spacing" textLength="105.6" x="1915.95" y="367.6863">ProductosPedidoRepository</text><line style="stroke:#181818;stroke-width:0.3;" x1="1859.4" x2="2058.6" y1="373.8082" y2="373.8082"/><line style="stroke:#181818;stroke-width:0.3;" x1="1859.4" x2="2058.6" y1="378.6082" y2="378.6082"/><polygon fill="#4177AF" points="1865.4,385.0945,1863,388.6945,1867.8,388.6945" style="stroke:#1963A0;stroke-width:0.6;"/><text fill="#000000" font-family="sans-serif" font-size="8.4" lengthAdjust="spacing" textLength="184.8" x="1870.8" y="390.0727">List&lt;Productos_pedidos&gt; findByPedido(Pedidos)</text></g><!--class ComentarioRepository--><g id="elem_ComentarioRepository"><rect codeLine="71" fill="#F1F1F1" height="39.9727" id="ComentarioRepository" rx="1.5" ry="1.5" style="stroke:#181818;stroke-width:0.3;" width="181.8" x="1655.7" y="354.6082"/><ellipse cx="1701.75" cy="364.2082" fill="#B4A7E5" rx="6.6" ry="6.6" style="stroke:#181818;stroke-width:0.6;"/><path d="M1702.3219,362.1926 L1702.3219,366.1863 L1703.3531,366.1863 Q1703.7188,366.1863 1703.8781,366.327 Q1704.0375,366.4676 1704.0375,366.702 Q1704.0375,366.927 1703.8781,367.0676 Q1703.7188,367.2082 1703.3531,367.2082 L1700.2688,367.2082 Q1699.9031,367.2082 1699.7437,367.0676 Q1699.5844,366.927 1699.5844,366.6926 Q1699.5844,366.4676 1699.7437,366.327 Q1699.9031,366.1863 1700.2688,366.1863 L1701.3,366.1863 L1701.3,362.1926 L1700.2688,362.1926 Q1699.9031,362.1926 1699.7437,362.052 Q1699.5844,361.9113 1699.5844,361.677 Q1699.5844,361.452 1699.7437,361.3113 Q1699.9031,361.1707 1700.2688,361.1707 L1703.3531,361.1707 Q1703.7188,361.1707 1703.8781,361.3113 Q1704.0375,361.452 1704.0375,361.677 Q1704.0375,361.9113 1703.8781,362.052 Q1703.7188,362.1926 1703.3531,362.1926 L1702.3219,362.1926 Z " fill="#000000"/><text fill="#000000" font-family="sans-serif" font-size="8.4" font-style="italic" lengthAdjust="spacing" textLength="84.6" x="1714.05" y="367.6863">ComentarioRepository</text><line style="stroke:#181818;stroke-width:0.3;" x1="1656.3" x2="1836.9" y1="373.8082" y2="373.8082"/><line style="stroke:#181818;stroke-width:0.3;" x1="1656.3" x2="1836.9" y1="378.6082" y2="378.6082"/><polygon fill="#4177AF" points="1662.3,385.0945,1659.9,388.6945,1664.7,388.6945" style="stroke:#1963A0;stroke-width:0.6;"/><text fill="#000000" font-family="sans-serif" font-size="8.4" lengthAdjust="spacing" textLength="166.2" x="1667.7" y="390.0727">List&lt;Comentarios&gt; findByProducto(Product)</text></g><!--class ProductRepository--><g id="elem_ProductRepository"><rect codeLine="105" fill="#F1F1F1" height="84.6633" id="ProductRepository" rx="1.5" ry="1.5" style="stroke:#181818;stroke-width:0.3;" width="202.2" x="1432.5" y="332.4082"/><ellipse cx="1495.95" cy="342.0082" fill="#B4A7E5" rx="6.6" ry="6.6" style="stroke:#181818;stroke-width:0.6;"/><path d="M1496.5219,339.9926 L1496.5219,343.9863 L1497.5531,343.9863 Q1497.9188,343.9863 1498.0781,344.127 Q1498.2375,344.2676 1498.2375,344.502 Q1498.2375,344.727 1498.0781,344.8676 Q1497.9188,345.0082 1497.5531,345.0082 L1494.4688,345.0082 Q1494.1031,345.0082 1493.9438,344.8676 Q1493.7844,344.727 1493.7844,344.4926 Q1493.7844,344.2676 1493.9438,344.127 Q1494.1031,343.9863 1494.4688,343.9863 L1495.5,343.9863 L1495.5,339.9926 L1494.4688,339.9926 Q1494.1031,339.9926 1493.9438,339.852 Q1493.7844,339.7113 1493.7844,339.477 Q1493.7844,339.252 1493.9438,339.1113 Q1494.1031,338.9707 1494.4688,338.9707 L1497.5531,338.9707 Q1497.9188,338.9707 1498.0781,339.1113 Q1498.2375,339.252 1498.2375,339.477 Q1498.2375,339.7113 1498.0781,339.852 Q1497.9188,339.9926 1497.5531,339.9926 L1496.5219,339.9926 Z " fill="#000000"/><text fill="#000000" font-family="sans-serif" font-size="8.4" font-style="italic" lengthAdjust="spacing" textLength="70.2" x="1508.25" y="345.4863">ProductRepository</text><line style="stroke:#181818;stroke-width:0.3;" x1="1433.1" x2="1634.1" y1="351.6082" y2="351.6082"/><line style="stroke:#181818;stroke-width:0.3;" x1="1433.1" x2="1634.1" y1="356.4082" y2="356.4082"/><polygon fill="#4177AF" points="1439.1,362.8945,1436.7,366.4945,1441.5,366.4945" style="stroke:#1963A0;stroke-width:0.6;"/><text fill="#000000" font-family="sans-serif" font-size="8.4" lengthAdjust="spacing" textLength="186.6" x="1444.5" y="367.8727">Page&lt;Product&gt; findByGenero(Genero,Pageable)</text><polygon fill="#4177AF" points="1439.1,374.0672,1436.7,377.6672,1441.5,377.6672" style="stroke:#1963A0;stroke-width:0.6;"/><text fill="#000000" font-family="sans-serif" font-size="8.4" lengthAdjust="spacing" textLength="127.8" x="1444.5" y="379.0453">List&lt;Product&gt; findByFeatured(int)</text><polygon fill="#4177AF" points="1439.1,385.2398,1436.7,388.8398,1441.5,388.8398" style="stroke:#1963A0;stroke-width:0.6;"/><text fill="#000000" font-family="sans-serif" font-size="8.4" lengthAdjust="spacing" textLength="112.8" x="1444.5" y="390.218">Product findByNombre(String)</text><polygon fill="#4177AF" points="1439.1,396.4125,1436.7,400.0125,1441.5,400.0125" style="stroke:#1963A0;stroke-width:0.6;"/><text fill="#000000" font-family="sans-serif" font-size="8.4" lengthAdjust="spacing" textLength="101.4" x="1444.5" y="401.3906">long countByMarca(Brand)</text><polygon fill="#4177AF" points="1439.1,407.5852,1436.7,411.1852,1441.5,411.1852" style="stroke:#1963A0;stroke-width:0.6;"/><text fill="#000000" font-family="sans-serif" font-size="8.4" lengthAdjust="spacing" textLength="176.4" x="1444.5" y="412.5633">List&lt;Product&gt; findByNombreContaining(String)</text></g><!--class PermisosRepository--><g id="elem_PermisosRepository"><rect codeLine="120" fill="#F1F1F1" height="28.8" id="PermisosRepository" rx="1.5" ry="1.5" style="stroke:#181818;stroke-width:0.3;" width="94.8" x="1316.4" y="360.3082"/><ellipse cx="1325.4" cy="369.9082" fill="#B4A7E5" rx="6.6" ry="6.6" style="stroke:#181818;stroke-width:0.6;"/><path d="M1325.9719,367.8926 L1325.9719,371.8863 L1327.0031,371.8863 Q1327.3687,371.8863 1327.5281,372.027 Q1327.6875,372.1676 1327.6875,372.402 Q1327.6875,372.627 1327.5281,372.7676 Q1327.3687,372.9082 1327.0031,372.9082 L1323.9188,372.9082 Q1323.5531,372.9082 1323.3938,372.7676 Q1323.2344,372.627 1323.2344,372.3926 Q1323.2344,372.1676 1323.3938,372.027 Q1323.5531,371.8863 1323.9188,371.8863 L1324.95,371.8863 L1324.95,367.8926 L1323.9188,367.8926 Q1323.5531,367.8926 1323.3938,367.752 Q1323.2344,367.6113 1323.2344,367.377 Q1323.2344,367.152 1323.3938,367.0113 Q1323.5531,366.8707 1323.9188,366.8707 L1327.0031,366.8707 Q1327.3687,366.8707 1327.5281,367.0113 Q1327.6875,367.152 1327.6875,367.377 Q1327.6875,367.6113 1327.5281,367.752 Q1327.3687,367.8926 1327.0031,367.8926 L1325.9719,367.8926 Z " fill="#000000"/><text fill="#000000" font-family="sans-serif" font-size="8.4" font-style="italic" lengthAdjust="spacing" textLength="75.6" x="1333.8" y="373.3863">PermisosRepository</text><line style="stroke:#181818;stroke-width:0.3;" x1="1317" x2="1410.6" y1="379.5082" y2="379.5082"/><line style="stroke:#181818;stroke-width:0.3;" x1="1317" x2="1410.6" y1="384.3082" y2="384.3082"/></g><!--class BrandServiceImpl--><g id="elem_BrandServiceImpl"><rect codeLine="4" fill="#F1F1F1" height="107.0086" id="BrandServiceImpl" rx="1.5" ry="1.5" style="stroke:#181818;stroke-width:0.3;" width="175.8" x="1227.9" y="535.8082"/><ellipse cx="1280.25" cy="545.4082" fill="#ADD1B2" rx="6.6" ry="6.6" style="stroke:#181818;stroke-width:0.6;"/><path d="M1281.9094,542.9332 Q1282.0031,542.802 1282.1156,542.7363 Q1282.2281,542.6707 1282.3594,542.6707 Q1282.5844,542.6707 1282.725,542.8301 Q1282.8656,542.9801 1282.8656,543.3457 L1282.8656,544.2176 Q1282.8656,544.5832 1282.725,544.7426 Q1282.5844,544.902 1282.3594,544.902 Q1282.1531,544.902 1282.0313,544.7801 Q1281.9094,544.6676 1281.8438,544.3582 Q1281.8156,544.1426 1281.7031,544.0301 Q1281.5063,543.8051 1281.1406,543.6738 Q1280.775,543.5426 1280.4,543.5426 Q1279.9406,543.5426 1279.5562,543.7395 Q1279.1812,543.9363 1278.8813,544.3863 Q1278.5906,544.8363 1278.5906,545.4551 L1278.5906,546.1113 Q1278.5906,546.852 1279.125,547.3488 Q1279.6594,547.8363 1280.6156,547.8363 Q1281.1781,547.8363 1281.5719,547.6863 Q1281.8062,547.5926 1282.0594,547.3301 Q1282.2188,547.1707 1282.3031,547.1238 Q1282.3969,547.077 1282.5188,547.077 Q1282.7156,547.077 1282.8656,547.2363 Q1283.025,547.3863 1283.025,547.5926 Q1283.025,547.7988 1282.8188,548.0426 Q1282.5188,548.3895 1282.0406,548.5863 Q1281.3938,548.8582 1280.6156,548.8582 Q1279.7063,548.8582 1278.9844,548.4832 Q1278.3938,548.1832 1277.9813,547.5457 Q1277.5688,546.8988 1277.5688,546.1301 L1277.5688,545.4363 Q1277.5688,544.6395 1277.9344,543.9551 Q1278.3094,543.2613 1278.9656,542.8957 Q1279.6219,542.5207 1280.3625,542.5207 Q1280.8031,542.5207 1281.1875,542.6238 Q1281.5813,542.7176 1281.9094,542.9332 Z " fill="#000000"/><text fill="#000000" font-family="sans-serif" font-size="8.4" lengthAdjust="spacing" textLength="66" x="1292.55" y="548.8863">BrandServiceImpl</text><line style="stroke:#181818;stroke-width:0.3;" x1="1228.5" x2="1403.1" y1="555.0082" y2="555.0082"/><polygon fill="none" points="1234.5,561.4945,1232.1,565.0945,1236.9,565.0945" style="stroke:#1963A0;stroke-width:0.6;"/><text fill="#000000" font-family="sans-serif" font-size="8.4" lengthAdjust="spacing" textLength="129" x="1239.9" y="566.4727">BrandRepository brandRepository</text><line style="stroke:#181818;stroke-width:0.3;" x1="1228.5" x2="1403.1" y1="570.9809" y2="570.9809"/><ellipse cx="1234.5" cy="579.8672" fill="#84BE84" rx="1.8" ry="1.8" style="stroke:#038048;stroke-width:0.6;"/><text fill="#000000" font-family="sans-serif" font-size="8.4" lengthAdjust="spacing" textLength="103.8" x="1239.9" y="582.4453">List&lt;Brand&gt; findAllBrands()</text><ellipse cx="1234.5" cy="591.0398" fill="#84BE84" rx="1.8" ry="1.8" style="stroke:#038048;stroke-width:0.6;"/><text fill="#000000" font-family="sans-serif" font-size="8.4" lengthAdjust="spacing" textLength="87.6" x="1239.9" y="593.618">void saveBrand(Brand)</text><ellipse cx="1234.5" cy="602.2125" fill="#84BE84" rx="1.8" ry="1.8" style="stroke:#038048;stroke-width:0.6;"/><text fill="#000000" font-family="sans-serif" font-size="8.4" lengthAdjust="spacing" textLength="72.6" x="1239.9" y="604.7906">long countBrands()</text><ellipse cx="1234.5" cy="613.3852" fill="#84BE84" rx="1.8" ry="1.8" style="stroke:#038048;stroke-width:0.6;"/><text fill="#000000" font-family="sans-serif" font-size="8.4" lengthAdjust="spacing" textLength="70.2" x="1239.9" y="615.9633">Brand findById(int)</text><ellipse cx="1234.5" cy="624.5578" fill="#84BE84" rx="1.8" ry="1.8" style="stroke:#038048;stroke-width:0.6;"/><text fill="#000000" font-family="sans-serif" font-size="8.4" lengthAdjust="spacing" textLength="79.2" x="1239.9" y="627.1359">void deleteBrand(int)</text><ellipse cx="1234.5" cy="635.7305" fill="#84BE84" rx="1.8" ry="1.8" style="stroke:#038048;stroke-width:0.6;"/><text fill="#000000" font-family="sans-serif" font-size="8.4" lengthAdjust="spacing" textLength="160.2" x="1239.9" y="638.3086">List&lt;Brand&gt; findNombreContaining(String)</text></g><!--class ProductServiceImpl--><g id="elem_ProductServiceImpl"><rect codeLine="20" fill="#F1F1F1" height="174.0445" id="ProductServiceImpl" rx="1.5" ry="1.5" style="stroke:#181818;stroke-width:0.3;" width="182.4" x="1024.2" y="502.2082"/><ellipse cx="1076.55" cy="511.8082" fill="#ADD1B2" rx="6.6" ry="6.6" style="stroke:#181818;stroke-width:0.6;"/><path d="M1078.2094,509.3332 Q1078.3031,509.202 1078.4156,509.1363 Q1078.5281,509.0707 1078.6594,509.0707 Q1078.8844,509.0707 1079.025,509.2301 Q1079.1656,509.3801 1079.1656,509.7457 L1079.1656,510.6176 Q1079.1656,510.9832 1079.025,511.1426 Q1078.8844,511.302 1078.6594,511.302 Q1078.4531,511.302 1078.3313,511.1801 Q1078.2094,511.0676 1078.1438,510.7582 Q1078.1156,510.5426 1078.0031,510.4301 Q1077.8062,510.2051 1077.4406,510.0738 Q1077.075,509.9426 1076.7,509.9426 Q1076.2406,509.9426 1075.8563,510.1395 Q1075.4813,510.3363 1075.1812,510.7863 Q1074.8906,511.2363 1074.8906,511.8551 L1074.8906,512.5113 Q1074.8906,513.252 1075.425,513.7488 Q1075.9594,514.2363 1076.9156,514.2363 Q1077.4781,514.2363 1077.8719,514.0863 Q1078.1063,513.9926 1078.3594,513.7301 Q1078.5188,513.5707 1078.6031,513.5238 Q1078.6969,513.477 1078.8188,513.477 Q1079.0156,513.477 1079.1656,513.6363 Q1079.325,513.7863 1079.325,513.9926 Q1079.325,514.1988 1079.1187,514.4426 Q1078.8188,514.7895 1078.3406,514.9863 Q1077.6938,515.2582 1076.9156,515.2582 Q1076.0063,515.2582 1075.2844,514.8832 Q1074.6938,514.5832 1074.2813,513.9457 Q1073.8687,513.2988 1073.8687,512.5301 L1073.8687,511.8363 Q1073.8687,511.0395 1074.2344,510.3551 Q1074.6094,509.6613 1075.2656,509.2957 Q1075.9219,508.9207 1076.6625,508.9207 Q1077.1031,508.9207 1077.4875,509.0238 Q1077.8813,509.1176 1078.2094,509.3332 Z " fill="#000000"/><text fill="#000000" font-family="sans-serif" font-size="8.4" lengthAdjust="spacing" textLength="72.6" x="1088.85" y="515.2863">ProductServiceImpl</text><line style="stroke:#181818;stroke-width:0.3;" x1="1024.8" x2="1206" y1="521.4082" y2="521.4082"/><polygon fill="none" points="1030.8,527.8945,1028.4,531.4945,1033.2,531.4945" style="stroke:#1963A0;stroke-width:0.6;"/><text fill="#000000" font-family="sans-serif" font-size="8.4" lengthAdjust="spacing" textLength="142.2" x="1036.2" y="532.8727">ProductRepository productRepository</text><line style="stroke:#181818;stroke-width:0.3;" x1="1024.8" x2="1206" y1="537.3809" y2="537.3809"/><ellipse cx="1030.8" cy="546.2672" fill="#84BE84" rx="1.8" ry="1.8" style="stroke:#038048;stroke-width:0.6;"/><text fill="#000000" font-family="sans-serif" font-size="8.4" lengthAdjust="spacing" textLength="100.8" x="1036.2" y="548.8453">void saveProduct(Product)</text><ellipse cx="1030.8" cy="557.4398" fill="#84BE84" rx="1.8" ry="1.8" style="stroke:#038048;stroke-width:0.6;"/><text fill="#000000" font-family="sans-serif" font-size="8.4" lengthAdjust="spacing" textLength="96.6" x="1036.2" y="560.018">List&lt;Product&gt; findProds()</text><ellipse cx="1030.8" cy="568.6125" fill="#84BE84" rx="1.8" ry="1.8" style="stroke:#038048;stroke-width:0.6;"/><text fill="#000000" font-family="sans-serif" font-size="8.4" lengthAdjust="spacing" textLength="129" x="1036.2" y="571.1906">Page&lt;Product&gt; paginacion(int,int)</text><ellipse cx="1030.8" cy="579.7852" fill="#84BE84" rx="1.8" ry="1.8" style="stroke:#038048;stroke-width:0.6;"/><text fill="#000000" font-family="sans-serif" font-size="8.4" lengthAdjust="spacing" textLength="152.4" x="1036.2" y="582.3633">Page&lt;Product&gt; findProdsWoman(int,int)</text><ellipse cx="1030.8" cy="590.9578" fill="#84BE84" rx="1.8" ry="1.8" style="stroke:#038048;stroke-width:0.6;"/><text fill="#000000" font-family="sans-serif" font-size="8.4" lengthAdjust="spacing" textLength="139.8" x="1036.2" y="593.5359">Page&lt;Product&gt; findProdsMen(int,int)</text><ellipse cx="1030.8" cy="602.1305" fill="#84BE84" rx="1.8" ry="1.8" style="stroke:#038048;stroke-width:0.6;"/><text fill="#000000" font-family="sans-serif" font-size="8.4" lengthAdjust="spacing" textLength="109.2" x="1036.2" y="604.7086">List&lt;Product&gt; findFeatured()</text><ellipse cx="1030.8" cy="613.3031" fill="#84BE84" rx="1.8" ry="1.8" style="stroke:#038048;stroke-width:0.6;"/><text fill="#000000" font-family="sans-serif" font-size="8.4" lengthAdjust="spacing" textLength="105" x="1036.2" y="615.8813">Product findByName(String)</text><ellipse cx="1030.8" cy="624.4758" fill="#84BE84" rx="1.8" ry="1.8" style="stroke:#038048;stroke-width:0.6;"/><text fill="#000000" font-family="sans-serif" font-size="8.4" lengthAdjust="spacing" textLength="76.8" x="1036.2" y="627.0539">Product findById(int)</text><ellipse cx="1030.8" cy="635.6484" fill="#84BE84" rx="1.8" ry="1.8" style="stroke:#038048;stroke-width:0.6;"/><text fill="#000000" font-family="sans-serif" font-size="8.4" lengthAdjust="spacing" textLength="67.8" x="1036.2" y="638.2266">long countProds()</text><ellipse cx="1030.8" cy="646.8211" fill="#84BE84" rx="1.8" ry="1.8" style="stroke:#038048;stroke-width:0.6;"/><text fill="#000000" font-family="sans-serif" font-size="8.4" lengthAdjust="spacing" textLength="101.4" x="1036.2" y="649.3992">long countByMarca(Brand)</text><ellipse cx="1030.8" cy="657.9938" fill="#84BE84" rx="1.8" ry="1.8" style="stroke:#038048;stroke-width:0.6;"/><text fill="#000000" font-family="sans-serif" font-size="8.4" lengthAdjust="spacing" textLength="74.4" x="1036.2" y="660.5719">void deleteProd(int)</text><ellipse cx="1030.8" cy="669.1664" fill="#84BE84" rx="1.8" ry="1.8" style="stroke:#038048;stroke-width:0.6;"/><text fill="#000000" font-family="sans-serif" font-size="8.4" lengthAdjust="spacing" textLength="166.8" x="1036.2" y="671.7445">List&lt;Product&gt; findNombreContaining(String)</text></g><!--class PedidosServiceImpl--><g id="elem_PedidosServiceImpl"><rect codeLine="63" fill="#F1F1F1" height="95.8359" id="PedidosServiceImpl" rx="1.5" ry="1.5" style="stroke:#181818;stroke-width:0.3;" width="157.2" x="846" y="541.2082"/><ellipse cx="885.15" cy="550.8082" fill="#ADD1B2" rx="6.6" ry="6.6" style="stroke:#181818;stroke-width:0.6;"/><path d="M886.8094,548.3332 Q886.9031,548.202 887.0156,548.1363 Q887.1281,548.0707 887.2594,548.0707 Q887.4844,548.0707 887.625,548.2301 Q887.7656,548.3801 887.7656,548.7457 L887.7656,549.6176 Q887.7656,549.9832 887.625,550.1426 Q887.4844,550.302 887.2594,550.302 Q887.0531,550.302 886.9313,550.1801 Q886.8094,550.0676 886.7438,549.7582 Q886.7156,549.5426 886.6031,549.4301 Q886.4063,549.2051 886.0406,549.0738 Q885.675,548.9426 885.3,548.9426 Q884.8406,548.9426 884.4563,549.1395 Q884.0813,549.3363 883.7813,549.7863 Q883.4906,550.2363 883.4906,550.8551 L883.4906,551.5113 Q883.4906,552.252 884.025,552.7488 Q884.5594,553.2363 885.5156,553.2363 Q886.0781,553.2363 886.4719,553.0863 Q886.7063,552.9926 886.9594,552.7301 Q887.1188,552.5707 887.2031,552.5238 Q887.2969,552.477 887.4187,552.477 Q887.6156,552.477 887.7656,552.6363 Q887.925,552.7863 887.925,552.9926 Q887.925,553.1988 887.7188,553.4426 Q887.4187,553.7895 886.9406,553.9863 Q886.2937,554.2582 885.5156,554.2582 Q884.6062,554.2582 883.8844,553.8832 Q883.2937,553.5832 882.8813,552.9457 Q882.4688,552.2988 882.4688,551.5301 L882.4688,550.8363 Q882.4688,550.0395 882.8344,549.3551 Q883.2094,548.6613 883.8656,548.2957 Q884.5219,547.9207 885.2625,547.9207 Q885.7031,547.9207 886.0875,548.0238 Q886.4812,548.1176 886.8094,548.3332 Z " fill="#000000"/><text fill="#000000" font-family="sans-serif" font-size="8.4" lengthAdjust="spacing" textLength="73.8" x="897.45" y="554.2863">PedidosServiceImpl</text><line style="stroke:#181818;stroke-width:0.3;" x1="846.6" x2="1002.6" y1="560.4082" y2="560.4082"/><polygon fill="none" points="852.6,566.8945,850.2,570.4945,855,570.4945" style="stroke:#1963A0;stroke-width:0.6;"/><text fill="#000000" font-family="sans-serif" font-size="8.4" lengthAdjust="spacing" textLength="141.6" x="858" y="571.8727">PedidosRepository pedidosrepository</text><line style="stroke:#181818;stroke-width:0.3;" x1="846.6" x2="1002.6" y1="576.3809" y2="576.3809"/><ellipse cx="852.6" cy="585.2672" fill="#84BE84" rx="1.8" ry="1.8" style="stroke:#038048;stroke-width:0.6;"/><text fill="#000000" font-family="sans-serif" font-size="8.4" lengthAdjust="spacing" textLength="99" x="858" y="587.8453">void savePedido(Pedidos)</text><ellipse cx="852.6" cy="596.4398" fill="#84BE84" rx="1.8" ry="1.8" style="stroke:#038048;stroke-width:0.6;"/><text fill="#000000" font-family="sans-serif" font-size="8.4" lengthAdjust="spacing" textLength="72" x="858" y="599.018">long countPedido()</text><ellipse cx="852.6" cy="607.6125" fill="#84BE84" rx="1.8" ry="1.8" style="stroke:#038048;stroke-width:0.6;"/><text fill="#000000" font-family="sans-serif" font-size="8.4" lengthAdjust="spacing" textLength="115.2" x="858" y="610.1906">List&lt;Pedidos&gt; findAllPedidos()</text><ellipse cx="852.6" cy="618.7852" fill="#84BE84" rx="1.8" ry="1.8" style="stroke:#038048;stroke-width:0.6;"/><text fill="#000000" font-family="sans-serif" font-size="8.4" lengthAdjust="spacing" textLength="78" x="858" y="621.3633">Pedidos findById(int)</text><ellipse cx="852.6" cy="629.9578" fill="#84BE84" rx="1.8" ry="1.8" style="stroke:#038048;stroke-width:0.6;"/><text fill="#000000" font-family="sans-serif" font-size="8.4" lengthAdjust="spacing" textLength="90" x="858" y="632.5359">long countByUser(User)</text></g><!--class UserServiceImpl--><g id="elem_UserServiceImpl"><rect codeLine="82" fill="#F1F1F1" height="107.0086" id="UserServiceImpl" rx="1.5" ry="1.5" style="stroke:#181818;stroke-width:0.3;" width="158.4" x="666.6" y="535.8082"/><ellipse cx="712.95" cy="545.4082" fill="#ADD1B2" rx="6.6" ry="6.6" style="stroke:#181818;stroke-width:0.6;"/><path d="M714.6094,542.9332 Q714.7031,542.802 714.8156,542.7363 Q714.9281,542.6707 715.0594,542.6707 Q715.2844,542.6707 715.425,542.8301 Q715.5656,542.9801 715.5656,543.3457 L715.5656,544.2176 Q715.5656,544.5832 715.425,544.7426 Q715.2844,544.902 715.0594,544.902 Q714.8531,544.902 714.7312,544.7801 Q714.6094,544.6676 714.5437,544.3582 Q714.5156,544.1426 714.4031,544.0301 Q714.2063,543.8051 713.8406,543.6738 Q713.475,543.5426 713.1,543.5426 Q712.6406,543.5426 712.2563,543.7395 Q711.8813,543.9363 711.5813,544.3863 Q711.2906,544.8363 711.2906,545.4551 L711.2906,546.1113 Q711.2906,546.852 711.825,547.3488 Q712.3594,547.8363 713.3156,547.8363 Q713.8781,547.8363 714.2719,547.6863 Q714.5063,547.5926 714.7594,547.3301 Q714.9187,547.1707 715.0031,547.1238 Q715.0969,547.077 715.2188,547.077 Q715.4156,547.077 715.5656,547.2363 Q715.725,547.3863 715.725,547.5926 Q715.725,547.7988 715.5188,548.0426 Q715.2188,548.3895 714.7406,548.5863 Q714.0938,548.8582 713.3156,548.8582 Q712.4063,548.8582 711.6844,548.4832 Q711.0938,548.1832 710.6813,547.5457 Q710.2688,546.8988 710.2688,546.1301 L710.2688,545.4363 Q710.2688,544.6395 710.6344,543.9551 Q711.0094,543.2613 711.6656,542.8957 Q712.3219,542.5207 713.0625,542.5207 Q713.5031,542.5207 713.8875,542.6238 Q714.2813,542.7176 714.6094,542.9332 Z " fill="#000000"/><text fill="#000000" font-family="sans-serif" font-size="8.4" lengthAdjust="spacing" textLength="60.6" x="725.25" y="548.8863">UserServiceImpl</text><line style="stroke:#181818;stroke-width:0.3;" x1="667.2" x2="824.4" y1="555.0082" y2="555.0082"/><polygon fill="none" points="673.2,561.4945,670.8,565.0945,675.6,565.0945" style="stroke:#1963A0;stroke-width:0.6;"/><text fill="#000000" font-family="sans-serif" font-size="8.4" lengthAdjust="spacing" textLength="118.2" x="678.6" y="566.4727">UserRepository userRepository</text><line style="stroke:#181818;stroke-width:0.3;" x1="667.2" x2="824.4" y1="570.9809" y2="570.9809"/><ellipse cx="673.2" cy="579.8672" fill="#84BE84" rx="1.8" ry="1.8" style="stroke:#038048;stroke-width:0.6;"/><text fill="#000000" font-family="sans-serif" font-size="8.4" lengthAdjust="spacing" textLength="76.8" x="678.6" y="582.4453">void saveUser(User)</text><ellipse cx="673.2" cy="591.0398" fill="#84BE84" rx="1.8" ry="1.8" style="stroke:#038048;stroke-width:0.6;"/><text fill="#000000" font-family="sans-serif" font-size="8.4" lengthAdjust="spacing" textLength="84" x="678.6" y="593.618">List&lt;User&gt; findUsers()</text><ellipse cx="673.2" cy="602.2125" fill="#84BE84" rx="1.8" ry="1.8" style="stroke:#038048;stroke-width:0.6;"/><text fill="#000000" font-family="sans-serif" font-size="8.4" lengthAdjust="spacing" textLength="79.2" x="678.6" y="604.7906">User findUser(String)</text><ellipse cx="673.2" cy="613.3852" fill="#84BE84" rx="1.8" ry="1.8" style="stroke:#038048;stroke-width:0.6;"/><text fill="#000000" font-family="sans-serif" font-size="8.4" lengthAdjust="spacing" textLength="64.8" x="678.6" y="615.9633">User findById(int)</text><ellipse cx="673.2" cy="624.5578" fill="#84BE84" rx="1.8" ry="1.8" style="stroke:#038048;stroke-width:0.6;"/><text fill="#000000" font-family="sans-serif" font-size="8.4" lengthAdjust="spacing" textLength="67.2" x="678.6" y="627.1359">long countUsers()</text><ellipse cx="673.2" cy="635.7305" fill="#84BE84" rx="1.8" ry="1.8" style="stroke:#038048;stroke-width:0.6;"/><text fill="#000000" font-family="sans-serif" font-size="8.4" lengthAdjust="spacing" textLength="142.8" x="678.6" y="638.3086">List&lt;User&gt; findUserContaining(String)</text></g><!--class ProductosPerdidosServiceImpl--><g id="elem_ProductosPerdidosServiceImpl"><rect codeLine="91" fill="#F1F1F1" height="62.318" id="ProductosPerdidosServiceImpl" rx="1.5" ry="1.5" style="stroke:#181818;stroke-width:0.3;" width="201" x="444.3" y="558.0082"/><ellipse cx="484.65" cy="567.6082" fill="#ADD1B2" rx="6.6" ry="6.6" style="stroke:#181818;stroke-width:0.6;"/><path d="M486.3094,565.1332 Q486.4031,565.002 486.5156,564.9363 Q486.6281,564.8707 486.7594,564.8707 Q486.9844,564.8707 487.125,565.0301 Q487.2656,565.1801 487.2656,565.5457 L487.2656,566.4176 Q487.2656,566.7832 487.125,566.9426 Q486.9844,567.102 486.7594,567.102 Q486.5531,567.102 486.4313,566.9801 Q486.3094,566.8676 486.2438,566.5582 Q486.2156,566.3426 486.1031,566.2301 Q485.9063,566.0051 485.5406,565.8738 Q485.175,565.7426 484.8,565.7426 Q484.3406,565.7426 483.9562,565.9395 Q483.5812,566.1363 483.2813,566.5863 Q482.9906,567.0363 482.9906,567.6551 L482.9906,568.3113 Q482.9906,569.052 483.525,569.5488 Q484.0594,570.0363 485.0156,570.0363 Q485.5781,570.0363 485.9719,569.8863 Q486.2062,569.7926 486.4594,569.5301 Q486.6188,569.3707 486.7031,569.3238 Q486.7969,569.277 486.9188,569.277 Q487.1156,569.277 487.2656,569.4363 Q487.425,569.5863 487.425,569.7926 Q487.425,569.9988 487.2188,570.2426 Q486.9188,570.5895 486.4406,570.7863 Q485.7938,571.0582 485.0156,571.0582 Q484.1063,571.0582 483.3844,570.6832 Q482.7938,570.3832 482.3812,569.7457 Q481.9688,569.0988 481.9688,568.3301 L481.9688,567.6363 Q481.9688,566.8395 482.3344,566.1551 Q482.7094,565.4613 483.3656,565.0957 Q484.0219,564.7207 484.7625,564.7207 Q485.2031,564.7207 485.5875,564.8238 Q485.9813,564.9176 486.3094,565.1332 Z " fill="#000000"/><text fill="#000000" font-family="sans-serif" font-size="8.4" lengthAdjust="spacing" textLength="115.2" x="496.95" y="571.0863">ProductosPerdidosServiceImpl</text><line style="stroke:#181818;stroke-width:0.3;" x1="444.9" x2="644.7" y1="577.2082" y2="577.2082"/><polygon fill="none" points="450.9,583.6945,448.5,587.2945,453.3,587.2945" style="stroke:#1963A0;stroke-width:0.6;"/><text fill="#000000" font-family="sans-serif" font-size="8.4" lengthAdjust="spacing" textLength="185.4" x="456.3" y="588.6727">ProductosPedidoRepository prodsPedRepository</text><line style="stroke:#181818;stroke-width:0.3;" x1="444.9" x2="644.7" y1="593.1809" y2="593.1809"/><ellipse cx="450.9" cy="602.0672" fill="#84BE84" rx="1.8" ry="1.8" style="stroke:#038048;stroke-width:0.6;"/><text fill="#000000" font-family="sans-serif" font-size="8.4" lengthAdjust="spacing" textLength="148.2" x="456.3" y="604.6453">void savePedProd(Productos_pedidos)</text><ellipse cx="450.9" cy="613.2398" fill="#84BE84" rx="1.8" ry="1.8" style="stroke:#038048;stroke-width:0.6;"/><text fill="#000000" font-family="sans-serif" font-size="8.4" lengthAdjust="spacing" textLength="158.4" x="456.3" y="615.818">List&lt;Productos_pedidos&gt; findByIdPed(int)</text></g><!--class PermisosServiceImpl--><g id="elem_PermisosServiceImpl"><rect codeLine="96" fill="#F1F1F1" height="51.1453" id="PermisosServiceImpl" rx="1.5" ry="1.5" style="stroke:#181818;stroke-width:0.3;" width="165.6" x="257.4" y="563.7082"/><ellipse cx="298.65" cy="573.3082" fill="#ADD1B2" rx="6.6" ry="6.6" style="stroke:#181818;stroke-width:0.6;"/><path d="M300.3094,570.8332 Q300.4031,570.702 300.5156,570.6363 Q300.6281,570.5707 300.7594,570.5707 Q300.9844,570.5707 301.125,570.7301 Q301.2656,570.8801 301.2656,571.2457 L301.2656,572.1176 Q301.2656,572.4832 301.125,572.6426 Q300.9844,572.802 300.7594,572.802 Q300.5531,572.802 300.4313,572.6801 Q300.3094,572.5676 300.2438,572.2582 Q300.2156,572.0426 300.1031,571.9301 Q299.9063,571.7051 299.5406,571.5738 Q299.175,571.4426 298.8,571.4426 Q298.3406,571.4426 297.9563,571.6395 Q297.5813,571.8363 297.2813,572.2863 Q296.9906,572.7363 296.9906,573.3551 L296.9906,574.0113 Q296.9906,574.752 297.525,575.2488 Q298.0594,575.7363 299.0156,575.7363 Q299.5781,575.7363 299.9719,575.5863 Q300.2063,575.4926 300.4594,575.2301 Q300.6188,575.0707 300.7031,575.0238 Q300.7969,574.977 300.9188,574.977 Q301.1156,574.977 301.2656,575.1363 Q301.425,575.2863 301.425,575.4926 Q301.425,575.6988 301.2188,575.9426 Q300.9188,576.2895 300.4406,576.4863 Q299.7938,576.7582 299.0156,576.7582 Q298.1063,576.7582 297.3844,576.3832 Q296.7938,576.0832 296.3812,575.4457 Q295.9688,574.7988 295.9688,574.0301 L295.9688,573.3363 Q295.9688,572.5395 296.3344,571.8551 Q296.7094,571.1613 297.3656,570.7957 Q298.0219,570.4207 298.7625,570.4207 Q299.2031,570.4207 299.5875,570.5238 Q299.9813,570.6176 300.3094,570.8332 Z " fill="#000000"/><text fill="#000000" font-family="sans-serif" font-size="8.4" lengthAdjust="spacing" textLength="78" x="310.95" y="576.7863">PermisosServiceImpl</text><line style="stroke:#181818;stroke-width:0.3;" x1="258" x2="422.4" y1="582.9082" y2="582.9082"/><polygon fill="none" points="264,589.3945,261.6,592.9945,266.4,592.9945" style="stroke:#1963A0;stroke-width:0.6;"/><text fill="#000000" font-family="sans-serif" font-size="8.4" lengthAdjust="spacing" textLength="150" x="269.4" y="594.3727">PermisosRepository permisosrepository</text><line style="stroke:#181818;stroke-width:0.3;" x1="258" x2="422.4" y1="598.8809" y2="598.8809"/><ellipse cx="264" cy="607.7672" fill="#84BE84" rx="1.8" ry="1.8" style="stroke:#038048;stroke-width:0.6;"/><text fill="#000000" font-family="sans-serif" font-size="8.4" lengthAdjust="spacing" textLength="82.2" x="269.4" y="610.3453">Permisos findById(int)</text></g><!--class ComentarioServiceImpl--><g id="elem_ComentarioServiceImpl"><rect codeLine="122" fill="#F1F1F1" height="73.4906" id="ComentarioServiceImpl" rx="1.5" ry="1.5" style="stroke:#181818;stroke-width:0.3;" width="208.8" x="27.6" y="552.6082"/><ellipse cx="85.95" cy="562.2082" fill="#ADD1B2" rx="6.6" ry="6.6" style="stroke:#181818;stroke-width:0.6;"/><path d="M87.6094,559.7332 Q87.7031,559.602 87.8156,559.5363 Q87.9281,559.4707 88.0594,559.4707 Q88.2844,559.4707 88.425,559.6301 Q88.5656,559.7801 88.5656,560.1457 L88.5656,561.0176 Q88.5656,561.3832 88.425,561.5426 Q88.2844,561.702 88.0594,561.702 Q87.8531,561.702 87.7313,561.5801 Q87.6094,561.4676 87.5438,561.1582 Q87.5156,560.9426 87.4031,560.8301 Q87.2063,560.6051 86.8406,560.4738 Q86.475,560.3426 86.1,560.3426 Q85.6406,560.3426 85.2563,560.5395 Q84.8813,560.7363 84.5813,561.1863 Q84.2906,561.6363 84.2906,562.2551 L84.2906,562.9113 Q84.2906,563.652 84.825,564.1488 Q85.3594,564.6363 86.3156,564.6363 Q86.8781,564.6363 87.2719,564.4863 Q87.5063,564.3926 87.7594,564.1301 Q87.9188,563.9707 88.0031,563.9238 Q88.0969,563.877 88.2188,563.877 Q88.4156,563.877 88.5656,564.0363 Q88.725,564.1863 88.725,564.3926 Q88.725,564.5988 88.5188,564.8426 Q88.2188,565.1895 87.7406,565.3863 Q87.0938,565.6582 86.3156,565.6582 Q85.4063,565.6582 84.6844,565.2832 Q84.0938,564.9832 83.6812,564.3457 Q83.2688,563.6988 83.2688,562.9301 L83.2688,562.2363 Q83.2688,561.4395 83.6344,560.7551 Q84.0094,560.0613 84.6656,559.6957 Q85.3219,559.3207 86.0625,559.3207 Q86.5031,559.3207 86.8875,559.4238 Q87.2813,559.5176 87.6094,559.7332 Z " fill="#000000"/><text fill="#000000" font-family="sans-serif" font-size="8.4" lengthAdjust="spacing" textLength="87" x="98.25" y="565.6863">ComentarioServiceImpl</text><line style="stroke:#181818;stroke-width:0.3;" x1="28.2" x2="235.8" y1="571.8082" y2="571.8082"/><polygon fill="none" points="34.2,578.2945,31.8,581.8945,36.6,581.8945" style="stroke:#1963A0;stroke-width:0.6;"/><text fill="#000000" font-family="sans-serif" font-size="8.4" lengthAdjust="spacing" textLength="149.4" x="39.6" y="583.2727">ComentarioRepository comentarioRepo</text><line style="stroke:#181818;stroke-width:0.3;" x1="28.2" x2="235.8" y1="587.7809" y2="587.7809"/><ellipse cx="34.2" cy="596.6672" fill="#84BE84" rx="1.8" ry="1.8" style="stroke:#038048;stroke-width:0.6;"/><text fill="#000000" font-family="sans-serif" font-size="8.4" lengthAdjust="spacing" textLength="141" x="39.6" y="599.2453">List&lt;Comentarios&gt; findComentarios()</text><ellipse cx="34.2" cy="607.8398" fill="#84BE84" rx="1.8" ry="1.8" style="stroke:#038048;stroke-width:0.6;"/><text fill="#000000" font-family="sans-serif" font-size="8.4" lengthAdjust="spacing" textLength="119.4" x="39.6" y="610.418">void saveComent(Comentarios)</text><ellipse cx="34.2" cy="619.0125" fill="#84BE84" rx="1.8" ry="1.8" style="stroke:#038048;stroke-width:0.6;"/><text fill="#000000" font-family="sans-serif" font-size="8.4" lengthAdjust="spacing" textLength="193.2" x="39.6" y="621.5906">List&lt;Comentarios&gt; findComentarios_Prod(Product)</text></g><!--class PedidosService--><g id="elem_PedidosService"><rect codeLine="35" fill="#F1F1F1" height="84.6633" id="PedidosService" rx="1.5" ry="1.5" style="stroke:#181818;stroke-width:0.3;" width="130.8" x="751.2" y="332.4082"/><ellipse cx="784.95" cy="342.0082" fill="#B4A7E5" rx="6.6" ry="6.6" style="stroke:#181818;stroke-width:0.6;"/><path d="M785.5219,339.9926 L785.5219,343.9863 L786.5531,343.9863 Q786.9187,343.9863 787.0781,344.127 Q787.2375,344.2676 787.2375,344.502 Q787.2375,344.727 787.0781,344.8676 Q786.9187,345.0082 786.5531,345.0082 L783.4688,345.0082 Q783.1031,345.0082 782.9438,344.8676 Q782.7844,344.727 782.7844,344.4926 Q782.7844,344.2676 782.9438,344.127 Q783.1031,343.9863 783.4688,343.9863 L784.5,343.9863 L784.5,339.9926 L783.4688,339.9926 Q783.1031,339.9926 782.9438,339.852 Q782.7844,339.7113 782.7844,339.477 Q782.7844,339.252 782.9438,339.1113 Q783.1031,338.9707 783.4688,338.9707 L786.5531,338.9707 Q786.9187,338.9707 787.0781,339.1113 Q787.2375,339.252 787.2375,339.477 Q787.2375,339.7113 787.0781,339.852 Q786.9187,339.9926 786.5531,339.9926 L785.5219,339.9926 Z " fill="#000000"/><text fill="#000000" font-family="sans-serif" font-size="8.4" font-style="italic" lengthAdjust="spacing" textLength="58.2" x="797.25" y="345.4863">PedidosService</text><line style="stroke:#181818;stroke-width:0.3;" x1="751.8" x2="881.4" y1="351.6082" y2="351.6082"/><line style="stroke:#181818;stroke-width:0.3;" x1="751.8" x2="881.4" y1="356.4082" y2="356.4082"/><polygon fill="#4177AF" points="757.8,362.8945,755.4,366.4945,760.2,366.4945" style="stroke:#1963A0;stroke-width:0.6;"/><text fill="#000000" font-family="sans-serif" font-size="8.4" lengthAdjust="spacing" textLength="99" x="763.2" y="367.8727">void savePedido(Pedidos)</text><polygon fill="#4177AF" points="757.8,374.0672,755.4,377.6672,760.2,377.6672" style="stroke:#1963A0;stroke-width:0.6;"/><text fill="#000000" font-family="sans-serif" font-size="8.4" lengthAdjust="spacing" textLength="72" x="763.2" y="379.0453">long countPedido()</text><polygon fill="#4177AF" points="757.8,385.2398,755.4,388.8398,760.2,388.8398" style="stroke:#1963A0;stroke-width:0.6;"/><text fill="#000000" font-family="sans-serif" font-size="8.4" lengthAdjust="spacing" textLength="115.2" x="763.2" y="390.218">List&lt;Pedidos&gt; findAllPedidos()</text><polygon fill="#4177AF" points="757.8,396.4125,755.4,400.0125,760.2,400.0125" style="stroke:#1963A0;stroke-width:0.6;"/><text fill="#000000" font-family="sans-serif" font-size="8.4" lengthAdjust="spacing" textLength="78" x="763.2" y="401.3906">Pedidos findById(int)</text><polygon fill="#4177AF" points="757.8,407.5852,755.4,411.1852,760.2,411.1852" style="stroke:#1963A0;stroke-width:0.6;"/><text fill="#000000" font-family="sans-serif" font-size="8.4" lengthAdjust="spacing" textLength="90" x="763.2" y="412.5633">long countByUser(User)</text></g><!--class Productos_pedidosService--><g id="elem_Productos_pedidosService"><rect codeLine="42" fill="#F1F1F1" height="51.1453" id="Productos_pedidosService" rx="1.5" ry="1.5" style="stroke:#181818;stroke-width:0.3;" width="174" x="376.8" y="349.2082"/><ellipse cx="410.85" cy="358.8082" fill="#B4A7E5" rx="6.6" ry="6.6" style="stroke:#181818;stroke-width:0.6;"/><path d="M411.4219,356.7926 L411.4219,360.7863 L412.4531,360.7863 Q412.8187,360.7863 412.9781,360.927 Q413.1375,361.0676 413.1375,361.302 Q413.1375,361.527 412.9781,361.6676 Q412.8187,361.8082 412.4531,361.8082 L409.3688,361.8082 Q409.0031,361.8082 408.8438,361.6676 Q408.6844,361.527 408.6844,361.2926 Q408.6844,361.0676 408.8438,360.927 Q409.0031,360.7863 409.3688,360.7863 L410.4,360.7863 L410.4,356.7926 L409.3688,356.7926 Q409.0031,356.7926 408.8438,356.652 Q408.6844,356.5113 408.6844,356.277 Q408.6844,356.052 408.8438,355.9113 Q409.0031,355.7707 409.3688,355.7707 L412.4531,355.7707 Q412.8187,355.7707 412.9781,355.9113 Q413.1375,356.052 413.1375,356.277 Q413.1375,356.5113 412.9781,356.652 Q412.8187,356.7926 412.4531,356.7926 L411.4219,356.7926 Z " fill="#000000"/><text fill="#000000" font-family="sans-serif" font-size="8.4" font-style="italic" lengthAdjust="spacing" textLength="100.8" x="423.15" y="362.2863">Productos_pedidosService</text><line style="stroke:#181818;stroke-width:0.3;" x1="377.4" x2="550.2" y1="368.4082" y2="368.4082"/><line style="stroke:#181818;stroke-width:0.3;" x1="377.4" x2="550.2" y1="373.2082" y2="373.2082"/><polygon fill="#4177AF" points="383.4,379.6945,381,383.2945,385.8,383.2945" style="stroke:#1963A0;stroke-width:0.6;"/><text fill="#000000" font-family="sans-serif" font-size="8.4" lengthAdjust="spacing" textLength="148.2" x="388.8" y="384.6727">void savePedProd(Productos_pedidos)</text><polygon fill="#4177AF" points="383.4,390.8672,381,394.4672,385.8,394.4672" style="stroke:#1963A0;stroke-width:0.6;"/><text fill="#000000" font-family="sans-serif" font-size="8.4" lengthAdjust="spacing" textLength="158.4" x="388.8" y="395.8453">List&lt;Productos_pedidos&gt; findByIdPed(int)</text></g><!--class ProductService--><g id="elem_ProductService"><rect codeLine="46" fill="#F1F1F1" height="162.8719" id="ProductService" rx="1.5" ry="1.5" style="stroke:#181818;stroke-width:0.3;" width="182.4" x="903" y="293.4082"/><ellipse cx="963.15" cy="303.0082" fill="#B4A7E5" rx="6.6" ry="6.6" style="stroke:#181818;stroke-width:0.6;"/><path d="M963.7219,300.9926 L963.7219,304.9863 L964.7531,304.9863 Q965.1188,304.9863 965.2781,305.127 Q965.4375,305.2676 965.4375,305.502 Q965.4375,305.727 965.2781,305.8676 Q965.1188,306.0082 964.7531,306.0082 L961.6687,306.0082 Q961.3031,306.0082 961.1438,305.8676 Q960.9844,305.727 960.9844,305.4926 Q960.9844,305.2676 961.1438,305.127 Q961.3031,304.9863 961.6687,304.9863 L962.7,304.9863 L962.7,300.9926 L961.6687,300.9926 Q961.3031,300.9926 961.1438,300.852 Q960.9844,300.7113 960.9844,300.477 Q960.9844,300.252 961.1438,300.1113 Q961.3031,299.9707 961.6687,299.9707 L964.7531,299.9707 Q965.1188,299.9707 965.2781,300.1113 Q965.4375,300.252 965.4375,300.477 Q965.4375,300.7113 965.2781,300.852 Q965.1188,300.9926 964.7531,300.9926 L963.7219,300.9926 Z " fill="#000000"/><text fill="#000000" font-family="sans-serif" font-size="8.4" font-style="italic" lengthAdjust="spacing" textLength="57" x="975.45" y="306.4863">ProductService</text><line style="stroke:#181818;stroke-width:0.3;" x1="903.6" x2="1084.8" y1="312.6082" y2="312.6082"/><line style="stroke:#181818;stroke-width:0.3;" x1="903.6" x2="1084.8" y1="317.4082" y2="317.4082"/><polygon fill="#4177AF" points="909.6,323.8945,907.2,327.4945,912,327.4945" style="stroke:#1963A0;stroke-width:0.6;"/><text fill="#000000" font-family="sans-serif" font-size="8.4" lengthAdjust="spacing" textLength="100.8" x="915" y="328.8727">void saveProduct(Product)</text><polygon fill="#4177AF" points="909.6,335.0672,907.2,338.6672,912,338.6672" style="stroke:#1963A0;stroke-width:0.6;"/><text fill="#000000" font-family="sans-serif" font-size="8.4" lengthAdjust="spacing" textLength="96.6" x="915" y="340.0453">List&lt;Product&gt; findProds()</text><polygon fill="#4177AF" points="909.6,346.2398,907.2,349.8398,912,349.8398" style="stroke:#1963A0;stroke-width:0.6;"/><text fill="#000000" font-family="sans-serif" font-size="8.4" lengthAdjust="spacing" textLength="139.8" x="915" y="351.218">Page&lt;Product&gt; findProdsMen(int,int)</text><polygon fill="#4177AF" points="909.6,357.4125,907.2,361.0125,912,361.0125" style="stroke:#1963A0;stroke-width:0.6;"/><text fill="#000000" font-family="sans-serif" font-size="8.4" lengthAdjust="spacing" textLength="152.4" x="915" y="362.3906">Page&lt;Product&gt; findProdsWoman(int,int)</text><polygon fill="#4177AF" points="909.6,368.5852,907.2,372.1852,912,372.1852" style="stroke:#1963A0;stroke-width:0.6;"/><text fill="#000000" font-family="sans-serif" font-size="8.4" lengthAdjust="spacing" textLength="129" x="915" y="373.5633">Page&lt;Product&gt; paginacion(int,int)</text><polygon fill="#4177AF" points="909.6,379.7578,907.2,383.3578,912,383.3578" style="stroke:#1963A0;stroke-width:0.6;"/><text fill="#000000" font-family="sans-serif" font-size="8.4" lengthAdjust="spacing" textLength="109.2" x="915" y="384.7359">List&lt;Product&gt; findFeatured()</text><polygon fill="#4177AF" points="909.6,390.9305,907.2,394.5305,912,394.5305" style="stroke:#1963A0;stroke-width:0.6;"/><text fill="#000000" font-family="sans-serif" font-size="8.4" lengthAdjust="spacing" textLength="105" x="915" y="395.9086">Product findByName(String)</text><polygon fill="#4177AF" points="909.6,402.1031,907.2,405.7031,912,405.7031" style="stroke:#1963A0;stroke-width:0.6;"/><text fill="#000000" font-family="sans-serif" font-size="8.4" lengthAdjust="spacing" textLength="76.8" x="915" y="407.0813">Product findById(int)</text><polygon fill="#4177AF" points="909.6,413.2758,907.2,416.8758,912,416.8758" style="stroke:#1963A0;stroke-width:0.6;"/><text fill="#000000" font-family="sans-serif" font-size="8.4" lengthAdjust="spacing" textLength="67.8" x="915" y="418.2539">long countProds()</text><polygon fill="#4177AF" points="909.6,424.4484,907.2,428.0484,912,428.0484" style="stroke:#1963A0;stroke-width:0.6;"/><text fill="#000000" font-family="sans-serif" font-size="8.4" lengthAdjust="spacing" textLength="101.4" x="915" y="429.4266">long countByMarca(Brand)</text><polygon fill="#4177AF" points="909.6,435.6211,907.2,439.2211,912,439.2211" style="stroke:#1963A0;stroke-width:0.6;"/><text fill="#000000" font-family="sans-serif" font-size="8.4" lengthAdjust="spacing" textLength="74.4" x="915" y="440.5992">void deleteProd(int)</text><polygon fill="#4177AF" points="909.6,446.7938,907.2,450.3938,912,450.3938" style="stroke:#1963A0;stroke-width:0.6;"/><text fill="#000000" font-family="sans-serif" font-size="8.4" lengthAdjust="spacing" textLength="166.8" x="915" y="451.7719">List&lt;Product&gt; findNombreContaining(String)</text></g><!--class BrandService--><g id="elem_BrandService"><rect codeLine="74" fill="#F1F1F1" height="95.8359" id="BrandService" rx="1.5" ry="1.5" style="stroke:#181818;stroke-width:0.3;" width="175.8" x="1106.7" y="326.7082"/><ellipse cx="1166.85" cy="336.3082" fill="#B4A7E5" rx="6.6" ry="6.6" style="stroke:#181818;stroke-width:0.6;"/><path d="M1167.4219,334.2926 L1167.4219,338.2863 L1168.4531,338.2863 Q1168.8188,338.2863 1168.9781,338.427 Q1169.1375,338.5676 1169.1375,338.802 Q1169.1375,339.027 1168.9781,339.1676 Q1168.8188,339.3082 1168.4531,339.3082 L1165.3687,339.3082 Q1165.0031,339.3082 1164.8438,339.1676 Q1164.6844,339.027 1164.6844,338.7926 Q1164.6844,338.5676 1164.8438,338.427 Q1165.0031,338.2863 1165.3687,338.2863 L1166.4,338.2863 L1166.4,334.2926 L1165.3687,334.2926 Q1165.0031,334.2926 1164.8438,334.152 Q1164.6844,334.0113 1164.6844,333.777 Q1164.6844,333.552 1164.8438,333.4113 Q1165.0031,333.2707 1165.3687,333.2707 L1168.4531,333.2707 Q1168.8188,333.2707 1168.9781,333.4113 Q1169.1375,333.552 1169.1375,333.777 Q1169.1375,334.0113 1168.9781,334.152 Q1168.8188,334.2926 1168.4531,334.2926 L1167.4219,334.2926 Z " fill="#000000"/><text fill="#000000" font-family="sans-serif" font-size="8.4" font-style="italic" lengthAdjust="spacing" textLength="50.4" x="1179.15" y="339.7863">BrandService</text><line style="stroke:#181818;stroke-width:0.3;" x1="1107.3" x2="1281.9" y1="345.9082" y2="345.9082"/><line style="stroke:#181818;stroke-width:0.3;" x1="1107.3" x2="1281.9" y1="350.7082" y2="350.7082"/><polygon fill="#4177AF" points="1113.3,357.1945,1110.9,360.7945,1115.7,360.7945" style="stroke:#1963A0;stroke-width:0.6;"/><text fill="#000000" font-family="sans-serif" font-size="8.4" lengthAdjust="spacing" textLength="103.8" x="1118.7" y="362.1727">List&lt;Brand&gt; findAllBrands()</text><polygon fill="#4177AF" points="1113.3,368.3672,1110.9,371.9672,1115.7,371.9672" style="stroke:#1963A0;stroke-width:0.6;"/><text fill="#000000" font-family="sans-serif" font-size="8.4" lengthAdjust="spacing" textLength="87.6" x="1118.7" y="373.3453">void saveBrand(Brand)</text><polygon fill="#4177AF" points="1113.3,379.5398,1110.9,383.1398,1115.7,383.1398" style="stroke:#1963A0;stroke-width:0.6;"/><text fill="#000000" font-family="sans-serif" font-size="8.4" lengthAdjust="spacing" textLength="72.6" x="1118.7" y="384.518">long countBrands()</text><polygon fill="#4177AF" points="1113.3,390.7125,1110.9,394.3125,1115.7,394.3125" style="stroke:#1963A0;stroke-width:0.6;"/><text fill="#000000" font-family="sans-serif" font-size="8.4" lengthAdjust="spacing" textLength="70.2" x="1118.7" y="395.6906">Brand findById(int)</text><polygon fill="#4177AF" points="1113.3,401.8852,1110.9,405.4852,1115.7,405.4852" style="stroke:#1963A0;stroke-width:0.6;"/><text fill="#000000" font-family="sans-serif" font-size="8.4" lengthAdjust="spacing" textLength="79.2" x="1118.7" y="406.8633">void deleteBrand(int)</text><polygon fill="#4177AF" points="1113.3,413.0578,1110.9,416.6578,1115.7,416.6578" style="stroke:#1963A0;stroke-width:0.6;"/><text fill="#000000" font-family="sans-serif" font-size="8.4" lengthAdjust="spacing" textLength="160.2" x="1118.7" y="418.0359">List&lt;Brand&gt; findNombreContaining(String)</text></g><!--class ComentarioService--><g id="elem_ComentarioService"><rect codeLine="100" fill="#F1F1F1" height="62.318" id="ComentarioService" rx="1.5" ry="1.5" style="stroke:#181818;stroke-width:0.3;" width="208.8" x="27.6" y="343.5082"/><ellipse cx="93.75" cy="353.1082" fill="#B4A7E5" rx="6.6" ry="6.6" style="stroke:#181818;stroke-width:0.6;"/><path d="M94.3219,351.0926 L94.3219,355.0863 L95.3531,355.0863 Q95.7188,355.0863 95.8781,355.227 Q96.0375,355.3676 96.0375,355.602 Q96.0375,355.827 95.8781,355.9676 Q95.7188,356.1082 95.3531,356.1082 L92.2688,356.1082 Q91.9031,356.1082 91.7437,355.9676 Q91.5844,355.827 91.5844,355.5926 Q91.5844,355.3676 91.7437,355.227 Q91.9031,355.0863 92.2688,355.0863 L93.3,355.0863 L93.3,351.0926 L92.2688,351.0926 Q91.9031,351.0926 91.7437,350.952 Q91.5844,350.8113 91.5844,350.577 Q91.5844,350.352 91.7437,350.2113 Q91.9031,350.0707 92.2688,350.0707 L95.3531,350.0707 Q95.7188,350.0707 95.8781,350.2113 Q96.0375,350.352 96.0375,350.577 Q96.0375,350.8113 95.8781,350.952 Q95.7188,351.0926 95.3531,351.0926 L94.3219,351.0926 Z " fill="#000000"/><text fill="#000000" font-family="sans-serif" font-size="8.4" font-style="italic" lengthAdjust="spacing" textLength="71.4" x="106.05" y="356.5863">ComentarioService</text><line style="stroke:#181818;stroke-width:0.3;" x1="28.2" x2="235.8" y1="362.7082" y2="362.7082"/><line style="stroke:#181818;stroke-width:0.3;" x1="28.2" x2="235.8" y1="367.5082" y2="367.5082"/><polygon fill="#4177AF" points="34.2,373.9945,31.8,377.5945,36.6,377.5945" style="stroke:#1963A0;stroke-width:0.6;"/><text fill="#000000" font-family="sans-serif" font-size="8.4" lengthAdjust="spacing" textLength="141" x="39.6" y="378.9727">List&lt;Comentarios&gt; findComentarios()</text><polygon fill="#4177AF" points="34.2,385.1672,31.8,388.7672,36.6,388.7672" style="stroke:#1963A0;stroke-width:0.6;"/><text fill="#000000" font-family="sans-serif" font-size="8.4" lengthAdjust="spacing" textLength="119.4" x="39.6" y="390.1453">void saveComent(Comentarios)</text><polygon fill="#4177AF" points="34.2,396.3398,31.8,399.9398,36.6,399.9398" style="stroke:#1963A0;stroke-width:0.6;"/><text fill="#000000" font-family="sans-serif" font-size="8.4" lengthAdjust="spacing" textLength="193.2" x="39.6" y="401.318">List&lt;Comentarios&gt; findComentarios_Prod(Product)</text></g><!--class UserService--><g id="elem_UserService"><rect codeLine="112" fill="#F1F1F1" height="95.8359" id="UserService" rx="1.5" ry="1.5" style="stroke:#181818;stroke-width:0.3;" width="158.4" x="571.8" y="326.7082"/><ellipse cx="625.65" cy="336.3082" fill="#B4A7E5" rx="6.6" ry="6.6" style="stroke:#181818;stroke-width:0.6;"/><path d="M626.2219,334.2926 L626.2219,338.2863 L627.2531,338.2863 Q627.6188,338.2863 627.7781,338.427 Q627.9375,338.5676 627.9375,338.802 Q627.9375,339.027 627.7781,339.1676 Q627.6188,339.3082 627.2531,339.3082 L624.1687,339.3082 Q623.8031,339.3082 623.6438,339.1676 Q623.4844,339.027 623.4844,338.7926 Q623.4844,338.5676 623.6438,338.427 Q623.8031,338.2863 624.1687,338.2863 L625.2,338.2863 L625.2,334.2926 L624.1687,334.2926 Q623.8031,334.2926 623.6438,334.152 Q623.4844,334.0113 623.4844,333.777 Q623.4844,333.552 623.6438,333.4113 Q623.8031,333.2707 624.1687,333.2707 L627.2531,333.2707 Q627.6188,333.2707 627.7781,333.4113 Q627.9375,333.552 627.9375,333.777 Q627.9375,334.0113 627.7781,334.152 Q627.6188,334.2926 627.2531,334.2926 L626.2219,334.2926 Z " fill="#000000"/><text fill="#000000" font-family="sans-serif" font-size="8.4" font-style="italic" lengthAdjust="spacing" textLength="45.6" x="637.95" y="339.7863">UserService</text><line style="stroke:#181818;stroke-width:0.3;" x1="572.4" x2="729.6" y1="345.9082" y2="345.9082"/><line style="stroke:#181818;stroke-width:0.3;" x1="572.4" x2="729.6" y1="350.7082" y2="350.7082"/><polygon fill="#4177AF" points="578.4,357.1945,576,360.7945,580.8,360.7945" style="stroke:#1963A0;stroke-width:0.6;"/><text fill="#000000" font-family="sans-serif" font-size="8.4" lengthAdjust="spacing" textLength="76.8" x="583.8" y="362.1727">void saveUser(User)</text><polygon fill="#4177AF" points="578.4,368.3672,576,371.9672,580.8,371.9672" style="stroke:#1963A0;stroke-width:0.6;"/><text fill="#000000" font-family="sans-serif" font-size="8.4" lengthAdjust="spacing" textLength="84" x="583.8" y="373.3453">List&lt;User&gt; findUsers()</text><polygon fill="#4177AF" points="578.4,379.5398,576,383.1398,580.8,383.1398" style="stroke:#1963A0;stroke-width:0.6;"/><text fill="#000000" font-family="sans-serif" font-size="8.4" lengthAdjust="spacing" textLength="79.2" x="583.8" y="384.518">User findUser(String)</text><polygon fill="#4177AF" points="578.4,390.7125,576,394.3125,580.8,394.3125" style="stroke:#1963A0;stroke-width:0.6;"/><text fill="#000000" font-family="sans-serif" font-size="8.4" lengthAdjust="spacing" textLength="64.8" x="583.8" y="395.6906">User findById(int)</text><polygon fill="#4177AF" points="578.4,401.8852,576,405.4852,580.8,405.4852" style="stroke:#1963A0;stroke-width:0.6;"/><text fill="#000000" font-family="sans-serif" font-size="8.4" lengthAdjust="spacing" textLength="67.2" x="583.8" y="406.8633">long countUsers()</text><polygon fill="#4177AF" points="578.4,413.0578,576,416.6578,580.8,416.6578" style="stroke:#1963A0;stroke-width:0.6;"/><text fill="#000000" font-family="sans-serif" font-size="8.4" lengthAdjust="spacing" textLength="142.8" x="583.8" y="418.0359">List&lt;User&gt; findUserContaining(String)</text></g><!--class PermisosService--><g id="elem_PermisosService"><rect codeLine="128" fill="#F1F1F1" height="39.9727" id="PermisosService" rx="1.5" ry="1.5" style="stroke:#181818;stroke-width:0.3;" width="97.8" x="257.7" y="354.6082"/><ellipse cx="273.99" cy="364.2082" fill="#B4A7E5" rx="6.6" ry="6.6" style="stroke:#181818;stroke-width:0.6;"/><path d="M274.5619,362.1926 L274.5619,366.1863 L275.5931,366.1863 Q275.9587,366.1863 276.1181,366.327 Q276.2775,366.4676 276.2775,366.702 Q276.2775,366.927 276.1181,367.0676 Q275.9587,367.2082 275.5931,367.2082 L272.5087,367.2082 Q272.1431,367.2082 271.9838,367.0676 Q271.8244,366.927 271.8244,366.6926 Q271.8244,366.4676 271.9838,366.327 Q272.1431,366.1863 272.5087,366.1863 L273.54,366.1863 L273.54,362.1926 L272.5087,362.1926 Q272.1431,362.1926 271.9838,362.052 Q271.8244,361.9113 271.8244,361.677 Q271.8244,361.452 271.9838,361.3113 Q272.1431,361.1707 272.5087,361.1707 L275.5931,361.1707 Q275.9587,361.1707 276.1181,361.3113 Q276.2775,361.452 276.2775,361.677 Q276.2775,361.9113 276.1181,362.052 Q275.9587,362.1926 275.5931,362.1926 L274.5619,362.1926 Z " fill="#000000"/><text fill="#000000" font-family="sans-serif" font-size="8.4" font-style="italic" lengthAdjust="spacing" textLength="62.4" x="284.01" y="367.6863">PermisosService</text><line style="stroke:#181818;stroke-width:0.3;" x1="258.3" x2="354.9" y1="373.8082" y2="373.8082"/><line style="stroke:#181818;stroke-width:0.3;" x1="258.3" x2="354.9" y1="378.6082" y2="378.6082"/><polygon fill="#4177AF" points="264.3,385.0945,261.9,388.6945,266.7,388.6945" style="stroke:#1963A0;stroke-width:0.6;"/><text fill="#000000" font-family="sans-serif" font-size="8.4" lengthAdjust="spacing" textLength="82.2" x="269.7" y="390.0727">Permisos findById(int)</text></g><!--class JpaRepository--><g id="elem_JpaRepository"><rect fill="#F1F1F1" height="28.8" id="JpaRepository" rx="1.5" ry="1.5" style="stroke:#181818;stroke-width:0.3;" width="73.2" x="1922.4" y="133.8082"/><ellipse cx="1931.4" cy="143.4082" fill="#ADD1B2" rx="6.6" ry="6.6" style="stroke:#181818;stroke-width:0.6;"/><path d="M1933.0594,140.9332 Q1933.1531,140.802 1933.2656,140.7363 Q1933.3781,140.6707 1933.5094,140.6707 Q1933.7344,140.6707 1933.875,140.8301 Q1934.0156,140.9801 1934.0156,141.3457 L1934.0156,142.2176 Q1934.0156,142.5832 1933.875,142.7426 Q1933.7344,142.902 1933.5094,142.902 Q1933.3031,142.902 1933.1812,142.7801 Q1933.0594,142.6676 1932.9937,142.3582 Q1932.9656,142.1426 1932.8531,142.0301 Q1932.6563,141.8051 1932.2906,141.6738 Q1931.925,141.5426 1931.55,141.5426 Q1931.0906,141.5426 1930.7063,141.7395 Q1930.3313,141.9363 1930.0313,142.3863 Q1929.7406,142.8363 1929.7406,143.4551 L1929.7406,144.1113 Q1929.7406,144.852 1930.275,145.3488 Q1930.8094,145.8363 1931.7656,145.8363 Q1932.3281,145.8363 1932.7219,145.6863 Q1932.9563,145.5926 1933.2094,145.3301 Q1933.3687,145.1707 1933.4531,145.1238 Q1933.5469,145.077 1933.6687,145.077 Q1933.8656,145.077 1934.0156,145.2363 Q1934.175,145.3863 1934.175,145.5926 Q1934.175,145.7988 1933.9688,146.0426 Q1933.6687,146.3895 1933.1906,146.5863 Q1932.5437,146.8582 1931.7656,146.8582 Q1930.8562,146.8582 1930.1344,146.4832 Q1929.5437,146.1832 1929.1313,145.5457 Q1928.7188,144.8988 1928.7188,144.1301 L1928.7188,143.4363 Q1928.7188,142.6395 1929.0844,141.9551 Q1929.4594,141.2613 1930.1156,140.8957 Q1930.7719,140.5207 1931.5125,140.5207 Q1931.9531,140.5207 1932.3375,140.6238 Q1932.7312,140.7176 1933.0594,140.9332 Z " fill="#000000"/><text fill="#000000" font-family="sans-serif" font-size="8.4" lengthAdjust="spacing" textLength="54" x="1939.8" y="146.8863">JpaRepository</text><line style="stroke:#181818;stroke-width:0.3;" x1="1923" x2="1995" y1="153.0082" y2="153.0082"/><line style="stroke:#181818;stroke-width:0.3;" x1="1923" x2="1995" y1="157.8082" y2="157.8082"/></g><!--reverse link JpaRepository to BrandRepository--><g id="link_JpaRepository_BrandRepository"><path codeLine="133" d="M2007.72,154.2442 C2109.78,166.3282 2342.106,197.6722 2409,239.4082 C2454.738,267.9502 2487.822,324.5182 2502.966,354.4582 " fill="none" id="JpaRepository-backto-BrandRepository" style="stroke:#181818;stroke-width:0.6;"/><polygon fill="none" points="2007.084,158.3962,1995.654,152.8342,2008.056,150.0562,2007.084,158.3962" style="stroke:#181818;stroke-width:0.6;"/></g><!--reverse link BrandService to BrandServiceImpl--><g id="link_BrandService_BrandServiceImpl"><path codeLine="134" d="M1227.63,433.4362 C1245.768,465.3622 1268.1,504.6622 1285.752,535.7242 " fill="none" id="BrandService-backto-BrandServiceImpl" style="stroke:#181818;stroke-width:0.6;stroke-dasharray:7.0,7.0;"/><polygon fill="none" points="1223.928,435.4222,1221.648,422.9122,1231.23,431.2702,1223.928,435.4222" style="stroke:#181818;stroke-width:0.6;"/></g><!--reverse link JpaRepository to PedidosRepository--><g id="link_JpaRepository_PedidosRepository"><path codeLine="135" d="M2007.762,151.2082 C2074.278,156.8662 2193.984,175.8442 2271,239.4082 C2307.882,269.8462 2327.196,325.0882 2335.284,354.4822 " fill="none" id="JpaRepository-backto-PedidosRepository" style="stroke:#181818;stroke-width:0.6;"/><polygon fill="none" points="2007.426,155.3962,1995.786,150.2842,2008.068,147.0202,2007.426,155.3962" style="stroke:#181818;stroke-width:0.6;"/></g><!--reverse link JpaRepository to UserRepository--><g id="link_JpaRepository_UserRepository"><path codeLine="136" d="M1988.598,169.7962 C2011.98,187.1062 2044.77,213.0142 2070,239.4082 C2103.534,274.4842 2135.832,320.9122 2154.318,349.0882 " fill="none" id="JpaRepository-backto-UserRepository" style="stroke:#181818;stroke-width:0.6;"/><polygon fill="none" points="1986.102,173.1742,1978.89,162.7102,1991.052,166.3942,1986.102,173.1742" style="stroke:#181818;stroke-width:0.6;"/></g><!--reverse link ProductService to ProductServiceImpl--><g id="link_ProductService_ProductServiceImpl"><path codeLine="137" d="M1046.07,466.5922 C1052.76,478.3702 1059.594,490.4002 1066.242,502.0942 " fill="none" id="ProductService-backto-ProductServiceImpl" style="stroke:#181818;stroke-width:0.6;stroke-dasharray:7.0,7.0;"/><polygon fill="none" points="1042.386,468.6082,1040.106,456.0982,1049.688,464.4562,1042.386,468.6082" style="stroke:#181818;stroke-width:0.6;"/></g><!--reverse link JpaRepository to ProductosPedidoRepository--><g id="link_JpaRepository_ProductosPedidoRepository"><path codeLine="138" d="M1959,174.7342 C1959,220.3342 1959,313.8922 1959,354.5362 " fill="none" id="JpaRepository-backto-ProductosPedidoRepository" style="stroke:#181818;stroke-width:0.6;"/><polygon fill="none" points="1954.8,174.7342,1959,162.7342,1963.2,174.7342,1954.8,174.7342" style="stroke:#181818;stroke-width:0.6;"/></g><!--reverse link PedidosService to PedidosServiceImpl--><g id="link_PedidosService_PedidosServiceImpl"><path codeLine="139" d="M843.3,428.0422 C860.826,462.6562 883.554,507.5422 900.522,541.0522 " fill="none" id="PedidosService-backto-PedidosServiceImpl" style="stroke:#181818;stroke-width:0.6;stroke-dasharray:7.0,7.0;"/><polygon fill="none" points="839.484,429.8002,837.81,417.1942,846.978,426.0022,839.484,429.8002" style="stroke:#181818;stroke-width:0.6;"/></g><!--reverse link JpaRepository to ComentarioRepository--><g id="link_JpaRepository_ComentarioRepository"><path codeLine="140" d="M1929.684,169.8502 C1906.464,187.2022 1873.842,213.1582 1848.6,239.4082 C1812.51,276.9382 1777.428,327.1822 1759.308,354.4642 " fill="none" id="JpaRepository-backto-ComentarioRepository" style="stroke:#181818;stroke-width:0.6;"/><polygon fill="none" points="1927.326,166.3702,1939.476,162.6202,1932.318,173.1262,1927.326,166.3702" style="stroke:#181818;stroke-width:0.6;"/></g><!--reverse link UserService to UserServiceImpl--><g id="link_UserService_UserServiceImpl"><path codeLine="141" d="M677.112,434.0602 C691.248,465.8722 708.582,504.8602 722.292,535.7242 " fill="none" id="UserService-backto-UserServiceImpl" style="stroke:#181818;stroke-width:0.6;stroke-dasharray:7.0,7.0;"/><polygon fill="none" points="673.194,435.5842,672.156,422.9122,680.868,432.1702,673.194,435.5842" style="stroke:#181818;stroke-width:0.6;"/></g><!--reverse link Productos_pedidosService to ProductosPerdidosServiceImpl--><g id="link_Productos_pedidosService_ProductosPerdidosServiceImpl"><path codeLine="142" d="M477.666,411.8182 C493.308,453.0202 518.484,519.3082 533.154,557.9362 " fill="none" id="Productos_pedidosService-backto-ProductosPerdidosServiceImpl" style="stroke:#181818;stroke-width:0.6;stroke-dasharray:7.0,7.0;"/><polygon fill="none" points="473.664,413.1142,473.328,400.4062,481.518,410.1322,473.664,413.1142" style="stroke:#181818;stroke-width:0.6;"/></g><!--reverse link PermisosService to PermisosServiceImpl--><g id="link_PermisosService_PermisosServiceImpl"><path codeLine="143" d="M311.568,406.8502 C318.288,449.4862 330.126,524.6362 336.264,563.6062 " fill="none" id="PermisosService-backto-PermisosServiceImpl" style="stroke:#181818;stroke-width:0.6;stroke-dasharray:7.0,7.0;"/><polygon fill="none" points="307.422,407.4982,309.702,394.9942,315.714,406.1902,307.422,407.4982" style="stroke:#181818;stroke-width:0.6;"/></g><!--reverse link JpaRepository to ProductRepository--><g id="link_JpaRepository_ProductRepository"><path codeLine="144" d="M1910.316,153.8482 C1845.264,162.4822 1728.528,184.8142 1645.2,239.4082 C1608.936,263.1682 1578.414,302.3122 1558.506,332.2942 " fill="none" id="JpaRepository-backto-ProductRepository" style="stroke:#181818;stroke-width:0.6;"/><polygon fill="none" points="1909.8,149.6782,1922.232,152.3422,1910.85,158.0122,1909.8,149.6782" style="stroke:#181818;stroke-width:0.6;"/></g><!--reverse link JpaRepository to PermisosRepository--><g id="link_JpaRepository_PermisosRepository"><path codeLine="145" d="M1910.202,151.1782 C1792.62,157.7902 1497.732,180.0202 1422,239.4082 C1382.808,270.1402 1369.536,332.4922 1365.45,360.2422 " fill="none" id="JpaRepository-backto-PermisosRepository" style="stroke:#181818;stroke-width:0.6;"/><polygon fill="none" points="1910.118,146.9782,1922.328,150.5182,1910.58,155.3662,1910.118,146.9782" style="stroke:#181818;stroke-width:0.6;"/></g><!--reverse link ComentarioService to ComentarioServiceImpl--><g id="link_ComentarioService_ComentarioServiceImpl"><path codeLine="146" d="M132,418.1962 C132,457.6042 132,515.3662 132,552.4762 " fill="none" id="ComentarioService-backto-ComentarioServiceImpl" style="stroke:#181818;stroke-width:0.6;stroke-dasharray:7.0,7.0;"/><polygon fill="none" points="127.8,418.0942,132,406.0942,136.2,418.0942,127.8,418.0942" style="stroke:#181818;stroke-width:0.6;"/></g><!--SRC=[jLTTRvim57tthyWZ4Is_eAgqPEhKQPcYLjKUAmUSo1l1o91EKJl_ziNOu6z3slGbuEiR-tBlEVVOk6eHtS8SpTPtozNNLKPHJHhS4dhC5XHMnSCmdhq2Dlk1c_QccxYTRN5LB8u_oNv3qP9KBSGLhdR9OqjFZpdu1_8IDas_y2EYBpX7z_kw52jhXcvfUxkDEGQfi_cNikn6JJ8_pRuGNCmQ-88wMzBzSdj9gjqi9uUgrPoxL_a5zqM2gtPOea0bQkKYqcvl7Fbc74de6XMu88sLKYs-urDpW1IJvAb1T6mrxcCjnKr6MOR0PEMumqSAjwQaEEIjNJffrgAfROjU8EcUoEUGOJaM0VA1gDKQxf2Qg-4ELp37fEBLkP8LCds6__yYUpZ5RuKCBpUQEmJR0qM524ZCz7c4UvLdUr9XIvLPVPbU-XMaELIerQ38_PDWPETWKTQj1w8STYLKnUdc4kaoDm0gvmOuIQU1ZNBSESXtAmyst14DOts8LdmkQPxhUDnTeXnl5QqzSpi4T_gpY6yy3F_cDg9P1D5i4WhPH4op2VnWSKIp6A9P0D7CWsWMHZJp8vfz4D5wT-tBAv3d4wuW0cpGnrgWWK7L0ftUBhUW_XPeRPZwM9QEiImDi2mzWsLQ1fTaZqv9FmcGBtbgLgLDvbFXFi8VNVIzPmbTpbb0pfbFpfbNpbb0pjavSXw40S-dZG5BaG_6KA- -Lf7K5cR-9cexg7ddhXH6KtbVmTK2dfNV9VUSKjIF-Y3d-060Mnz2y0yrw_ISPXrXATtZnaTJOJTuAam6KNi_AyyHU2jwE1XtcACPJAoBYKIRdqzPv5bFviG-QL7S5Pl5yHkg42M9U5nn3xWfaRzfBuw3eFIoP6gAVHwDA8LlzVSSSpIEcdAjyO-5-CS2_6C-_Z4F_zXa_iNl30vWNsF0Ts0uGD_RtNF3s9Dl1B1f7B3f9G2hZge6aGqIE-G4WD1TrjGyiLjwEiNy9VHFLi0MPhzhgAVrUmsrBDoyNL-FNu11JD1kth9iobNtiX4wfuxBBcyA6eWVY4CPSE-C5yv1I8D0_DOJZDSvu5qsNXyFGQHpXUAqJY1Wwgrff4vUiGSZh0pdqf7XJod-Pn70xRvWLFP3kV1svly0]--></g></svg>